<?xml version="1.0" encoding="utf-8" standalone="no"?>
<!DOCTYPE svg PUBLIC "-//W3C//DTD SVG 1.1//EN"
  "http://www.w3.org/Graphics/SVG/1.1/DTD/svg11.dtd">
<svg xmlns:xlink="http://www.w3.org/1999/xlink" width="564.69625pt" height="492.760937pt" viewBox="0 0 564.69625 492.760937" xmlns="http://www.w3.org/2000/svg" version="1.1">
 <metadata>
  <rdf:RDF xmlns:dc="http://purl.org/dc/elements/1.1/" xmlns:cc="http://creativecommons.org/ns#" xmlns:rdf="http://www.w3.org/1999/02/22-rdf-syntax-ns#">
   <cc:Work>
    <dc:type rdf:resource="http://purl.org/dc/dcmitype/StillImage"/>
    <dc:date>2025-11-20T10:49:20.791537</dc:date>
    <dc:format>image/svg+xml</dc:format>
    <dc:creator>
     <cc:Agent>
      <dc:title>Matplotlib v3.10.7, https://matplotlib.org/</dc:title>
     </cc:Agent>
    </dc:creator>
   </cc:Work>
  </rdf:RDF>
 </metadata>
 <defs>
  <style type="text/css">*{stroke-linejoin: round; stroke-linecap: butt}</style>
 </defs>
 <g id="figure_1">
  <g id="patch_1">
   <path d="M 0 492.760937 
L 564.69625 492.760937 
L 564.69625 0 
L 0 0 
z
" style="fill: #ffffff"/>
  </g>
  <g id="axes_1">
   <g id="patch_2">
    <path d="M 62.349219 449.397812 
L 547.159219 449.397812 
L 547.159219 23.837812 
L 62.349219 23.837812 
z
" style="fill: #ffffff"/>
   </g>
   <g id="FillBetweenPolyCollection_1">
    <path d="M 67.197319 217.544324 
L 67.197319 223.042003 
L 71.996448 223.276798 
L 76.795577 223.528284 
L 81.594707 223.801496 
L 86.393836 224.103699 
L 91.192965 224.445153 
L 95.992095 224.82913 
L 100.791224 225.2362 
L 105.590353 225.637238 
L 110.389482 226.087845 
L 115.188612 226.597543 
L 119.987741 227.170968 
L 124.78687 227.752261 
L 129.586 228.365368 
L 134.385129 229.088504 
L 139.184258 229.584113 
L 143.983387 229.479683 
L 148.782517 229.95333 
L 153.581646 230.67435 
L 158.380775 231.430036 
L 163.179905 232.057032 
L 167.979034 232.861433 
L 172.778163 233.365358 
L 177.577292 233.624179 
L 182.376422 233.178801 
L 187.175551 235.25746 
L 191.97468 235.204315 
L 196.77381 235.721444 
L 201.572939 236.560934 
L 206.372068 237.428446 
L 211.171198 237.974794 
L 215.970327 238.885874 
L 220.769456 239.450925 
L 225.568585 240.96896 
L 230.367715 238.877856 
L 235.166844 239.707765 
L 239.965973 240.566084 
L 244.765103 241.453924 
L 249.564232 242.372494 
L 254.363361 243.323106 
L 259.16249 243.879724 
L 263.96162 244.881202 
L 268.760749 245.482553 
L 273.559878 246.133812 
L 278.359008 246.473501 
L 283.158137 247.572905 
L 287.957266 248.474976 
L 292.756396 249.057154 
L 297.555525 248.595842 
L 302.354654 249.555079 
L 307.153783 249.751812 
L 311.952913 250.589391 
L 316.752042 250.2214 
L 321.551171 250.529113 
L 326.350301 251.807671 
L 331.14943 251.521456 
L 335.948559 252.068123 
L 340.747688 253.312133 
L 345.546818 254.617722 
L 350.345947 255.351816 
L 355.145076 256.763225 
L 359.944206 258.671403 
L 364.743335 260.23922 
L 369.542464 260.728283 
L 374.341593 262.189218 
L 379.140723 263.991211 
L 383.939852 265.858737 
L 388.738981 270.994391 
L 393.538111 273.214113 
L 398.33724 275.577142 
L 403.136369 276.27254 
L 407.935499 278.595649 
L 412.734628 279.259444 
L 417.533757 280.37306 
L 422.332886 280.986302 
L 427.132016 284.235132 
L 431.931145 284.983125 
L 436.730274 288.032363 
L 441.529404 291.872927 
L 446.328533 296.080875 
L 451.127662 299.126668 
L 455.926791 304.14898 
L 460.725921 307.377797 
L 465.52505 312.196133 
L 470.324179 301.10484 
L 475.123309 307.032684 
L 479.922438 314.059165 
L 484.721567 321.874582 
L 489.520697 329.469351 
L 494.319826 339.293746 
L 499.118955 351.921083 
L 503.918084 368.217265 
L 508.717214 398.829363 
L 513.516343 425.741089 
L 518.315472 461.609236 
L 523.114602 511.796663 
L 527.913731 587.015444 
L 532.71286 712.212008 
L 537.511989 961.972379 
L 542.311119 1706.213121 
L 542.311119 506.79739 
L 542.311119 506.79739 
L 537.511989 366.566602 
L 532.71286 319.504325 
L 527.913731 295.911927 
L 523.114602 281.736119 
L 518.315472 272.276561 
L 513.516343 265.514913 
L 508.717214 260.440716 
L 503.918084 279.615874 
L 499.118955 277.516577 
L 494.319826 274.371652 
L 489.520697 271.544281 
L 484.721567 268.381569 
L 479.922438 264.883344 
L 475.123309 261.774388 
L 470.324179 259.12104 
L 465.52505 261.227525 
L 460.725921 260.391791 
L 455.926791 258.457466 
L 451.127662 256.397286 
L 446.328533 254.288632 
L 441.529404 252.59866 
L 436.730274 251.053939 
L 431.931145 250.222521 
L 427.132016 251.718628 
L 422.332886 252.277679 
L 417.533757 252.716899 
L 412.734628 251.282463 
L 407.935499 249.687251 
L 403.136369 248.563282 
L 398.33724 247.064042 
L 393.538111 245.908749 
L 388.738981 244.823315 
L 383.939852 253.964612 
L 379.140723 252.206655 
L 374.341593 251.4899 
L 369.542464 250.550406 
L 364.743335 249.293828 
L 359.944206 248.124986 
L 355.145076 247.104049 
L 350.345947 246.042388 
L 345.546818 244.883638 
L 340.747688 243.925009 
L 335.948559 243.007697 
L 331.14943 241.898797 
L 326.350301 240.408327 
L 321.551171 240.127568 
L 316.752042 238.961496 
L 311.952913 237.468806 
L 307.153783 237.20033 
L 302.354654 241.466881 
L 297.555525 241.761541 
L 292.756396 240.909233 
L 287.957266 239.535685 
L 283.158137 239.163758 
L 278.359008 238.481961 
L 273.559878 237.611284 
L 268.760749 237.071204 
L 263.96162 236.264874 
L 259.16249 235.669604 
L 254.363361 234.897742 
L 249.564232 234.34497 
L 244.765103 233.807875 
L 239.965973 233.285533 
L 235.166844 232.777053 
L 230.367715 232.281574 
L 225.568585 230.241508 
L 220.769456 232.511406 
L 215.970327 231.840162 
L 211.171198 231.395019 
L 206.372068 230.762491 
L 201.572939 230.34208 
L 196.77381 229.928928 
L 191.97468 229.347428 
L 187.175551 228.558678 
L 182.376422 229.119592 
L 177.577292 228.09831 
L 172.778163 227.943715 
L 167.979034 227.519405 
L 163.179905 227.134704 
L 158.380775 226.683283 
L 153.581646 226.3025 
L 148.782517 225.914432 
L 143.983387 225.438727 
L 139.184258 226.438093 
L 134.385129 225.90514 
L 129.586 225.441604 
L 124.78687 224.943679 
L 119.987741 224.431505 
L 115.188612 223.88817 
L 110.389482 223.305649 
L 105.590353 222.72002 
L 100.791224 222.241805 
L 95.992095 221.672642 
L 91.192965 221.059317 
L 86.393836 220.376162 
L 81.594707 219.67488 
L 76.795577 218.965085 
L 71.996448 218.253419 
L 67.197319 217.544324 
z
" clip-path="url(#p74c8118c5e)" style="fill: #1f77b4; fill-opacity: 0.2; stroke: #1f77b4; stroke-opacity: 0.2"/>
   </g>
   <g id="FillBetweenPolyCollection_2">
    <defs>
     <path id="me865094210" d="M 67.197319 -274.190431 
L 67.197319 -270.312764 
L 71.996448 -265.031915 
L 76.795577 -259.043995 
L 81.594707 -253.112682 
L 86.393836 -247.278434 
L 91.192965 -241.448826 
L 95.992095 -235.642621 
L 100.791224 -229.804536 
L 105.590353 -224.036126 
L 110.389482 -218.068649 
L 115.188612 -212.588578 
L 119.987741 -206.920281 
L 124.78687 -201.514924 
L 129.586 -195.84303 
L 134.385129 -190.952324 
L 139.184258 -186.544386 
L 143.983387 -182.152389 
L 148.782517 -178.593761 
L 153.581646 -175.010434 
L 158.380775 -171.577416 
L 163.179905 -168.139534 
L 167.979034 -166.10673 
L 172.778163 -163.989087 
L 177.577292 -162.875325 
L 182.376422 -164.175512 
L 187.175551 -165.860036 
L 191.97468 -165.138389 
L 196.77381 -167.352861 
L 201.572939 -170.186617 
L 206.372068 -175.238534 
L 211.171198 -179.707158 
L 215.970327 -184.762505 
L 220.769456 -187.877862 
L 225.568585 -189.793929 
L 230.367715 -194.420527 
L 235.166844 -202.876393 
L 239.965973 -208.163251 
L 244.765103 -213.367498 
L 249.564232 -217.496547 
L 254.363361 -222.357334 
L 259.16249 -224.182338 
L 263.96162 -228.132689 
L 268.760749 -233.10417 
L 273.559878 -234.04794 
L 278.359008 -236.231666 
L 283.158137 -240.113325 
L 287.957266 -242.674096 
L 292.756396 -245.033507 
L 297.555525 -245.585118 
L 302.354654 -246.270081 
L 307.153783 -244.851324 
L 311.952913 -245.778454 
L 316.752042 -245.785691 
L 321.551171 -245.453687 
L 326.350301 -245.61229 
L 331.14943 -245.471837 
L 335.948559 -243.857875 
L 340.747688 -242.673399 
L 345.546818 -241.266577 
L 350.345947 -240.286929 
L 355.145076 -239.540426 
L 359.944206 -241.469003 
L 364.743335 -240.184083 
L 369.542464 -240.174904 
L 374.341593 -237.224452 
L 379.140723 -236.808359 
L 383.939852 -238.011349 
L 388.738981 -237.005914 
L 393.538111 -237.498093 
L 398.33724 -236.017747 
L 403.136369 -234.906492 
L 407.935499 -234.296257 
L 412.734628 -234.57498 
L 417.533757 -232.598393 
L 422.332886 -230.737119 
L 427.132016 -228.364764 
L 431.931145 -226.628837 
L 436.730274 -223.151757 
L 441.529404 -222.879355 
L 446.328533 -221.913589 
L 451.127662 -218.226874 
L 455.926791 -214.691843 
L 460.725921 -210.702911 
L 465.52505 -209.588943 
L 470.324179 -204.220524 
L 475.123309 -202.445222 
L 479.922438 -195.334172 
L 484.721567 -192.094234 
L 489.520697 -188.822177 
L 494.319826 -185.52199 
L 499.118955 -190.49815 
L 503.918084 -186.597734 
L 508.717214 -180.35733 
L 513.516343 -165.862773 
L 518.315472 -163.948896 
L 523.114602 -152.306956 
L 527.913731 -147.253187 
L 532.71286 -129.05606 
L 537.511989 -92.848972 
L 542.311119 -91.479147 
L 542.311119 -330.262422 
L 542.311119 -330.262422 
L 537.511989 -330.69597 
L 532.71286 -317.736669 
L 527.913731 -304.543436 
L 523.114602 -303.086857 
L 518.315472 -295.160976 
L 513.516343 -295.337442 
L 508.717214 -290.38637 
L 503.918084 -281.630461 
L 499.118955 -281.374512 
L 494.319826 -284.338786 
L 489.520697 -282.679733 
L 484.721567 -282.618394 
L 479.922438 -282.554092 
L 475.123309 -278.32716 
L 470.324179 -275.37332 
L 465.52505 -274.327398 
L 460.725921 -273.764693 
L 455.926791 -272.884497 
L 451.127662 -272.805994 
L 446.328533 -271.05561 
L 441.529404 -271.610726 
L 436.730274 -272.32651 
L 431.931145 -270.619223 
L 427.132016 -268.93139 
L 422.332886 -268.59135 
L 417.533757 -265.344376 
L 412.734628 -263.056796 
L 407.935499 -262.807509 
L 403.136369 -263.207869 
L 398.33724 -262.383631 
L 393.538111 -262.036384 
L 388.738981 -262.934607 
L 383.939852 -263.657295 
L 379.140723 -265.304528 
L 374.341593 -266.057945 
L 369.542464 -263.920045 
L 364.743335 -264.403383 
L 359.944206 -261.52598 
L 355.145076 -261.192733 
L 350.345947 -261.185407 
L 345.546818 -258.957898 
L 340.747688 -258.589307 
L 335.948559 -258.238697 
L 331.14943 -257.450808 
L 326.350301 -255.767195 
L 321.551171 -255.316913 
L 316.752042 -255.107902 
L 311.952913 -255.427936 
L 307.153783 -256.029767 
L 302.354654 -255.692933 
L 297.555525 -256.208821 
L 292.756396 -257.001523 
L 287.957266 -257.916288 
L 283.158137 -258.665841 
L 278.359008 -259.630844 
L 273.559878 -260.808271 
L 268.760749 -262.074804 
L 263.96162 -265.092221 
L 259.16249 -267.669431 
L 254.363361 -268.463181 
L 249.564232 -271.65674 
L 244.765103 -272.58248 
L 239.965973 -274.400441 
L 235.166844 -277.631091 
L 230.367715 -282.760767 
L 225.568585 -284.705945 
L 220.769456 -285.326777 
L 215.970327 -286.392194 
L 211.171198 -289.056171 
L 206.372068 -291.293418 
L 201.572939 -293.6315 
L 196.77381 -295.025617 
L 191.97468 -295.86146 
L 187.175551 -294.987707 
L 182.376422 -295.70495 
L 177.577292 -296.319417 
L 172.778163 -295.846388 
L 167.979034 -294.803363 
L 163.179905 -293.904606 
L 158.380775 -292.589193 
L 153.581646 -290.913399 
L 148.782517 -289.830555 
L 143.983387 -289.281167 
L 139.184258 -288.083197 
L 134.385129 -286.385099 
L 129.586 -285.629706 
L 124.78687 -284.216324 
L 119.987741 -282.72928 
L 115.188612 -281.122645 
L 110.389482 -280.252074 
L 105.590353 -278.962053 
L 100.791224 -277.834057 
L 95.992095 -276.800375 
L 91.192965 -276.234584 
L 86.393836 -275.258028 
L 81.594707 -274.920379 
L 76.795577 -274.279335 
L 71.996448 -273.640619 
L 67.197319 -274.190431 
z
" style="stroke: #2ca02c; stroke-opacity: 0.2"/>
    </defs>
    <g clip-path="url(#p74c8118c5e)">
     <use xlink:href="#me865094210" x="0" y="492.760937" style="fill: #2ca02c; fill-opacity: 0.2; stroke: #2ca02c; stroke-opacity: 0.2"/>
    </g>
   </g>
   <g id="FillBetweenPolyCollection_3">
    <defs>
     <path id="m18874bf1e6" d="M 67.197319 -274.461376 
L 67.197319 -271.511819 
L 71.996448 -268.658888 
L 76.795577 -266.110238 
L 81.594707 -264.280321 
L 86.393836 -262.639643 
L 91.192965 -261.203095 
L 95.992095 -259.708492 
L 100.791224 -258.806125 
L 105.590353 -258.017086 
L 110.389482 -257.25579 
L 115.188612 -256.841691 
L 119.987741 -255.830896 
L 124.78687 -255.199392 
L 129.586 -255.299942 
L 134.385129 -255.377543 
L 139.184258 -254.814385 
L 143.983387 -255.569599 
L 148.782517 -255.869788 
L 153.581646 -255.879519 
L 158.380775 -255.576631 
L 163.179905 -255.933439 
L 167.979034 -256.231588 
L 172.778163 -255.607166 
L 177.577292 -256.706494 
L 182.376422 -256.000556 
L 187.175551 -255.713504 
L 191.97468 -255.214645 
L 196.77381 -255.064305 
L 201.572939 -255.298758 
L 206.372068 -256.234392 
L 211.171198 -255.980607 
L 215.970327 -255.736163 
L 220.769456 -255.753564 
L 225.568585 -255.269248 
L 230.367715 -255.542912 
L 235.166844 -256.493667 
L 239.965973 -256.258578 
L 244.765103 -256.567691 
L 249.564232 -256.08898 
L 254.363361 -255.567414 
L 259.16249 -254.922533 
L 263.96162 -255.283729 
L 268.760749 -255.092952 
L 273.559878 -255.258094 
L 278.359008 -255.528671 
L 283.158137 -255.97213 
L 287.957266 -255.513912 
L 292.756396 -255.329849 
L 297.555525 -255.227831 
L 302.354654 -254.816072 
L 307.153783 -254.317279 
L 311.952913 -254.447429 
L 316.752042 -254.486199 
L 321.551171 -253.622756 
L 326.350301 -252.391353 
L 331.14943 -251.69782 
L 335.948559 -251.551599 
L 340.747688 -250.78526 
L 345.546818 -251.1135 
L 350.345947 -250.523952 
L 355.145076 -249.598844 
L 359.944206 -248.388002 
L 364.743335 -248.25872 
L 369.542464 -248.519676 
L 374.341593 -247.832894 
L 379.140723 -246.648416 
L 383.939852 -246.138658 
L 388.738981 -245.495546 
L 393.538111 -244.00487 
L 398.33724 -242.415864 
L 403.136369 -242.113851 
L 407.935499 -244.268394 
L 412.734628 -242.556903 
L 417.533757 -240.953248 
L 422.332886 -240.406332 
L 427.132016 -238.830797 
L 431.931145 -239.479559 
L 436.730274 -238.492434 
L 441.529404 -237.082376 
L 446.328533 -242.015261 
L 451.127662 -240.70355 
L 455.926791 -240.313306 
L 460.725921 -237.696779 
L 465.52505 -237.642013 
L 470.324179 -239.732324 
L 475.123309 -238.029638 
L 479.922438 -235.257094 
L 484.721567 -235.69415 
L 489.520697 -232.361623 
L 494.319826 -236.209953 
L 499.118955 -232.776205 
L 503.918084 -232.992384 
L 508.717214 -246.656715 
L 513.516343 -243.977346 
L 518.315472 -240.366715 
L 523.114602 -244.243701 
L 527.913731 -240.354139 
L 532.71286 -232.918075 
L 537.511989 -255.507782 
L 542.311119 -254.759767 
L 542.311119 -259.502003 
L 542.311119 -259.502003 
L 537.511989 -260.071001 
L 532.71286 -272.269695 
L 527.913731 -268.576743 
L 523.114602 -267.659649 
L 518.315472 -263.219196 
L 513.516343 -262.635394 
L 508.717214 -262.391527 
L 503.918084 -257.923345 
L 499.118955 -259.452775 
L 494.319826 -260.353914 
L 489.520697 -263.154244 
L 484.721567 -262.705354 
L 479.922438 -263.94583 
L 475.123309 -263.558675 
L 470.324179 -264.643031 
L 465.52505 -261.816588 
L 460.725921 -263.077728 
L 455.926791 -263.197626 
L 451.127662 -264.036064 
L 446.328533 -264.556788 
L 441.529404 -266.457823 
L 436.730274 -266.887525 
L 431.931145 -265.831501 
L 427.132016 -262.861715 
L 422.332886 -260.921038 
L 417.533757 -261.645464 
L 412.734628 -260.634397 
L 407.935499 -258.691751 
L 403.136369 -259.511016 
L 398.33724 -260.296036 
L 393.538111 -260.806373 
L 388.738981 -261.327744 
L 383.939852 -262.28783 
L 379.140723 -262.358447 
L 374.341593 -262.664061 
L 369.542464 -262.835188 
L 364.743335 -263.614306 
L 359.944206 -263.470124 
L 355.145076 -263.109364 
L 350.345947 -264.012756 
L 345.546818 -263.659545 
L 340.747688 -264.404512 
L 335.948559 -264.507362 
L 331.14943 -265.140502 
L 326.350301 -264.984852 
L 321.551171 -264.940963 
L 316.752042 -263.473287 
L 311.952913 -264.061319 
L 307.153783 -264.758268 
L 302.354654 -263.54513 
L 297.555525 -263.750848 
L 292.756396 -263.391895 
L 287.957266 -262.41773 
L 283.158137 -261.545346 
L 278.359008 -261.712875 
L 273.559878 -261.722978 
L 268.760749 -261.693384 
L 263.96162 -261.839067 
L 259.16249 -261.883407 
L 254.363361 -262.076431 
L 249.564232 -261.547841 
L 244.765103 -260.717345 
L 239.965973 -260.94805 
L 235.166844 -261.026994 
L 230.367715 -261.324332 
L 225.568585 -261.386641 
L 220.769456 -261.31217 
L 215.970327 -262.443396 
L 211.171198 -262.871707 
L 206.372068 -262.868241 
L 201.572939 -263.777287 
L 196.77381 -263.900198 
L 191.97468 -264.219849 
L 187.175551 -263.783221 
L 182.376422 -263.656302 
L 177.577292 -264.055838 
L 172.778163 -265.649462 
L 167.979034 -265.640388 
L 163.179905 -265.904308 
L 158.380775 -266.646609 
L 153.581646 -266.374296 
L 148.782517 -266.358214 
L 143.983387 -267.076075 
L 139.184258 -267.359426 
L 134.385129 -267.530361 
L 129.586 -268.487703 
L 124.78687 -269.174751 
L 119.987741 -269.500929 
L 115.188612 -268.873924 
L 110.389482 -269.055458 
L 105.590353 -269.446332 
L 100.791224 -269.259724 
L 95.992095 -269.626243 
L 91.192965 -269.855937 
L 86.393836 -270.480799 
L 81.594707 -271.567858 
L 76.795577 -272.48286 
L 71.996448 -273.160606 
L 67.197319 -274.461376 
z
" style="stroke: #8c564b; stroke-opacity: 0.2"/>
    </defs>
    <g clip-path="url(#p74c8118c5e)">
     <use xlink:href="#m18874bf1e6" x="0" y="492.760937" style="fill: #8c564b; fill-opacity: 0.2; stroke: #8c564b; stroke-opacity: 0.2"/>
    </g>
   </g>
   <g id="FillBetweenPolyCollection_4">
    <defs>
     <path id="m1845abd205" d="M 67.197319 -274.744075 
L 67.197319 -272.060568 
L 71.996448 -270.086624 
L 76.795577 -269.422873 
L 81.594707 -268.329417 
L 86.393836 -267.128243 
L 91.192965 -266.542851 
L 95.992095 -265.681772 
L 100.791224 -265.177711 
L 105.590353 -263.764921 
L 110.389482 -263.518403 
L 115.188612 -262.904008 
L 119.987741 -262.071028 
L 124.78687 -261.10368 
L 129.586 -260.761309 
L 134.385129 -260.513179 
L 139.184258 -260.273956 
L 143.983387 -260.429994 
L 148.782517 -259.742759 
L 153.581646 -259.428876 
L 158.380775 -259.086741 
L 163.179905 -258.760138 
L 167.979034 -258.108757 
L 172.778163 -258.133418 
L 177.577292 -257.46741 
L 182.376422 -256.889167 
L 187.175551 -256.053555 
L 191.97468 -256.26542 
L 196.77381 -256.844047 
L 201.572939 -256.095661 
L 206.372068 -256.119863 
L 211.171198 -255.648398 
L 215.970327 -254.869678 
L 220.769456 -254.820034 
L 225.568585 -254.075998 
L 230.367715 -253.945426 
L 235.166844 -253.117104 
L 239.965973 -252.986668 
L 244.765103 -252.660102 
L 249.564232 -252.900333 
L 254.363361 -252.044592 
L 259.16249 -251.473219 
L 263.96162 -251.565458 
L 268.760749 -250.347662 
L 273.559878 -249.981568 
L 278.359008 -249.464065 
L 283.158137 -249.722299 
L 287.957266 -248.777915 
L 292.756396 -248.253556 
L 297.555525 -247.926862 
L 302.354654 -248.848308 
L 307.153783 -249.297939 
L 311.952913 -248.241133 
L 316.752042 -248.223588 
L 321.551171 -247.700388 
L 326.350301 -247.063505 
L 331.14943 -246.004645 
L 335.948559 -245.77625 
L 340.747688 -244.767305 
L 345.546818 -244.19187 
L 350.345947 -243.247951 
L 355.145076 -241.494037 
L 359.944206 -242.374995 
L 364.743335 -241.248897 
L 369.542464 -240.824889 
L 374.341593 -239.438227 
L 379.140723 -238.111763 
L 383.939852 -237.591417 
L 388.738981 -235.311529 
L 393.538111 -233.510724 
L 398.33724 -231.257558 
L 403.136369 -232.500968 
L 407.935499 -231.566232 
L 412.734628 -230.449612 
L 417.533757 -230.196628 
L 422.332886 -227.648689 
L 427.132016 -228.715176 
L 431.931145 -225.851724 
L 436.730274 -226.029619 
L 441.529404 -225.539769 
L 446.328533 -222.346605 
L 451.127662 -219.313003 
L 455.926791 -219.121805 
L 460.725921 -215.192414 
L 465.52505 -211.919703 
L 470.324179 -211.120263 
L 475.123309 -210.335187 
L 479.922438 -208.638639 
L 484.721567 -203.578249 
L 489.520697 -206.380227 
L 494.319826 -200.464094 
L 499.118955 -197.29677 
L 503.918084 -195.774594 
L 508.717214 -188.646879 
L 513.516343 -193.49623 
L 518.315472 -187.585789 
L 523.114602 -191.058219 
L 527.913731 -165.041189 
L 532.71286 -154.167125 
L 537.511989 -168.960502 
L 542.311119 -254.759751 
L 542.311119 -264.111567 
L 542.311119 -264.111567 
L 537.511989 -289.981686 
L 532.71286 -266.391365 
L 527.913731 -268.12874 
L 523.114602 -244.365806 
L 518.315472 -245.233564 
L 513.516343 -241.40541 
L 508.717214 -248.475227 
L 503.918084 -246.473533 
L 499.118955 -246.586334 
L 494.319826 -249.780932 
L 489.520697 -251.99155 
L 484.721567 -257.596255 
L 479.922438 -252.752424 
L 475.123309 -253.634975 
L 470.324179 -254.612832 
L 465.52505 -256.104977 
L 460.725921 -255.34488 
L 455.926791 -254.598853 
L 451.127662 -254.343481 
L 446.328533 -255.107388 
L 441.529404 -255.695918 
L 436.730274 -257.571433 
L 431.931145 -257.531172 
L 427.132016 -258.206473 
L 422.332886 -259.083158 
L 417.533757 -259.468409 
L 412.734628 -258.529816 
L 407.935499 -259.010951 
L 403.136369 -259.589432 
L 398.33724 -260.368936 
L 393.538111 -260.952286 
L 388.738981 -259.840823 
L 383.939852 -258.89719 
L 379.140723 -259.655573 
L 374.341593 -258.960695 
L 369.542464 -259.34598 
L 364.743335 -260.054875 
L 359.944206 -260.678983 
L 355.145076 -261.107327 
L 350.345947 -261.090995 
L 345.546818 -261.982199 
L 340.747688 -261.954445 
L 335.948559 -261.827471 
L 331.14943 -261.746776 
L 326.350301 -262.053106 
L 321.551171 -263.38184 
L 316.752042 -263.747754 
L 311.952913 -263.548255 
L 307.153783 -263.376952 
L 302.354654 -264.367479 
L 297.555525 -264.593296 
L 292.756396 -265.16274 
L 287.957266 -265.26962 
L 283.158137 -265.478311 
L 278.359008 -266.319265 
L 273.559878 -266.970568 
L 268.760749 -267.426434 
L 263.96162 -266.545098 
L 259.16249 -267.099749 
L 254.363361 -266.484421 
L 249.564232 -266.467764 
L 244.765103 -267.133658 
L 239.965973 -267.059947 
L 235.166844 -267.397483 
L 230.367715 -267.576766 
L 225.568585 -267.9224 
L 220.769456 -268.318486 
L 215.970327 -268.454861 
L 211.171198 -268.524806 
L 206.372068 -268.585944 
L 201.572939 -268.624815 
L 196.77381 -267.953832 
L 191.97468 -268.429729 
L 187.175551 -268.506442 
L 182.376422 -268.492563 
L 177.577292 -268.526504 
L 172.778163 -268.199397 
L 167.979034 -268.521001 
L 163.179905 -268.484361 
L 158.380775 -268.883234 
L 153.581646 -269.220862 
L 148.782517 -269.252847 
L 143.983387 -269.314963 
L 139.184258 -269.80739 
L 134.385129 -270.103528 
L 129.586 -270.730371 
L 124.78687 -271.235533 
L 119.987741 -271.555658 
L 115.188612 -271.373986 
L 110.389482 -271.382006 
L 105.590353 -272.026924 
L 100.791224 -271.727228 
L 95.992095 -271.79724 
L 91.192965 -271.979777 
L 86.393836 -272.570407 
L 81.594707 -272.767907 
L 76.795577 -273.292491 
L 71.996448 -274.169339 
L 67.197319 -274.744075 
z
" style="stroke: #7f7f7f; stroke-opacity: 0.2"/>
    </defs>
    <g clip-path="url(#p74c8118c5e)">
     <use xlink:href="#m1845abd205" x="0" y="492.760937" style="fill: #7f7f7f; fill-opacity: 0.2; stroke: #7f7f7f; stroke-opacity: 0.2"/>
    </g>
   </g>
   <g id="FillBetweenPolyCollection_5">
    <defs>
     <path id="mf5e01822ad" d="M 67.197319 -274.469524 
L 67.197319 -270.286431 
L 71.996448 -265.387848 
L 76.795577 -260.65212 
L 81.594707 -256.296898 
L 86.393836 -253.084738 
L 91.192965 -251.252292 
L 95.992095 -251.347278 
L 100.791224 -253.41806 
L 105.590353 -254.628558 
L 110.389482 -255.912369 
L 115.188612 -256.996785 
L 119.987741 -257.973133 
L 124.78687 -257.996249 
L 129.586 -257.219511 
L 134.385129 -257.578497 
L 139.184258 -257.579897 
L 143.983387 -257.399877 
L 148.782517 -257.070155 
L 153.581646 -257.197584 
L 158.380775 -256.857745 
L 163.179905 -256.808884 
L 167.979034 -256.881134 
L 172.778163 -256.757061 
L 177.577292 -256.432691 
L 182.376422 -256.344419 
L 187.175551 -256.822449 
L 191.97468 -256.685796 
L 196.77381 -255.720251 
L 201.572939 -255.356164 
L 206.372068 -255.663311 
L 211.171198 -255.450844 
L 215.970327 -254.288935 
L 220.769456 -254.144778 
L 225.568585 -253.568078 
L 230.367715 -254.147196 
L 235.166844 -255.85361 
L 239.965973 -255.261388 
L 244.765103 -256.344726 
L 249.564232 -255.395419 
L 254.363361 -254.835852 
L 259.16249 -254.554838 
L 263.96162 -254.758614 
L 268.760749 -254.420441 
L 273.559878 -254.444811 
L 278.359008 -254.731348 
L 283.158137 -255.069975 
L 287.957266 -255.208212 
L 292.756396 -253.871055 
L 297.555525 -252.042159 
L 302.354654 -251.846461 
L 307.153783 -250.849423 
L 311.952913 -250.887853 
L 316.752042 -250.076108 
L 321.551171 -250.075243 
L 326.350301 -249.602808 
L 331.14943 -249.48226 
L 335.948559 -249.114805 
L 340.747688 -248.009571 
L 345.546818 -248.598654 
L 350.345947 -248.05906 
L 355.145076 -247.362467 
L 359.944206 -246.305941 
L 364.743335 -245.370894 
L 369.542464 -245.682166 
L 374.341593 -244.556747 
L 379.140723 -244.264497 
L 383.939852 -241.462299 
L 388.738981 -240.505145 
L 393.538111 -239.749605 
L 398.33724 -238.583998 
L 403.136369 -238.097978 
L 407.935499 -238.242818 
L 412.734628 -236.69211 
L 417.533757 -234.743079 
L 422.332886 -238.288958 
L 427.132016 -236.636117 
L 431.931145 -236.138032 
L 436.730274 -235.690278 
L 441.529404 -233.544735 
L 446.328533 -231.059041 
L 451.127662 -228.711109 
L 455.926791 -225.547865 
L 460.725921 -226.017044 
L 465.52505 -225.761458 
L 470.324179 -232.988322 
L 475.123309 -231.027611 
L 479.922438 -228.841686 
L 484.721567 -225.350066 
L 489.520697 -226.888701 
L 494.319826 -228.726802 
L 499.118955 -232.628529 
L 503.918084 -228.134023 
L 508.717214 -233.5579 
L 513.516343 -229.393521 
L 518.315472 -234.096397 
L 523.114602 -230.742225 
L 527.913731 -242.218794 
L 532.71286 -232.918075 
L 537.511989 -254.759767 
L 542.311119 -255.198931 
L 542.311119 -258.733586 
L 542.311119 -258.733586 
L 537.511989 -259.502003 
L 532.71286 -272.269695 
L 527.913731 -268.358354 
L 523.114602 -276.168678 
L 518.315472 -273.769808 
L 513.516343 -277.084066 
L 508.717214 -267.97204 
L 503.918084 -270.753516 
L 499.118955 -270.526226 
L 494.319826 -272.117359 
L 489.520697 -268.027125 
L 484.721567 -266.193221 
L 479.922438 -264.746665 
L 475.123309 -263.850289 
L 470.324179 -258.514044 
L 465.52505 -261.07787 
L 460.725921 -263.99097 
L 455.926791 -264.003995 
L 451.127662 -263.622822 
L 446.328533 -262.961082 
L 441.529404 -261.215527 
L 436.730274 -262.422016 
L 431.931145 -261.302711 
L 427.132016 -259.962841 
L 422.332886 -260.457473 
L 417.533757 -263.041593 
L 412.734628 -262.915186 
L 407.935499 -263.288323 
L 403.136369 -264.449716 
L 398.33724 -264.192582 
L 393.538111 -263.992535 
L 388.738981 -264.164003 
L 383.939852 -264.098706 
L 379.140723 -262.193939 
L 374.341593 -262.228014 
L 369.542464 -262.5501 
L 364.743335 -263.141096 
L 359.944206 -262.834445 
L 355.145076 -262.095025 
L 350.345947 -259.805003 
L 345.546818 -259.558613 
L 340.747688 -260.159254 
L 335.948559 -259.962961 
L 331.14943 -260.478689 
L 326.350301 -261.5465 
L 321.551171 -261.532346 
L 316.752042 -261.998104 
L 311.952913 -262.339473 
L 307.153783 -262.846147 
L 302.354654 -262.647611 
L 297.555525 -262.611848 
L 292.756396 -262.291132 
L 287.957266 -262.077054 
L 283.158137 -263.704601 
L 278.359008 -264.285791 
L 273.559878 -264.586861 
L 268.760749 -263.694202 
L 263.96162 -263.496955 
L 259.16249 -262.980822 
L 254.363361 -262.089848 
L 249.564232 -261.853471 
L 244.765103 -261.190917 
L 239.965973 -262.104434 
L 235.166844 -262.330415 
L 230.367715 -263.782423 
L 225.568585 -264.227789 
L 220.769456 -264.717401 
L 215.970327 -265.312748 
L 211.171198 -264.605757 
L 206.372068 -264.793571 
L 201.572939 -264.844998 
L 196.77381 -264.836678 
L 191.97468 -264.399732 
L 187.175551 -264.931168 
L 182.376422 -265.81267 
L 177.577292 -265.296111 
L 172.778163 -265.373628 
L 167.979034 -265.54117 
L 163.179905 -265.73713 
L 158.380775 -265.768198 
L 153.581646 -266.100773 
L 148.782517 -266.987258 
L 143.983387 -266.845794 
L 139.184258 -267.446337 
L 134.385129 -267.742734 
L 129.586 -268.359509 
L 124.78687 -268.081423 
L 119.987741 -268.477241 
L 115.188612 -269.638096 
L 110.389482 -270.905883 
L 105.590353 -272.300394 
L 100.791224 -273.037825 
L 95.992095 -274.290191 
L 91.192965 -275.112431 
L 86.393836 -275.196039 
L 81.594707 -274.542557 
L 76.795577 -273.789232 
L 71.996448 -273.475255 
L 67.197319 -274.469524 
z
" style="stroke: #17becf; stroke-opacity: 0.2"/>
    </defs>
    <g clip-path="url(#p74c8118c5e)">
     <use xlink:href="#mf5e01822ad" x="0" y="492.760937" style="fill: #17becf; fill-opacity: 0.2; stroke: #17becf; stroke-opacity: 0.2"/>
    </g>
   </g>
   <g id="matplotlib.axis_1">
    <g id="xtick_1">
     <g id="line2d_1">
      <path d="M 62.349219 449.397812 
L 62.349219 23.837812 
" clip-path="url(#p74c8118c5e)" style="fill: none; stroke: #b0b0b0; stroke-opacity: 0.3; stroke-width: 0.8; stroke-linecap: square"/>
     </g>
     <g id="line2d_2">
      <defs>
       <path id="mcc0003774a" d="M 0 0 
L 0 3.5 
" style="stroke: #000000; stroke-width: 0.8"/>
      </defs>
      <g>
       <use xlink:href="#mcc0003774a" x="62.349219" y="449.397812" style="stroke: #000000; stroke-width: 0.8"/>
      </g>
     </g>
     <g id="text_1">
      <!-- 0.0 -->
      <g transform="translate(52.012188 466.275781) scale(0.13 -0.13)">
       <defs>
        <path id="DejaVuSans-30" d="M 2034 4250 
Q 1547 4250 1301 3770 
Q 1056 3291 1056 2328 
Q 1056 1369 1301 889 
Q 1547 409 2034 409 
Q 2525 409 2770 889 
Q 3016 1369 3016 2328 
Q 3016 3291 2770 3770 
Q 2525 4250 2034 4250 
z
M 2034 4750 
Q 2819 4750 3233 4129 
Q 3647 3509 3647 2328 
Q 3647 1150 3233 529 
Q 2819 -91 2034 -91 
Q 1250 -91 836 529 
Q 422 1150 422 2328 
Q 422 3509 836 4129 
Q 1250 4750 2034 4750 
z
" transform="scale(0.015625)"/>
        <path id="DejaVuSans-2e" d="M 684 794 
L 1344 794 
L 1344 0 
L 684 0 
L 684 794 
z
" transform="scale(0.015625)"/>
       </defs>
       <use xlink:href="#DejaVuSans-30"/>
       <use xlink:href="#DejaVuSans-2e" transform="translate(63.623047 0)"/>
       <use xlink:href="#DejaVuSans-30" transform="translate(95.410156 0)"/>
      </g>
     </g>
    </g>
    <g id="xtick_2">
     <g id="line2d_3">
      <path d="M 159.311219 449.397812 
L 159.311219 23.837812 
" clip-path="url(#p74c8118c5e)" style="fill: none; stroke: #b0b0b0; stroke-opacity: 0.3; stroke-width: 0.8; stroke-linecap: square"/>
     </g>
     <g id="line2d_4">
      <g>
       <use xlink:href="#mcc0003774a" x="159.311219" y="449.397812" style="stroke: #000000; stroke-width: 0.8"/>
      </g>
     </g>
     <g id="text_2">
      <!-- 0.2 -->
      <g transform="translate(148.974188 466.275781) scale(0.13 -0.13)">
       <defs>
        <path id="DejaVuSans-32" d="M 1228 531 
L 3431 531 
L 3431 0 
L 469 0 
L 469 531 
Q 828 903 1448 1529 
Q 2069 2156 2228 2338 
Q 2531 2678 2651 2914 
Q 2772 3150 2772 3378 
Q 2772 3750 2511 3984 
Q 2250 4219 1831 4219 
Q 1534 4219 1204 4116 
Q 875 4013 500 3803 
L 500 4441 
Q 881 4594 1212 4672 
Q 1544 4750 1819 4750 
Q 2544 4750 2975 4387 
Q 3406 4025 3406 3419 
Q 3406 3131 3298 2873 
Q 3191 2616 2906 2266 
Q 2828 2175 2409 1742 
Q 1991 1309 1228 531 
z
" transform="scale(0.015625)"/>
       </defs>
       <use xlink:href="#DejaVuSans-30"/>
       <use xlink:href="#DejaVuSans-2e" transform="translate(63.623047 0)"/>
       <use xlink:href="#DejaVuSans-32" transform="translate(95.410156 0)"/>
      </g>
     </g>
    </g>
    <g id="xtick_3">
     <g id="line2d_5">
      <path d="M 256.273219 449.397812 
L 256.273219 23.837812 
" clip-path="url(#p74c8118c5e)" style="fill: none; stroke: #b0b0b0; stroke-opacity: 0.3; stroke-width: 0.8; stroke-linecap: square"/>
     </g>
     <g id="line2d_6">
      <g>
       <use xlink:href="#mcc0003774a" x="256.273219" y="449.397812" style="stroke: #000000; stroke-width: 0.8"/>
      </g>
     </g>
     <g id="text_3">
      <!-- 0.4 -->
      <g transform="translate(245.936188 466.275781) scale(0.13 -0.13)">
       <defs>
        <path id="DejaVuSans-34" d="M 2419 4116 
L 825 1625 
L 2419 1625 
L 2419 4116 
z
M 2253 4666 
L 3047 4666 
L 3047 1625 
L 3713 1625 
L 3713 1100 
L 3047 1100 
L 3047 0 
L 2419 0 
L 2419 1100 
L 313 1100 
L 313 1709 
L 2253 4666 
z
" transform="scale(0.015625)"/>
       </defs>
       <use xlink:href="#DejaVuSans-30"/>
       <use xlink:href="#DejaVuSans-2e" transform="translate(63.623047 0)"/>
       <use xlink:href="#DejaVuSans-34" transform="translate(95.410156 0)"/>
      </g>
     </g>
    </g>
    <g id="xtick_4">
     <g id="line2d_7">
      <path d="M 353.235219 449.397812 
L 353.235219 23.837812 
" clip-path="url(#p74c8118c5e)" style="fill: none; stroke: #b0b0b0; stroke-opacity: 0.3; stroke-width: 0.8; stroke-linecap: square"/>
     </g>
     <g id="line2d_8">
      <g>
       <use xlink:href="#mcc0003774a" x="353.235219" y="449.397812" style="stroke: #000000; stroke-width: 0.8"/>
      </g>
     </g>
     <g id="text_4">
      <!-- 0.6 -->
      <g transform="translate(342.898188 466.275781) scale(0.13 -0.13)">
       <defs>
        <path id="DejaVuSans-36" d="M 2113 2584 
Q 1688 2584 1439 2293 
Q 1191 2003 1191 1497 
Q 1191 994 1439 701 
Q 1688 409 2113 409 
Q 2538 409 2786 701 
Q 3034 994 3034 1497 
Q 3034 2003 2786 2293 
Q 2538 2584 2113 2584 
z
M 3366 4563 
L 3366 3988 
Q 3128 4100 2886 4159 
Q 2644 4219 2406 4219 
Q 1781 4219 1451 3797 
Q 1122 3375 1075 2522 
Q 1259 2794 1537 2939 
Q 1816 3084 2150 3084 
Q 2853 3084 3261 2657 
Q 3669 2231 3669 1497 
Q 3669 778 3244 343 
Q 2819 -91 2113 -91 
Q 1303 -91 875 529 
Q 447 1150 447 2328 
Q 447 3434 972 4092 
Q 1497 4750 2381 4750 
Q 2619 4750 2861 4703 
Q 3103 4656 3366 4563 
z
" transform="scale(0.015625)"/>
       </defs>
       <use xlink:href="#DejaVuSans-30"/>
       <use xlink:href="#DejaVuSans-2e" transform="translate(63.623047 0)"/>
       <use xlink:href="#DejaVuSans-36" transform="translate(95.410156 0)"/>
      </g>
     </g>
    </g>
    <g id="xtick_5">
     <g id="line2d_9">
      <path d="M 450.197219 449.397812 
L 450.197219 23.837812 
" clip-path="url(#p74c8118c5e)" style="fill: none; stroke: #b0b0b0; stroke-opacity: 0.3; stroke-width: 0.8; stroke-linecap: square"/>
     </g>
     <g id="line2d_10">
      <g>
       <use xlink:href="#mcc0003774a" x="450.197219" y="449.397812" style="stroke: #000000; stroke-width: 0.8"/>
      </g>
     </g>
     <g id="text_5">
      <!-- 0.8 -->
      <g transform="translate(439.860188 466.275781) scale(0.13 -0.13)">
       <defs>
        <path id="DejaVuSans-38" d="M 2034 2216 
Q 1584 2216 1326 1975 
Q 1069 1734 1069 1313 
Q 1069 891 1326 650 
Q 1584 409 2034 409 
Q 2484 409 2743 651 
Q 3003 894 3003 1313 
Q 3003 1734 2745 1975 
Q 2488 2216 2034 2216 
z
M 1403 2484 
Q 997 2584 770 2862 
Q 544 3141 544 3541 
Q 544 4100 942 4425 
Q 1341 4750 2034 4750 
Q 2731 4750 3128 4425 
Q 3525 4100 3525 3541 
Q 3525 3141 3298 2862 
Q 3072 2584 2669 2484 
Q 3125 2378 3379 2068 
Q 3634 1759 3634 1313 
Q 3634 634 3220 271 
Q 2806 -91 2034 -91 
Q 1263 -91 848 271 
Q 434 634 434 1313 
Q 434 1759 690 2068 
Q 947 2378 1403 2484 
z
M 1172 3481 
Q 1172 3119 1398 2916 
Q 1625 2713 2034 2713 
Q 2441 2713 2670 2916 
Q 2900 3119 2900 3481 
Q 2900 3844 2670 4047 
Q 2441 4250 2034 4250 
Q 1625 4250 1398 4047 
Q 1172 3844 1172 3481 
z
" transform="scale(0.015625)"/>
       </defs>
       <use xlink:href="#DejaVuSans-30"/>
       <use xlink:href="#DejaVuSans-2e" transform="translate(63.623047 0)"/>
       <use xlink:href="#DejaVuSans-38" transform="translate(95.410156 0)"/>
      </g>
     </g>
    </g>
    <g id="xtick_6">
     <g id="line2d_11">
      <path d="M 547.159219 449.397812 
L 547.159219 23.837812 
" clip-path="url(#p74c8118c5e)" style="fill: none; stroke: #b0b0b0; stroke-opacity: 0.3; stroke-width: 0.8; stroke-linecap: square"/>
     </g>
     <g id="line2d_12">
      <g>
       <use xlink:href="#mcc0003774a" x="547.159219" y="449.397812" style="stroke: #000000; stroke-width: 0.8"/>
      </g>
     </g>
     <g id="text_6">
      <!-- 1.0 -->
      <g transform="translate(536.822188 466.275781) scale(0.13 -0.13)">
       <defs>
        <path id="DejaVuSans-31" d="M 794 531 
L 1825 531 
L 1825 4091 
L 703 3866 
L 703 4441 
L 1819 4666 
L 2450 4666 
L 2450 531 
L 3481 531 
L 3481 0 
L 794 0 
L 794 531 
z
" transform="scale(0.015625)"/>
       </defs>
       <use xlink:href="#DejaVuSans-31"/>
       <use xlink:href="#DejaVuSans-2e" transform="translate(63.623047 0)"/>
       <use xlink:href="#DejaVuSans-30" transform="translate(95.410156 0)"/>
      </g>
     </g>
    </g>
    <g id="text_7">
     <!-- Threshold Probability -->
     <g transform="translate(236.301094 482.857344) scale(0.13 -0.13)">
      <defs>
       <path id="DejaVuSans-54" d="M -19 4666 
L 3928 4666 
L 3928 4134 
L 2272 4134 
L 2272 0 
L 1638 0 
L 1638 4134 
L -19 4134 
L -19 4666 
z
" transform="scale(0.015625)"/>
       <path id="DejaVuSans-68" d="M 3513 2113 
L 3513 0 
L 2938 0 
L 2938 2094 
Q 2938 2591 2744 2837 
Q 2550 3084 2163 3084 
Q 1697 3084 1428 2787 
Q 1159 2491 1159 1978 
L 1159 0 
L 581 0 
L 581 4863 
L 1159 4863 
L 1159 2956 
Q 1366 3272 1645 3428 
Q 1925 3584 2291 3584 
Q 2894 3584 3203 3211 
Q 3513 2838 3513 2113 
z
" transform="scale(0.015625)"/>
       <path id="DejaVuSans-72" d="M 2631 2963 
Q 2534 3019 2420 3045 
Q 2306 3072 2169 3072 
Q 1681 3072 1420 2755 
Q 1159 2438 1159 1844 
L 1159 0 
L 581 0 
L 581 3500 
L 1159 3500 
L 1159 2956 
Q 1341 3275 1631 3429 
Q 1922 3584 2338 3584 
Q 2397 3584 2469 3576 
Q 2541 3569 2628 3553 
L 2631 2963 
z
" transform="scale(0.015625)"/>
       <path id="DejaVuSans-65" d="M 3597 1894 
L 3597 1613 
L 953 1613 
Q 991 1019 1311 708 
Q 1631 397 2203 397 
Q 2534 397 2845 478 
Q 3156 559 3463 722 
L 3463 178 
Q 3153 47 2828 -22 
Q 2503 -91 2169 -91 
Q 1331 -91 842 396 
Q 353 884 353 1716 
Q 353 2575 817 3079 
Q 1281 3584 2069 3584 
Q 2775 3584 3186 3129 
Q 3597 2675 3597 1894 
z
M 3022 2063 
Q 3016 2534 2758 2815 
Q 2500 3097 2075 3097 
Q 1594 3097 1305 2825 
Q 1016 2553 972 2059 
L 3022 2063 
z
" transform="scale(0.015625)"/>
       <path id="DejaVuSans-73" d="M 2834 3397 
L 2834 2853 
Q 2591 2978 2328 3040 
Q 2066 3103 1784 3103 
Q 1356 3103 1142 2972 
Q 928 2841 928 2578 
Q 928 2378 1081 2264 
Q 1234 2150 1697 2047 
L 1894 2003 
Q 2506 1872 2764 1633 
Q 3022 1394 3022 966 
Q 3022 478 2636 193 
Q 2250 -91 1575 -91 
Q 1294 -91 989 -36 
Q 684 19 347 128 
L 347 722 
Q 666 556 975 473 
Q 1284 391 1588 391 
Q 1994 391 2212 530 
Q 2431 669 2431 922 
Q 2431 1156 2273 1281 
Q 2116 1406 1581 1522 
L 1381 1569 
Q 847 1681 609 1914 
Q 372 2147 372 2553 
Q 372 3047 722 3315 
Q 1072 3584 1716 3584 
Q 2034 3584 2315 3537 
Q 2597 3491 2834 3397 
z
" transform="scale(0.015625)"/>
       <path id="DejaVuSans-6f" d="M 1959 3097 
Q 1497 3097 1228 2736 
Q 959 2375 959 1747 
Q 959 1119 1226 758 
Q 1494 397 1959 397 
Q 2419 397 2687 759 
Q 2956 1122 2956 1747 
Q 2956 2369 2687 2733 
Q 2419 3097 1959 3097 
z
M 1959 3584 
Q 2709 3584 3137 3096 
Q 3566 2609 3566 1747 
Q 3566 888 3137 398 
Q 2709 -91 1959 -91 
Q 1206 -91 779 398 
Q 353 888 353 1747 
Q 353 2609 779 3096 
Q 1206 3584 1959 3584 
z
" transform="scale(0.015625)"/>
       <path id="DejaVuSans-6c" d="M 603 4863 
L 1178 4863 
L 1178 0 
L 603 0 
L 603 4863 
z
" transform="scale(0.015625)"/>
       <path id="DejaVuSans-64" d="M 2906 2969 
L 2906 4863 
L 3481 4863 
L 3481 0 
L 2906 0 
L 2906 525 
Q 2725 213 2448 61 
Q 2172 -91 1784 -91 
Q 1150 -91 751 415 
Q 353 922 353 1747 
Q 353 2572 751 3078 
Q 1150 3584 1784 3584 
Q 2172 3584 2448 3432 
Q 2725 3281 2906 2969 
z
M 947 1747 
Q 947 1113 1208 752 
Q 1469 391 1925 391 
Q 2381 391 2643 752 
Q 2906 1113 2906 1747 
Q 2906 2381 2643 2742 
Q 2381 3103 1925 3103 
Q 1469 3103 1208 2742 
Q 947 2381 947 1747 
z
" transform="scale(0.015625)"/>
       <path id="DejaVuSans-20" transform="scale(0.015625)"/>
       <path id="DejaVuSans-50" d="M 1259 4147 
L 1259 2394 
L 2053 2394 
Q 2494 2394 2734 2622 
Q 2975 2850 2975 3272 
Q 2975 3691 2734 3919 
Q 2494 4147 2053 4147 
L 1259 4147 
z
M 628 4666 
L 2053 4666 
Q 2838 4666 3239 4311 
Q 3641 3956 3641 3272 
Q 3641 2581 3239 2228 
Q 2838 1875 2053 1875 
L 1259 1875 
L 1259 0 
L 628 0 
L 628 4666 
z
" transform="scale(0.015625)"/>
       <path id="DejaVuSans-62" d="M 3116 1747 
Q 3116 2381 2855 2742 
Q 2594 3103 2138 3103 
Q 1681 3103 1420 2742 
Q 1159 2381 1159 1747 
Q 1159 1113 1420 752 
Q 1681 391 2138 391 
Q 2594 391 2855 752 
Q 3116 1113 3116 1747 
z
M 1159 2969 
Q 1341 3281 1617 3432 
Q 1894 3584 2278 3584 
Q 2916 3584 3314 3078 
Q 3713 2572 3713 1747 
Q 3713 922 3314 415 
Q 2916 -91 2278 -91 
Q 1894 -91 1617 61 
Q 1341 213 1159 525 
L 1159 0 
L 581 0 
L 581 4863 
L 1159 4863 
L 1159 2969 
z
" transform="scale(0.015625)"/>
       <path id="DejaVuSans-61" d="M 2194 1759 
Q 1497 1759 1228 1600 
Q 959 1441 959 1056 
Q 959 750 1161 570 
Q 1363 391 1709 391 
Q 2188 391 2477 730 
Q 2766 1069 2766 1631 
L 2766 1759 
L 2194 1759 
z
M 3341 1997 
L 3341 0 
L 2766 0 
L 2766 531 
Q 2569 213 2275 61 
Q 1981 -91 1556 -91 
Q 1019 -91 701 211 
Q 384 513 384 1019 
Q 384 1609 779 1909 
Q 1175 2209 1959 2209 
L 2766 2209 
L 2766 2266 
Q 2766 2663 2505 2880 
Q 2244 3097 1772 3097 
Q 1472 3097 1187 3025 
Q 903 2953 641 2809 
L 641 3341 
Q 956 3463 1253 3523 
Q 1550 3584 1831 3584 
Q 2591 3584 2966 3190 
Q 3341 2797 3341 1997 
z
" transform="scale(0.015625)"/>
       <path id="DejaVuSans-69" d="M 603 3500 
L 1178 3500 
L 1178 0 
L 603 0 
L 603 3500 
z
M 603 4863 
L 1178 4863 
L 1178 4134 
L 603 4134 
L 603 4863 
z
" transform="scale(0.015625)"/>
       <path id="DejaVuSans-74" d="M 1172 4494 
L 1172 3500 
L 2356 3500 
L 2356 3053 
L 1172 3053 
L 1172 1153 
Q 1172 725 1289 603 
Q 1406 481 1766 481 
L 2356 481 
L 2356 0 
L 1766 0 
Q 1100 0 847 248 
Q 594 497 594 1153 
L 594 3053 
L 172 3053 
L 172 3500 
L 594 3500 
L 594 4494 
L 1172 4494 
z
" transform="scale(0.015625)"/>
       <path id="DejaVuSans-79" d="M 2059 -325 
Q 1816 -950 1584 -1140 
Q 1353 -1331 966 -1331 
L 506 -1331 
L 506 -850 
L 844 -850 
Q 1081 -850 1212 -737 
Q 1344 -625 1503 -206 
L 1606 56 
L 191 3500 
L 800 3500 
L 1894 763 
L 2988 3500 
L 3597 3500 
L 2059 -325 
z
" transform="scale(0.015625)"/>
      </defs>
      <use xlink:href="#DejaVuSans-54"/>
      <use xlink:href="#DejaVuSans-68" transform="translate(61.083984 0)"/>
      <use xlink:href="#DejaVuSans-72" transform="translate(124.462891 0)"/>
      <use xlink:href="#DejaVuSans-65" transform="translate(163.326172 0)"/>
      <use xlink:href="#DejaVuSans-73" transform="translate(224.849609 0)"/>
      <use xlink:href="#DejaVuSans-68" transform="translate(276.949219 0)"/>
      <use xlink:href="#DejaVuSans-6f" transform="translate(340.328125 0)"/>
      <use xlink:href="#DejaVuSans-6c" transform="translate(401.509766 0)"/>
      <use xlink:href="#DejaVuSans-64" transform="translate(429.292969 0)"/>
      <use xlink:href="#DejaVuSans-20" transform="translate(492.769531 0)"/>
      <use xlink:href="#DejaVuSans-50" transform="translate(524.556641 0)"/>
      <use xlink:href="#DejaVuSans-72" transform="translate(583.109375 0)"/>
      <use xlink:href="#DejaVuSans-6f" transform="translate(621.972656 0)"/>
      <use xlink:href="#DejaVuSans-62" transform="translate(683.154297 0)"/>
      <use xlink:href="#DejaVuSans-61" transform="translate(746.630859 0)"/>
      <use xlink:href="#DejaVuSans-62" transform="translate(807.910156 0)"/>
      <use xlink:href="#DejaVuSans-69" transform="translate(871.386719 0)"/>
      <use xlink:href="#DejaVuSans-6c" transform="translate(899.169922 0)"/>
      <use xlink:href="#DejaVuSans-69" transform="translate(926.953125 0)"/>
      <use xlink:href="#DejaVuSans-74" transform="translate(954.736328 0)"/>
      <use xlink:href="#DejaVuSans-79" transform="translate(993.945312 0)"/>
     </g>
    </g>
   </g>
   <g id="matplotlib.axis_2">
    <g id="ytick_1">
     <g id="line2d_13">
      <path d="M 62.349219 406.841813 
L 547.159219 406.841813 
" clip-path="url(#p74c8118c5e)" style="fill: none; stroke: #b0b0b0; stroke-opacity: 0.3; stroke-width: 0.8; stroke-linecap: square"/>
     </g>
     <g id="line2d_14">
      <defs>
       <path id="mc70c57ce2f" d="M 0 0 
L -3.5 0 
" style="stroke: #000000; stroke-width: 0.8"/>
      </defs>
      <g>
       <use xlink:href="#mc70c57ce2f" x="62.349219" y="406.841813" style="stroke: #000000; stroke-width: 0.8"/>
      </g>
     </g>
     <g id="text_8">
      <!-- −0.4 -->
      <g transform="translate(23.781563 411.780797) scale(0.13 -0.13)">
       <defs>
        <path id="DejaVuSans-2212" d="M 678 2272 
L 4684 2272 
L 4684 1741 
L 678 1741 
L 678 2272 
z
" transform="scale(0.015625)"/>
       </defs>
       <use xlink:href="#DejaVuSans-2212"/>
       <use xlink:href="#DejaVuSans-30" transform="translate(83.789062 0)"/>
       <use xlink:href="#DejaVuSans-2e" transform="translate(147.412109 0)"/>
       <use xlink:href="#DejaVuSans-34" transform="translate(179.199219 0)"/>
      </g>
     </g>
    </g>
    <g id="ytick_2">
     <g id="line2d_15">
      <path d="M 62.349219 321.729812 
L 547.159219 321.729812 
" clip-path="url(#p74c8118c5e)" style="fill: none; stroke: #b0b0b0; stroke-opacity: 0.3; stroke-width: 0.8; stroke-linecap: square"/>
     </g>
     <g id="line2d_16">
      <g>
       <use xlink:href="#mc70c57ce2f" x="62.349219" y="321.729812" style="stroke: #000000; stroke-width: 0.8"/>
      </g>
     </g>
     <g id="text_9">
      <!-- −0.2 -->
      <g transform="translate(23.781563 326.668797) scale(0.13 -0.13)">
       <use xlink:href="#DejaVuSans-2212"/>
       <use xlink:href="#DejaVuSans-30" transform="translate(83.789062 0)"/>
       <use xlink:href="#DejaVuSans-2e" transform="translate(147.412109 0)"/>
       <use xlink:href="#DejaVuSans-32" transform="translate(179.199219 0)"/>
      </g>
     </g>
    </g>
    <g id="ytick_3">
     <g id="line2d_17">
      <path d="M 62.349219 236.617812 
L 547.159219 236.617812 
" clip-path="url(#p74c8118c5e)" style="fill: none; stroke: #b0b0b0; stroke-opacity: 0.3; stroke-width: 0.8; stroke-linecap: square"/>
     </g>
     <g id="line2d_18">
      <g>
       <use xlink:href="#mc70c57ce2f" x="62.349219" y="236.617812" style="stroke: #000000; stroke-width: 0.8"/>
      </g>
     </g>
     <g id="text_10">
      <!-- 0.0 -->
      <g transform="translate(34.675156 241.556797) scale(0.13 -0.13)">
       <use xlink:href="#DejaVuSans-30"/>
       <use xlink:href="#DejaVuSans-2e" transform="translate(63.623047 0)"/>
       <use xlink:href="#DejaVuSans-30" transform="translate(95.410156 0)"/>
      </g>
     </g>
    </g>
    <g id="ytick_4">
     <g id="line2d_19">
      <path d="M 62.349219 151.505812 
L 547.159219 151.505812 
" clip-path="url(#p74c8118c5e)" style="fill: none; stroke: #b0b0b0; stroke-opacity: 0.3; stroke-width: 0.8; stroke-linecap: square"/>
     </g>
     <g id="line2d_20">
      <g>
       <use xlink:href="#mc70c57ce2f" x="62.349219" y="151.505812" style="stroke: #000000; stroke-width: 0.8"/>
      </g>
     </g>
     <g id="text_11">
      <!-- 0.2 -->
      <g transform="translate(34.675156 156.444797) scale(0.13 -0.13)">
       <use xlink:href="#DejaVuSans-30"/>
       <use xlink:href="#DejaVuSans-2e" transform="translate(63.623047 0)"/>
       <use xlink:href="#DejaVuSans-32" transform="translate(95.410156 0)"/>
      </g>
     </g>
    </g>
    <g id="ytick_5">
     <g id="line2d_21">
      <path d="M 62.349219 66.393812 
L 547.159219 66.393812 
" clip-path="url(#p74c8118c5e)" style="fill: none; stroke: #b0b0b0; stroke-opacity: 0.3; stroke-width: 0.8; stroke-linecap: square"/>
     </g>
     <g id="line2d_22">
      <g>
       <use xlink:href="#mc70c57ce2f" x="62.349219" y="66.393812" style="stroke: #000000; stroke-width: 0.8"/>
      </g>
     </g>
     <g id="text_12">
      <!-- 0.4 -->
      <g transform="translate(34.675156 71.332797) scale(0.13 -0.13)">
       <use xlink:href="#DejaVuSans-30"/>
       <use xlink:href="#DejaVuSans-2e" transform="translate(63.623047 0)"/>
       <use xlink:href="#DejaVuSans-34" transform="translate(95.410156 0)"/>
      </g>
     </g>
    </g>
    <g id="text_13">
     <!-- Net Benefit -->
     <g transform="translate(17.077969 273.314375) rotate(-90) scale(0.13 -0.13)">
      <defs>
       <path id="DejaVuSans-4e" d="M 628 4666 
L 1478 4666 
L 3547 763 
L 3547 4666 
L 4159 4666 
L 4159 0 
L 3309 0 
L 1241 3903 
L 1241 0 
L 628 0 
L 628 4666 
z
" transform="scale(0.015625)"/>
       <path id="DejaVuSans-42" d="M 1259 2228 
L 1259 519 
L 2272 519 
Q 2781 519 3026 730 
Q 3272 941 3272 1375 
Q 3272 1813 3026 2020 
Q 2781 2228 2272 2228 
L 1259 2228 
z
M 1259 4147 
L 1259 2741 
L 2194 2741 
Q 2656 2741 2882 2914 
Q 3109 3088 3109 3444 
Q 3109 3797 2882 3972 
Q 2656 4147 2194 4147 
L 1259 4147 
z
M 628 4666 
L 2241 4666 
Q 2963 4666 3353 4366 
Q 3744 4066 3744 3513 
Q 3744 3084 3544 2831 
Q 3344 2578 2956 2516 
Q 3422 2416 3680 2098 
Q 3938 1781 3938 1306 
Q 3938 681 3513 340 
Q 3088 0 2303 0 
L 628 0 
L 628 4666 
z
" transform="scale(0.015625)"/>
       <path id="DejaVuSans-6e" d="M 3513 2113 
L 3513 0 
L 2938 0 
L 2938 2094 
Q 2938 2591 2744 2837 
Q 2550 3084 2163 3084 
Q 1697 3084 1428 2787 
Q 1159 2491 1159 1978 
L 1159 0 
L 581 0 
L 581 3500 
L 1159 3500 
L 1159 2956 
Q 1366 3272 1645 3428 
Q 1925 3584 2291 3584 
Q 2894 3584 3203 3211 
Q 3513 2838 3513 2113 
z
" transform="scale(0.015625)"/>
       <path id="DejaVuSans-66" d="M 2375 4863 
L 2375 4384 
L 1825 4384 
Q 1516 4384 1395 4259 
Q 1275 4134 1275 3809 
L 1275 3500 
L 2222 3500 
L 2222 3053 
L 1275 3053 
L 1275 0 
L 697 0 
L 697 3053 
L 147 3053 
L 147 3500 
L 697 3500 
L 697 3744 
Q 697 4328 969 4595 
Q 1241 4863 1831 4863 
L 2375 4863 
z
" transform="scale(0.015625)"/>
      </defs>
      <use xlink:href="#DejaVuSans-4e"/>
      <use xlink:href="#DejaVuSans-65" transform="translate(74.804688 0)"/>
      <use xlink:href="#DejaVuSans-74" transform="translate(136.328125 0)"/>
      <use xlink:href="#DejaVuSans-20" transform="translate(175.537109 0)"/>
      <use xlink:href="#DejaVuSans-42" transform="translate(207.324219 0)"/>
      <use xlink:href="#DejaVuSans-65" transform="translate(275.927734 0)"/>
      <use xlink:href="#DejaVuSans-6e" transform="translate(337.451172 0)"/>
      <use xlink:href="#DejaVuSans-65" transform="translate(400.830078 0)"/>
      <use xlink:href="#DejaVuSans-66" transform="translate(462.353516 0)"/>
      <use xlink:href="#DejaVuSans-69" transform="translate(497.558594 0)"/>
      <use xlink:href="#DejaVuSans-74" transform="translate(525.341797 0)"/>
     </g>
    </g>
   </g>
   <g id="line2d_23">
    <path d="M 67.197319 220.293164 
L 71.996448 220.765109 
L 76.795577 221.246684 
L 81.594707 221.738188 
L 86.393836 222.239931 
L 91.192965 222.752235 
L 95.992095 223.250886 
L 100.791224 223.739002 
L 105.590353 224.178629 
L 110.389482 224.696747 
L 115.188612 225.242856 
L 119.987741 225.801237 
L 124.78687 226.34797 
L 129.586 226.903486 
L 134.385129 227.496822 
L 139.184258 228.011103 
L 143.983387 227.459205 
L 148.782517 227.933881 
L 153.581646 228.488425 
L 158.380775 229.056659 
L 163.179905 229.595868 
L 167.979034 230.190419 
L 172.778163 230.654536 
L 177.577292 230.861244 
L 182.376422 231.149196 
L 187.175551 231.908069 
L 191.97468 232.275871 
L 196.77381 232.825186 
L 201.572939 233.451507 
L 206.372068 234.095469 
L 211.171198 234.684907 
L 215.970327 235.363018 
L 220.769456 235.981165 
L 225.568585 235.605234 
L 230.367715 235.579715 
L 235.166844 236.242409 
L 239.965973 236.925808 
L 244.765103 237.6309 
L 249.564232 238.358732 
L 254.363361 239.110424 
L 259.16249 239.774664 
L 263.96162 240.573038 
L 268.760749 241.276878 
L 273.559878 241.872548 
L 278.359008 242.477731 
L 283.158137 243.368331 
L 287.957266 244.00533 
L 292.756396 244.983193 
L 297.555525 245.178691 
L 302.354654 245.51098 
L 307.153783 243.476071 
L 311.952913 244.029098 
L 316.752042 244.591448 
L 321.551171 245.328341 
L 326.350301 246.107999 
L 331.14943 246.710127 
L 335.948559 247.53791 
L 340.747688 248.618571 
L 345.546818 249.75068 
L 350.345947 250.697102 
L 355.145076 251.933637 
L 359.944206 253.398194 
L 364.743335 254.766524 
L 369.542464 255.639344 
L 374.341593 256.839559 
L 379.140723 258.098933 
L 383.939852 259.911674 
L 388.738981 257.908853 
L 393.538111 259.561431 
L 398.33724 261.320592 
L 403.136369 262.417911 
L 407.935499 264.14145 
L 412.734628 265.270953 
L 417.533757 266.54498 
L 422.332886 266.63199 
L 427.132016 267.97688 
L 431.931145 267.602823 
L 436.730274 269.543151 
L 441.529404 272.235793 
L 446.328533 275.184753 
L 451.127662 277.761977 
L 455.926791 281.303223 
L 460.725921 283.884794 
L 465.52505 286.711829 
L 470.324179 280.11294 
L 475.123309 284.403536 
L 479.922438 289.471254 
L 484.721567 295.128076 
L 489.520697 300.506816 
L 494.319826 306.832699 
L 499.118955 314.71883 
L 503.918084 323.91657 
L 508.717214 329.635039 
L 513.516343 345.628001 
L 518.315472 366.942898 
L 523.114602 396.766391 
L 527.913731 441.463686 
L 531.287385 493.760937 
" clip-path="url(#p74c8118c5e)" style="fill: none; stroke: #1f77b4; stroke-width: 2; stroke-linecap: square"/>
   </g>
   <g id="line2d_24">
    <path d="M 67.197319 220.50934 
L 71.996448 223.42467 
L 76.795577 226.099272 
L 81.594707 228.744407 
L 86.393836 231.492707 
L 91.192965 233.919233 
L 95.992095 236.539439 
L 100.791224 238.941641 
L 105.590353 241.261848 
L 110.389482 243.600576 
L 115.188612 245.905326 
L 119.987741 247.936157 
L 124.78687 249.895313 
L 129.586 252.02457 
L 134.385129 254.092226 
L 139.184258 255.447146 
L 143.983387 257.04416 
L 148.782517 258.548779 
L 153.581646 259.799021 
L 158.380775 260.677633 
L 163.179905 261.738867 
L 167.979034 262.305891 
L 172.778163 262.8432 
L 177.577292 263.163567 
L 182.376422 262.820707 
L 187.175551 262.337066 
L 191.97468 262.261013 
L 196.77381 261.571699 
L 201.572939 260.851879 
L 206.372068 259.494961 
L 211.171198 258.379273 
L 215.970327 257.183588 
L 220.769456 256.158618 
L 225.568585 255.511 
L 230.367715 254.170291 
L 235.166844 252.507195 
L 239.965973 251.479092 
L 244.765103 249.785948 
L 249.564232 248.184294 
L 254.363361 247.35068 
L 259.16249 246.835053 
L 263.96162 246.148482 
L 268.760749 245.171451 
L 273.559878 245.332832 
L 278.359008 244.829682 
L 283.158137 243.371355 
L 287.957266 242.465746 
L 292.756396 241.743423 
L 297.555525 241.863968 
L 302.354654 241.779431 
L 307.153783 242.320392 
L 311.952913 242.157742 
L 316.752042 242.314141 
L 321.551171 242.375637 
L 326.350301 242.071195 
L 331.14943 241.299615 
L 335.948559 241.712652 
L 340.747688 242.129584 
L 345.546818 242.6487 
L 350.345947 242.024769 
L 355.145076 242.394358 
L 359.944206 241.263446 
L 364.743335 240.467204 
L 369.542464 240.713463 
L 374.341593 241.119739 
L 379.140723 241.704494 
L 383.939852 241.926616 
L 388.738981 242.790677 
L 393.538111 242.993699 
L 398.33724 243.560249 
L 403.136369 243.703757 
L 407.935499 244.209054 
L 412.734628 243.94505 
L 417.533757 243.789553 
L 422.332886 243.096703 
L 427.132016 244.112861 
L 431.931145 244.136908 
L 436.730274 245.021804 
L 441.529404 245.515897 
L 446.328533 246.276338 
L 451.127662 247.244503 
L 455.926791 248.972767 
L 460.725921 250.527136 
L 465.52505 250.802767 
L 470.324179 252.964015 
L 475.123309 252.374747 
L 479.922438 253.816806 
L 484.721567 255.404623 
L 489.520697 257.009982 
L 494.319826 257.830549 
L 499.118955 256.824606 
L 503.918084 258.64684 
L 508.717214 257.389087 
L 513.516343 262.16083 
L 518.315472 263.206002 
L 523.114602 265.064031 
L 527.913731 266.862626 
L 532.71286 269.364573 
L 537.511989 280.988467 
L 542.311119 281.890153 
" clip-path="url(#p74c8118c5e)" style="fill: none; stroke: #2ca02c; stroke-width: 2; stroke-linecap: square"/>
   </g>
   <g id="line2d_25">
    <path d="M 67.197319 219.77434 
L 71.996448 221.85119 
L 76.795577 223.464388 
L 81.594707 224.836848 
L 86.393836 226.200717 
L 91.192965 227.231421 
L 95.992095 228.09357 
L 100.791224 228.728013 
L 105.590353 229.029229 
L 110.389482 229.605313 
L 115.188612 229.90313 
L 119.987741 230.095025 
L 124.78687 230.573866 
L 129.586 230.867115 
L 134.385129 231.306985 
L 139.184258 231.674032 
L 143.983387 231.4381 
L 148.782517 231.646936 
L 153.581646 231.63403 
L 158.380775 231.649317 
L 163.179905 231.842064 
L 167.979034 231.82495 
L 172.778163 232.132623 
L 177.577292 232.379771 
L 182.376422 232.932508 
L 187.175551 233.012575 
L 191.97468 233.043691 
L 196.77381 233.278686 
L 201.572939 233.222915 
L 206.372068 233.209621 
L 211.171198 233.33478 
L 215.970327 233.671158 
L 220.769456 234.22807 
L 225.568585 234.432993 
L 230.367715 234.327315 
L 235.166844 234.000607 
L 239.965973 234.157624 
L 244.765103 234.118419 
L 249.564232 233.942527 
L 254.363361 233.939015 
L 259.16249 234.357968 
L 263.96162 234.199539 
L 268.760749 234.36777 
L 273.559878 234.270401 
L 278.359008 234.140164 
L 283.158137 234.002199 
L 287.957266 233.795116 
L 292.756396 233.400066 
L 297.555525 233.271598 
L 302.354654 233.580336 
L 307.153783 233.223164 
L 311.952913 233.506563 
L 316.752042 233.781195 
L 321.551171 233.479078 
L 326.350301 234.072835 
L 331.14943 234.341777 
L 335.948559 234.731457 
L 340.747688 235.166051 
L 345.546818 235.374415 
L 350.345947 235.492584 
L 355.145076 236.406833 
L 359.944206 236.831875 
L 364.743335 236.824425 
L 369.542464 237.083506 
L 374.341593 237.51246 
L 379.140723 238.257506 
L 383.939852 238.547694 
L 388.738981 239.349292 
L 393.538111 240.355316 
L 398.33724 241.404988 
L 403.136369 241.948504 
L 407.935499 241.280865 
L 412.734628 241.165288 
L 417.533757 241.461581 
L 422.332886 242.097253 
L 427.132016 241.914681 
L 431.931145 240.105408 
L 436.730274 240.070958 
L 441.529404 240.990838 
L 446.328533 239.474913 
L 451.127662 240.39113 
L 455.926791 241.005472 
L 460.725921 242.373684 
L 465.52505 243.031637 
L 470.324179 240.57326 
L 475.123309 241.966781 
L 479.922438 243.159475 
L 484.721567 243.561185 
L 489.520697 245.003004 
L 494.319826 244.479004 
L 499.118955 246.646448 
L 503.918084 247.303073 
L 508.717214 238.236816 
L 513.516343 239.454568 
L 518.315472 240.967982 
L 523.114602 236.809262 
L 527.913731 238.295497 
L 532.71286 240.167052 
L 537.511989 234.971546 
L 542.311119 235.630052 
" clip-path="url(#p74c8118c5e)" style="fill: none; stroke: #8c564b; stroke-width: 2; stroke-linecap: square"/>
   </g>
   <g id="line2d_26">
    <path d="M 67.197319 219.358616 
L 71.996448 220.632956 
L 76.795577 221.403255 
L 81.594707 222.212276 
L 86.393836 222.911612 
L 91.192965 223.499624 
L 95.992095 224.021431 
L 100.791224 224.308468 
L 105.590353 224.865015 
L 110.389482 225.310733 
L 115.188612 225.62194 
L 119.987741 225.947595 
L 124.78687 226.591331 
L 129.586 227.015097 
L 134.385129 227.452584 
L 139.184258 227.720264 
L 143.983387 227.888459 
L 148.782517 228.263134 
L 153.581646 228.436069 
L 158.380775 228.77595 
L 163.179905 229.138688 
L 167.979034 229.446059 
L 172.778163 229.59453 
L 177.577292 229.76398 
L 182.376422 230.070073 
L 187.175551 230.480939 
L 191.97468 230.413363 
L 196.77381 230.361998 
L 201.572939 230.4007 
L 206.372068 230.408034 
L 211.171198 230.674335 
L 215.970327 231.098668 
L 220.769456 231.191677 
L 225.568585 231.761739 
L 230.367715 231.999842 
L 235.166844 232.503644 
L 239.965973 232.73763 
L 244.765103 232.864057 
L 249.564232 233.076889 
L 254.363361 233.496431 
L 259.16249 233.474453 
L 263.96162 233.705659 
L 268.760749 233.87389 
L 273.559878 234.284869 
L 278.359008 234.869272 
L 283.158137 235.160633 
L 287.957266 235.73717 
L 292.756396 236.05279 
L 297.555525 236.500859 
L 302.354654 236.153044 
L 307.153783 236.423492 
L 311.952913 236.866244 
L 316.752042 236.775266 
L 321.551171 237.219824 
L 326.350301 238.202632 
L 331.14943 238.885227 
L 335.948559 238.959077 
L 340.747688 239.400062 
L 345.546818 239.673903 
L 350.345947 240.591464 
L 355.145076 241.460256 
L 359.944206 241.233948 
L 364.743335 242.109052 
L 369.542464 242.675503 
L 374.341593 243.561476 
L 379.140723 243.877269 
L 383.939852 244.516634 
L 388.738981 245.184762 
L 393.538111 245.529433 
L 398.33724 246.947691 
L 403.136369 246.715737 
L 407.935499 247.472346 
L 412.734628 248.271223 
L 417.533757 247.928419 
L 422.332886 249.395014 
L 427.132016 249.300113 
L 431.931145 251.069489 
L 436.730274 250.960411 
L 441.529404 252.143094 
L 446.328533 254.033941 
L 451.127662 255.932696 
L 455.926791 255.900609 
L 460.725921 257.492291 
L 465.52505 258.748598 
L 470.324179 259.89439 
L 475.123309 260.775856 
L 479.922438 262.065406 
L 484.721567 262.173686 
L 489.520697 263.575049 
L 494.319826 267.638425 
L 499.118955 270.819385 
L 503.918084 271.636874 
L 508.717214 274.199884 
L 513.516343 275.310117 
L 518.315472 276.351261 
L 523.114602 275.048925 
L 527.913731 276.175973 
L 532.71286 282.481693 
L 537.511989 263.289844 
L 542.311119 233.325279 
" clip-path="url(#p74c8118c5e)" style="fill: none; stroke: #7f7f7f; stroke-width: 2; stroke-linecap: square"/>
   </g>
   <g id="line2d_27">
    <path d="M 67.197319 220.38296 
L 71.996448 223.329386 
L 76.795577 225.540261 
L 81.594707 227.34121 
L 86.393836 228.620549 
L 91.192965 229.578576 
L 95.992095 229.942203 
L 100.791224 229.532995 
L 105.590353 229.296462 
L 110.389482 229.351812 
L 115.188612 229.443497 
L 119.987741 229.535751 
L 124.78687 229.722101 
L 129.586 229.971427 
L 134.385129 230.100322 
L 139.184258 230.247821 
L 143.983387 230.638102 
L 148.782517 230.732231 
L 153.581646 231.111759 
L 158.380775 231.447966 
L 163.179905 231.487931 
L 167.979034 231.549785 
L 172.778163 231.695593 
L 177.577292 231.896536 
L 182.376422 231.682393 
L 187.175551 231.884129 
L 191.97468 232.218174 
L 196.77381 232.482473 
L 201.572939 232.660357 
L 206.372068 232.532497 
L 211.171198 232.732637 
L 215.970327 232.960096 
L 220.769456 233.329848 
L 225.568585 233.863004 
L 230.367715 233.796128 
L 235.166844 233.668925 
L 239.965973 234.078027 
L 244.765103 233.993116 
L 249.564232 234.136492 
L 254.363361 234.298088 
L 259.16249 233.993107 
L 263.96162 233.633153 
L 268.760749 233.703616 
L 273.559878 233.245102 
L 278.359008 233.252368 
L 283.158137 233.37365 
L 287.957266 234.118305 
L 292.756396 234.679844 
L 297.555525 235.433934 
L 302.354654 235.513901 
L 307.153783 235.913152 
L 311.952913 236.147274 
L 316.752042 236.723831 
L 321.551171 236.957143 
L 326.350301 237.186284 
L 331.14943 237.780463 
L 335.948559 238.222054 
L 340.747688 238.676525 
L 345.546818 238.682304 
L 350.345947 238.828906 
L 355.145076 238.032191 
L 359.944206 238.190745 
L 364.743335 238.504943 
L 369.542464 238.644804 
L 374.341593 239.368557 
L 379.140723 239.531719 
L 383.939852 239.980435 
L 388.738981 240.426363 
L 393.538111 240.889867 
L 398.33724 241.372647 
L 403.136369 241.487091 
L 407.935499 241.995367 
L 412.734628 242.95729 
L 417.533757 243.868601 
L 422.332886 243.387722 
L 427.132016 244.461458 
L 431.931145 244.040566 
L 436.730274 243.704791 
L 441.529404 245.380807 
L 446.328533 245.750876 
L 451.127662 246.593972 
L 455.926791 247.985007 
L 460.725921 247.75693 
L 465.52505 249.341273 
L 470.324179 247.009754 
L 475.123309 245.321987 
L 479.922438 245.966762 
L 484.721567 246.989294 
L 489.520697 245.303024 
L 494.319826 242.338857 
L 499.118955 241.18356 
L 503.918084 243.317168 
L 508.717214 241.995967 
L 513.516343 239.522144 
L 518.315472 238.827835 
L 523.114602 239.305486 
L 527.913731 237.472363 
L 532.71286 240.167052 
L 537.511989 235.630052 
L 542.311119 235.794679 
" clip-path="url(#p74c8118c5e)" style="fill: none; stroke: #17becf; stroke-width: 2; stroke-linecap: square"/>
   </g>
   <g id="line2d_28">
    <path d="M 67.197319 221.127937 
L 71.996448 225.269633 
L 76.795577 229.495844 
L 81.594707 233.809185 
L 86.393836 238.212377 
L 91.192965 242.708258 
L 95.992095 247.299785 
L 100.791224 251.990044 
L 105.590353 256.782255 
L 110.389482 261.679776 
L 115.188612 266.686119 
L 119.987741 271.804952 
L 124.78687 277.040107 
L 129.586 282.395598 
L 134.385129 287.875619 
L 139.184258 293.484567 
L 143.983387 299.227045 
L 148.782517 305.107879 
L 153.581646 311.13213 
L 158.380775 317.30511 
L 163.179905 323.632394 
L 167.979034 330.119842 
L 172.778163 336.773613 
L 177.577292 343.600186 
L 182.376422 350.606382 
L 187.175551 357.799384 
L 191.97468 365.186765 
L 196.77381 372.776512 
L 201.572939 380.577055 
L 206.372068 388.5973 
L 211.171198 396.846662 
L 215.970327 405.3351 
L 220.769456 414.07316 
L 225.568585 423.072019 
L 230.367715 432.343528 
L 235.166844 441.90027 
L 239.965973 451.755612 
L 244.765103 461.923771 
L 249.564232 472.419882 
L 254.363361 483.260069 
L 258.862328 493.760937 
" clip-path="url(#p74c8118c5e)" style="fill: none; stroke-dasharray: 5.55,2.4; stroke-dashoffset: 0; stroke: #000000; stroke-width: 1.5"/>
   </g>
   <g id="line2d_29">
    <path d="M 67.197319 236.617812 
L 71.996448 236.617812 
L 76.795577 236.617812 
L 81.594707 236.617812 
L 86.393836 236.617812 
L 91.192965 236.617812 
L 95.992095 236.617812 
L 100.791224 236.617812 
L 105.590353 236.617812 
L 110.389482 236.617812 
L 115.188612 236.617812 
L 119.987741 236.617812 
L 124.78687 236.617812 
L 129.586 236.617812 
L 134.385129 236.617812 
L 139.184258 236.617812 
L 143.983387 236.617812 
L 148.782517 236.617812 
L 153.581646 236.617812 
L 158.380775 236.617812 
L 163.179905 236.617812 
L 167.979034 236.617812 
L 172.778163 236.617812 
L 177.577292 236.617812 
L 182.376422 236.617812 
L 187.175551 236.617812 
L 191.97468 236.617812 
L 196.77381 236.617812 
L 201.572939 236.617812 
L 206.372068 236.617812 
L 211.171198 236.617812 
L 215.970327 236.617812 
L 220.769456 236.617812 
L 225.568585 236.617812 
L 230.367715 236.617812 
L 235.166844 236.617812 
L 239.965973 236.617812 
L 244.765103 236.617812 
L 249.564232 236.617812 
L 254.363361 236.617812 
L 259.16249 236.617812 
L 263.96162 236.617812 
L 268.760749 236.617812 
L 273.559878 236.617812 
L 278.359008 236.617812 
L 283.158137 236.617812 
L 287.957266 236.617812 
L 292.756396 236.617812 
L 297.555525 236.617812 
L 302.354654 236.617812 
L 307.153783 236.617812 
L 311.952913 236.617812 
L 316.752042 236.617812 
L 321.551171 236.617812 
L 326.350301 236.617812 
L 331.14943 236.617812 
L 335.948559 236.617812 
L 340.747688 236.617812 
L 345.546818 236.617812 
L 350.345947 236.617812 
L 355.145076 236.617812 
L 359.944206 236.617812 
L 364.743335 236.617812 
L 369.542464 236.617812 
L 374.341593 236.617812 
L 379.140723 236.617812 
L 383.939852 236.617812 
L 388.738981 236.617812 
L 393.538111 236.617812 
L 398.33724 236.617812 
L 403.136369 236.617812 
L 407.935499 236.617812 
L 412.734628 236.617812 
L 417.533757 236.617812 
L 422.332886 236.617812 
L 427.132016 236.617812 
L 431.931145 236.617812 
L 436.730274 236.617812 
L 441.529404 236.617812 
L 446.328533 236.617812 
L 451.127662 236.617812 
L 455.926791 236.617812 
L 460.725921 236.617812 
L 465.52505 236.617812 
L 470.324179 236.617812 
L 475.123309 236.617812 
L 479.922438 236.617812 
L 484.721567 236.617812 
L 489.520697 236.617812 
L 494.319826 236.617812 
L 499.118955 236.617812 
L 503.918084 236.617812 
L 508.717214 236.617812 
L 513.516343 236.617812 
L 518.315472 236.617812 
L 523.114602 236.617812 
L 527.913731 236.617812 
L 532.71286 236.617812 
L 537.511989 236.617812 
L 542.311119 236.617812 
" clip-path="url(#p74c8118c5e)" style="fill: none; stroke-dasharray: 1.5,2.475; stroke-dashoffset: 0; stroke: #000000; stroke-width: 1.5"/>
   </g>
   <g id="patch_3">
    <path d="M 62.349219 449.397812 
L 62.349219 23.837812 
" style="fill: none; stroke: #000000; stroke-width: 0.8; stroke-linejoin: miter; stroke-linecap: square"/>
   </g>
   <g id="patch_4">
    <path d="M 547.159219 449.397812 
L 547.159219 23.837812 
" style="fill: none; stroke: #000000; stroke-width: 0.8; stroke-linejoin: miter; stroke-linecap: square"/>
   </g>
   <g id="patch_5">
    <path d="M 62.349219 449.397812 
L 547.159219 449.397812 
" style="fill: none; stroke: #000000; stroke-width: 0.8; stroke-linejoin: miter; stroke-linecap: square"/>
   </g>
   <g id="patch_6">
    <path d="M 62.349219 23.837812 
L 547.159219 23.837812 
" style="fill: none; stroke: #000000; stroke-width: 0.8; stroke-linejoin: miter; stroke-linecap: square"/>
   </g>
   <g id="text_14">
    <!-- Decision Curve Analysis -->
    <g transform="translate(221.01125 17.837812) scale(0.14 -0.14)">
     <defs>
      <path id="DejaVuSans-44" d="M 1259 4147 
L 1259 519 
L 2022 519 
Q 2988 519 3436 956 
Q 3884 1394 3884 2338 
Q 3884 3275 3436 3711 
Q 2988 4147 2022 4147 
L 1259 4147 
z
M 628 4666 
L 1925 4666 
Q 3281 4666 3915 4102 
Q 4550 3538 4550 2338 
Q 4550 1131 3912 565 
Q 3275 0 1925 0 
L 628 0 
L 628 4666 
z
" transform="scale(0.015625)"/>
      <path id="DejaVuSans-63" d="M 3122 3366 
L 3122 2828 
Q 2878 2963 2633 3030 
Q 2388 3097 2138 3097 
Q 1578 3097 1268 2742 
Q 959 2388 959 1747 
Q 959 1106 1268 751 
Q 1578 397 2138 397 
Q 2388 397 2633 464 
Q 2878 531 3122 666 
L 3122 134 
Q 2881 22 2623 -34 
Q 2366 -91 2075 -91 
Q 1284 -91 818 406 
Q 353 903 353 1747 
Q 353 2603 823 3093 
Q 1294 3584 2113 3584 
Q 2378 3584 2631 3529 
Q 2884 3475 3122 3366 
z
" transform="scale(0.015625)"/>
      <path id="DejaVuSans-43" d="M 4122 4306 
L 4122 3641 
Q 3803 3938 3442 4084 
Q 3081 4231 2675 4231 
Q 1875 4231 1450 3742 
Q 1025 3253 1025 2328 
Q 1025 1406 1450 917 
Q 1875 428 2675 428 
Q 3081 428 3442 575 
Q 3803 722 4122 1019 
L 4122 359 
Q 3791 134 3420 21 
Q 3050 -91 2638 -91 
Q 1578 -91 968 557 
Q 359 1206 359 2328 
Q 359 3453 968 4101 
Q 1578 4750 2638 4750 
Q 3056 4750 3426 4639 
Q 3797 4528 4122 4306 
z
" transform="scale(0.015625)"/>
      <path id="DejaVuSans-75" d="M 544 1381 
L 544 3500 
L 1119 3500 
L 1119 1403 
Q 1119 906 1312 657 
Q 1506 409 1894 409 
Q 2359 409 2629 706 
Q 2900 1003 2900 1516 
L 2900 3500 
L 3475 3500 
L 3475 0 
L 2900 0 
L 2900 538 
Q 2691 219 2414 64 
Q 2138 -91 1772 -91 
Q 1169 -91 856 284 
Q 544 659 544 1381 
z
M 1991 3584 
L 1991 3584 
z
" transform="scale(0.015625)"/>
      <path id="DejaVuSans-76" d="M 191 3500 
L 800 3500 
L 1894 563 
L 2988 3500 
L 3597 3500 
L 2284 0 
L 1503 0 
L 191 3500 
z
" transform="scale(0.015625)"/>
      <path id="DejaVuSans-41" d="M 2188 4044 
L 1331 1722 
L 3047 1722 
L 2188 4044 
z
M 1831 4666 
L 2547 4666 
L 4325 0 
L 3669 0 
L 3244 1197 
L 1141 1197 
L 716 0 
L 50 0 
L 1831 4666 
z
" transform="scale(0.015625)"/>
     </defs>
     <use xlink:href="#DejaVuSans-44"/>
     <use xlink:href="#DejaVuSans-65" transform="translate(77.001953 0)"/>
     <use xlink:href="#DejaVuSans-63" transform="translate(138.525391 0)"/>
     <use xlink:href="#DejaVuSans-69" transform="translate(193.505859 0)"/>
     <use xlink:href="#DejaVuSans-73" transform="translate(221.289062 0)"/>
     <use xlink:href="#DejaVuSans-69" transform="translate(273.388672 0)"/>
     <use xlink:href="#DejaVuSans-6f" transform="translate(301.171875 0)"/>
     <use xlink:href="#DejaVuSans-6e" transform="translate(362.353516 0)"/>
     <use xlink:href="#DejaVuSans-20" transform="translate(425.732422 0)"/>
     <use xlink:href="#DejaVuSans-43" transform="translate(457.519531 0)"/>
     <use xlink:href="#DejaVuSans-75" transform="translate(527.34375 0)"/>
     <use xlink:href="#DejaVuSans-72" transform="translate(590.722656 0)"/>
     <use xlink:href="#DejaVuSans-76" transform="translate(631.835938 0)"/>
     <use xlink:href="#DejaVuSans-65" transform="translate(691.015625 0)"/>
     <use xlink:href="#DejaVuSans-20" transform="translate(752.539062 0)"/>
     <use xlink:href="#DejaVuSans-41" transform="translate(784.326172 0)"/>
     <use xlink:href="#DejaVuSans-6e" transform="translate(852.734375 0)"/>
     <use xlink:href="#DejaVuSans-61" transform="translate(916.113281 0)"/>
     <use xlink:href="#DejaVuSans-6c" transform="translate(977.392578 0)"/>
     <use xlink:href="#DejaVuSans-79" transform="translate(1005.175781 0)"/>
     <use xlink:href="#DejaVuSans-73" transform="translate(1064.355469 0)"/>
     <use xlink:href="#DejaVuSans-69" transform="translate(1116.455078 0)"/>
     <use xlink:href="#DejaVuSans-73" transform="translate(1144.238281 0)"/>
    </g>
   </g>
   <g id="legend_1">
    <g id="patch_7">
     <path d="M 71.449219 167.80875 
L 311.807031 167.80875 
Q 314.407031 167.80875 314.407031 165.20875 
L 314.407031 32.937812 
Q 314.407031 30.337812 311.807031 30.337812 
L 71.449219 30.337812 
Q 68.849219 30.337812 68.849219 32.937812 
L 68.849219 165.20875 
Q 68.849219 167.80875 71.449219 167.80875 
z
" style="fill: #ffffff; opacity: 0.8; stroke: #cccccc; stroke-linejoin: miter"/>
    </g>
    <g id="line2d_30">
     <path d="M 74.049219 40.865781 
L 87.049219 40.865781 
L 100.049219 40.865781 
" style="fill: none; stroke: #1f77b4; stroke-width: 2; stroke-linecap: square"/>
    </g>
    <g id="text_15">
     <!-- K-Nearest Neighbors -->
     <g transform="translate(110.449219 45.415781) scale(0.13 -0.13)">
      <defs>
       <path id="DejaVuSans-4b" d="M 628 4666 
L 1259 4666 
L 1259 2694 
L 3353 4666 
L 4166 4666 
L 1850 2491 
L 4331 0 
L 3500 0 
L 1259 2247 
L 1259 0 
L 628 0 
L 628 4666 
z
" transform="scale(0.015625)"/>
       <path id="DejaVuSans-2d" d="M 313 2009 
L 1997 2009 
L 1997 1497 
L 313 1497 
L 313 2009 
z
" transform="scale(0.015625)"/>
       <path id="DejaVuSans-67" d="M 2906 1791 
Q 2906 2416 2648 2759 
Q 2391 3103 1925 3103 
Q 1463 3103 1205 2759 
Q 947 2416 947 1791 
Q 947 1169 1205 825 
Q 1463 481 1925 481 
Q 2391 481 2648 825 
Q 2906 1169 2906 1791 
z
M 3481 434 
Q 3481 -459 3084 -895 
Q 2688 -1331 1869 -1331 
Q 1566 -1331 1297 -1286 
Q 1028 -1241 775 -1147 
L 775 -588 
Q 1028 -725 1275 -790 
Q 1522 -856 1778 -856 
Q 2344 -856 2625 -561 
Q 2906 -266 2906 331 
L 2906 616 
Q 2728 306 2450 153 
Q 2172 0 1784 0 
Q 1141 0 747 490 
Q 353 981 353 1791 
Q 353 2603 747 3093 
Q 1141 3584 1784 3584 
Q 2172 3584 2450 3431 
Q 2728 3278 2906 2969 
L 2906 3500 
L 3481 3500 
L 3481 434 
z
" transform="scale(0.015625)"/>
      </defs>
      <use xlink:href="#DejaVuSans-4b"/>
      <use xlink:href="#DejaVuSans-2d" transform="translate(55.076172 0)"/>
      <use xlink:href="#DejaVuSans-4e" transform="translate(91.160156 0)"/>
      <use xlink:href="#DejaVuSans-65" transform="translate(165.964844 0)"/>
      <use xlink:href="#DejaVuSans-61" transform="translate(227.488281 0)"/>
      <use xlink:href="#DejaVuSans-72" transform="translate(288.767578 0)"/>
      <use xlink:href="#DejaVuSans-65" transform="translate(327.630859 0)"/>
      <use xlink:href="#DejaVuSans-73" transform="translate(389.154297 0)"/>
      <use xlink:href="#DejaVuSans-74" transform="translate(441.253906 0)"/>
      <use xlink:href="#DejaVuSans-20" transform="translate(480.462891 0)"/>
      <use xlink:href="#DejaVuSans-4e" transform="translate(512.25 0)"/>
      <use xlink:href="#DejaVuSans-65" transform="translate(587.054688 0)"/>
      <use xlink:href="#DejaVuSans-69" transform="translate(648.578125 0)"/>
      <use xlink:href="#DejaVuSans-67" transform="translate(676.361328 0)"/>
      <use xlink:href="#DejaVuSans-68" transform="translate(739.837891 0)"/>
      <use xlink:href="#DejaVuSans-62" transform="translate(803.216797 0)"/>
      <use xlink:href="#DejaVuSans-6f" transform="translate(866.693359 0)"/>
      <use xlink:href="#DejaVuSans-72" transform="translate(927.875 0)"/>
      <use xlink:href="#DejaVuSans-73" transform="translate(968.988281 0)"/>
     </g>
    </g>
    <g id="line2d_31">
     <path d="M 74.049219 59.947344 
L 87.049219 59.947344 
L 100.049219 59.947344 
" style="fill: none; stroke: #2ca02c; stroke-width: 2; stroke-linecap: square"/>
    </g>
    <g id="text_16">
     <!-- Elastic-Net Logistic Regression -->
     <g transform="translate(110.449219 64.497344) scale(0.13 -0.13)">
      <defs>
       <path id="DejaVuSans-45" d="M 628 4666 
L 3578 4666 
L 3578 4134 
L 1259 4134 
L 1259 2753 
L 3481 2753 
L 3481 2222 
L 1259 2222 
L 1259 531 
L 3634 531 
L 3634 0 
L 628 0 
L 628 4666 
z
" transform="scale(0.015625)"/>
       <path id="DejaVuSans-4c" d="M 628 4666 
L 1259 4666 
L 1259 531 
L 3531 531 
L 3531 0 
L 628 0 
L 628 4666 
z
" transform="scale(0.015625)"/>
       <path id="DejaVuSans-52" d="M 2841 2188 
Q 3044 2119 3236 1894 
Q 3428 1669 3622 1275 
L 4263 0 
L 3584 0 
L 2988 1197 
Q 2756 1666 2539 1819 
Q 2322 1972 1947 1972 
L 1259 1972 
L 1259 0 
L 628 0 
L 628 4666 
L 2053 4666 
Q 2853 4666 3247 4331 
Q 3641 3997 3641 3322 
Q 3641 2881 3436 2590 
Q 3231 2300 2841 2188 
z
M 1259 4147 
L 1259 2491 
L 2053 2491 
Q 2509 2491 2742 2702 
Q 2975 2913 2975 3322 
Q 2975 3731 2742 3939 
Q 2509 4147 2053 4147 
L 1259 4147 
z
" transform="scale(0.015625)"/>
      </defs>
      <use xlink:href="#DejaVuSans-45"/>
      <use xlink:href="#DejaVuSans-6c" transform="translate(63.183594 0)"/>
      <use xlink:href="#DejaVuSans-61" transform="translate(90.966797 0)"/>
      <use xlink:href="#DejaVuSans-73" transform="translate(152.246094 0)"/>
      <use xlink:href="#DejaVuSans-74" transform="translate(204.345703 0)"/>
      <use xlink:href="#DejaVuSans-69" transform="translate(243.554688 0)"/>
      <use xlink:href="#DejaVuSans-63" transform="translate(271.337891 0)"/>
      <use xlink:href="#DejaVuSans-2d" transform="translate(326.318359 0)"/>
      <use xlink:href="#DejaVuSans-4e" transform="translate(362.402344 0)"/>
      <use xlink:href="#DejaVuSans-65" transform="translate(437.207031 0)"/>
      <use xlink:href="#DejaVuSans-74" transform="translate(498.730469 0)"/>
      <use xlink:href="#DejaVuSans-20" transform="translate(537.939453 0)"/>
      <use xlink:href="#DejaVuSans-4c" transform="translate(569.726562 0)"/>
      <use xlink:href="#DejaVuSans-6f" transform="translate(623.689453 0)"/>
      <use xlink:href="#DejaVuSans-67" transform="translate(684.871094 0)"/>
      <use xlink:href="#DejaVuSans-69" transform="translate(748.347656 0)"/>
      <use xlink:href="#DejaVuSans-73" transform="translate(776.130859 0)"/>
      <use xlink:href="#DejaVuSans-74" transform="translate(828.230469 0)"/>
      <use xlink:href="#DejaVuSans-69" transform="translate(867.439453 0)"/>
      <use xlink:href="#DejaVuSans-63" transform="translate(895.222656 0)"/>
      <use xlink:href="#DejaVuSans-20" transform="translate(950.203125 0)"/>
      <use xlink:href="#DejaVuSans-52" transform="translate(981.990234 0)"/>
      <use xlink:href="#DejaVuSans-65" transform="translate(1046.972656 0)"/>
      <use xlink:href="#DejaVuSans-67" transform="translate(1108.496094 0)"/>
      <use xlink:href="#DejaVuSans-72" transform="translate(1171.972656 0)"/>
      <use xlink:href="#DejaVuSans-65" transform="translate(1210.835938 0)"/>
      <use xlink:href="#DejaVuSans-73" transform="translate(1272.359375 0)"/>
      <use xlink:href="#DejaVuSans-73" transform="translate(1324.458984 0)"/>
      <use xlink:href="#DejaVuSans-69" transform="translate(1376.558594 0)"/>
      <use xlink:href="#DejaVuSans-6f" transform="translate(1404.341797 0)"/>
      <use xlink:href="#DejaVuSans-6e" transform="translate(1465.523438 0)"/>
     </g>
    </g>
    <g id="line2d_32">
     <path d="M 74.049219 79.028906 
L 87.049219 79.028906 
L 100.049219 79.028906 
" style="fill: none; stroke: #8c564b; stroke-width: 2; stroke-linecap: square"/>
    </g>
    <g id="text_17">
     <!-- Random Forest -->
     <g transform="translate(110.449219 83.578906) scale(0.13 -0.13)">
      <defs>
       <path id="DejaVuSans-6d" d="M 3328 2828 
Q 3544 3216 3844 3400 
Q 4144 3584 4550 3584 
Q 5097 3584 5394 3201 
Q 5691 2819 5691 2113 
L 5691 0 
L 5113 0 
L 5113 2094 
Q 5113 2597 4934 2840 
Q 4756 3084 4391 3084 
Q 3944 3084 3684 2787 
Q 3425 2491 3425 1978 
L 3425 0 
L 2847 0 
L 2847 2094 
Q 2847 2600 2669 2842 
Q 2491 3084 2119 3084 
Q 1678 3084 1418 2786 
Q 1159 2488 1159 1978 
L 1159 0 
L 581 0 
L 581 3500 
L 1159 3500 
L 1159 2956 
Q 1356 3278 1631 3431 
Q 1906 3584 2284 3584 
Q 2666 3584 2933 3390 
Q 3200 3197 3328 2828 
z
" transform="scale(0.015625)"/>
       <path id="DejaVuSans-46" d="M 628 4666 
L 3309 4666 
L 3309 4134 
L 1259 4134 
L 1259 2759 
L 3109 2759 
L 3109 2228 
L 1259 2228 
L 1259 0 
L 628 0 
L 628 4666 
z
" transform="scale(0.015625)"/>
      </defs>
      <use xlink:href="#DejaVuSans-52"/>
      <use xlink:href="#DejaVuSans-61" transform="translate(67.232422 0)"/>
      <use xlink:href="#DejaVuSans-6e" transform="translate(128.511719 0)"/>
      <use xlink:href="#DejaVuSans-64" transform="translate(191.890625 0)"/>
      <use xlink:href="#DejaVuSans-6f" transform="translate(255.367188 0)"/>
      <use xlink:href="#DejaVuSans-6d" transform="translate(316.548828 0)"/>
      <use xlink:href="#DejaVuSans-20" transform="translate(413.960938 0)"/>
      <use xlink:href="#DejaVuSans-46" transform="translate(445.748047 0)"/>
      <use xlink:href="#DejaVuSans-6f" transform="translate(499.642578 0)"/>
      <use xlink:href="#DejaVuSans-72" transform="translate(560.824219 0)"/>
      <use xlink:href="#DejaVuSans-65" transform="translate(599.6875 0)"/>
      <use xlink:href="#DejaVuSans-73" transform="translate(661.210938 0)"/>
      <use xlink:href="#DejaVuSans-74" transform="translate(713.310547 0)"/>
     </g>
    </g>
    <g id="line2d_33">
     <path d="M 74.049219 98.110469 
L 87.049219 98.110469 
L 100.049219 98.110469 
" style="fill: none; stroke: #7f7f7f; stroke-width: 2; stroke-linecap: square"/>
    </g>
    <g id="text_18">
     <!-- XGBoost -->
     <g transform="translate(110.449219 102.660469) scale(0.13 -0.13)">
      <defs>
       <path id="DejaVuSans-58" d="M 403 4666 
L 1081 4666 
L 2241 2931 
L 3406 4666 
L 4084 4666 
L 2584 2425 
L 4184 0 
L 3506 0 
L 2194 1984 
L 872 0 
L 191 0 
L 1856 2491 
L 403 4666 
z
" transform="scale(0.015625)"/>
       <path id="DejaVuSans-47" d="M 3809 666 
L 3809 1919 
L 2778 1919 
L 2778 2438 
L 4434 2438 
L 4434 434 
Q 4069 175 3628 42 
Q 3188 -91 2688 -91 
Q 1594 -91 976 548 
Q 359 1188 359 2328 
Q 359 3472 976 4111 
Q 1594 4750 2688 4750 
Q 3144 4750 3555 4637 
Q 3966 4525 4313 4306 
L 4313 3634 
Q 3963 3931 3569 4081 
Q 3175 4231 2741 4231 
Q 1884 4231 1454 3753 
Q 1025 3275 1025 2328 
Q 1025 1384 1454 906 
Q 1884 428 2741 428 
Q 3075 428 3337 486 
Q 3600 544 3809 666 
z
" transform="scale(0.015625)"/>
      </defs>
      <use xlink:href="#DejaVuSans-58"/>
      <use xlink:href="#DejaVuSans-47" transform="translate(68.505859 0)"/>
      <use xlink:href="#DejaVuSans-42" transform="translate(145.996094 0)"/>
      <use xlink:href="#DejaVuSans-6f" transform="translate(214.599609 0)"/>
      <use xlink:href="#DejaVuSans-6f" transform="translate(275.78125 0)"/>
      <use xlink:href="#DejaVuSans-73" transform="translate(336.962891 0)"/>
      <use xlink:href="#DejaVuSans-74" transform="translate(389.0625 0)"/>
     </g>
    </g>
    <g id="line2d_34">
     <path d="M 74.049219 117.192031 
L 87.049219 117.192031 
L 100.049219 117.192031 
" style="fill: none; stroke: #17becf; stroke-width: 2; stroke-linecap: square"/>
    </g>
    <g id="text_19">
     <!-- ensemble -->
     <g transform="translate(110.449219 121.742031) scale(0.13 -0.13)">
      <use xlink:href="#DejaVuSans-65"/>
      <use xlink:href="#DejaVuSans-6e" transform="translate(61.523438 0)"/>
      <use xlink:href="#DejaVuSans-73" transform="translate(124.902344 0)"/>
      <use xlink:href="#DejaVuSans-65" transform="translate(177.001953 0)"/>
      <use xlink:href="#DejaVuSans-6d" transform="translate(238.525391 0)"/>
      <use xlink:href="#DejaVuSans-62" transform="translate(335.9375 0)"/>
      <use xlink:href="#DejaVuSans-6c" transform="translate(399.414062 0)"/>
      <use xlink:href="#DejaVuSans-65" transform="translate(427.197266 0)"/>
     </g>
    </g>
    <g id="line2d_35">
     <path d="M 74.049219 136.273594 
L 87.049219 136.273594 
L 100.049219 136.273594 
" style="fill: none; stroke-dasharray: 5.55,2.4; stroke-dashoffset: 0; stroke: #000000; stroke-width: 1.5"/>
    </g>
    <g id="text_20">
     <!-- Treat All -->
     <g transform="translate(110.449219 140.823594) scale(0.13 -0.13)">
      <use xlink:href="#DejaVuSans-54"/>
      <use xlink:href="#DejaVuSans-72" transform="translate(46.333984 0)"/>
      <use xlink:href="#DejaVuSans-65" transform="translate(85.197266 0)"/>
      <use xlink:href="#DejaVuSans-61" transform="translate(146.720703 0)"/>
      <use xlink:href="#DejaVuSans-74" transform="translate(208 0)"/>
      <use xlink:href="#DejaVuSans-20" transform="translate(247.208984 0)"/>
      <use xlink:href="#DejaVuSans-41" transform="translate(278.996094 0)"/>
      <use xlink:href="#DejaVuSans-6c" transform="translate(347.404297 0)"/>
      <use xlink:href="#DejaVuSans-6c" transform="translate(375.1875 0)"/>
     </g>
    </g>
    <g id="line2d_36">
     <path d="M 74.049219 155.355156 
L 87.049219 155.355156 
L 100.049219 155.355156 
" style="fill: none; stroke-dasharray: 1.5,2.475; stroke-dashoffset: 0; stroke: #000000; stroke-width: 1.5"/>
    </g>
    <g id="text_21">
     <!-- Treat None -->
     <g transform="translate(110.449219 159.905156) scale(0.13 -0.13)">
      <use xlink:href="#DejaVuSans-54"/>
      <use xlink:href="#DejaVuSans-72" transform="translate(46.333984 0)"/>
      <use xlink:href="#DejaVuSans-65" transform="translate(85.197266 0)"/>
      <use xlink:href="#DejaVuSans-61" transform="translate(146.720703 0)"/>
      <use xlink:href="#DejaVuSans-74" transform="translate(208 0)"/>
      <use xlink:href="#DejaVuSans-20" transform="translate(247.208984 0)"/>
      <use xlink:href="#DejaVuSans-4e" transform="translate(278.996094 0)"/>
      <use xlink:href="#DejaVuSans-6f" transform="translate(353.800781 0)"/>
      <use xlink:href="#DejaVuSans-6e" transform="translate(414.982422 0)"/>
      <use xlink:href="#DejaVuSans-65" transform="translate(478.361328 0)"/>
     </g>
    </g>
   </g>
  </g>
 </g>
 <defs>
  <clipPath id="p74c8118c5e">
   <rect x="62.349219" y="23.837812" width="484.81" height="425.56"/>
  </clipPath>
 </defs>
</svg>
