<?xml version="1.0" encoding="utf-8" standalone="no"?>
<!DOCTYPE svg PUBLIC "-//W3C//DTD SVG 1.1//EN"
  "http://www.w3.org/Graphics/SVG/1.1/DTD/svg11.dtd">
<svg xmlns:xlink="http://www.w3.org/1999/xlink" width="564.675625pt" height="492.760937pt" viewBox="0 0 564.675625 492.760937" xmlns="http://www.w3.org/2000/svg" version="1.1">
 <metadata>
  <rdf:RDF xmlns:dc="http://purl.org/dc/elements/1.1/" xmlns:cc="http://creativecommons.org/ns#" xmlns:rdf="http://www.w3.org/1999/02/22-rdf-syntax-ns#">
   <cc:Work>
    <dc:type rdf:resource="http://purl.org/dc/dcmitype/StillImage"/>
    <dc:date>2025-11-20T10:49:18.751508</dc:date>
    <dc:format>image/svg+xml</dc:format>
    <dc:creator>
     <cc:Agent>
      <dc:title>Matplotlib v3.10.7, https://matplotlib.org/</dc:title>
     </cc:Agent>
    </dc:creator>
   </cc:Work>
  </rdf:RDF>
 </metadata>
 <defs>
  <style type="text/css">*{stroke-linejoin: round; stroke-linecap: butt}</style>
 </defs>
 <g id="figure_1">
  <g id="patch_1">
   <path d="M 0 492.760937 
L 564.675625 492.760937 
L 564.675625 0 
L 0 0 
z
" style="fill: #ffffff"/>
  </g>
  <g id="axes_1">
   <g id="patch_2">
    <path d="M 51.455625 449.397812 
L 557.475625 449.397812 
L 557.475625 23.837812 
L 51.455625 23.837812 
z
" style="fill: #ffffff"/>
   </g>
   <g id="FillBetweenPolyCollection_1">
    <defs>
     <path id="mf1d90408fa" d="M 74.456534 -449.579489 
L 74.456534 -449.579489 
L 79.103182 -445.103021 
L 83.749831 -440.626553 
L 88.396479 -436.150085 
L 93.043127 -431.673617 
L 97.689776 -427.197149 
L 102.336424 -422.720681 
L 106.983072 -418.244213 
L 111.629721 -413.767745 
L 116.276369 -409.291277 
L 120.923017 -404.814809 
L 125.569665 -400.338341 
L 130.216314 -395.861873 
L 134.862962 -391.385405 
L 139.50961 -386.908938 
L 144.156259 -382.43247 
L 148.802907 -377.956002 
L 153.449555 -373.479534 
L 158.096204 -369.003066 
L 162.742852 -364.526598 
L 167.3895 -360.05013 
L 172.036148 -355.573662 
L 176.682797 -351.097194 
L 181.329445 -346.620726 
L 185.976093 -342.144258 
L 190.622742 -337.66779 
L 195.26939 -333.191322 
L 199.916038 -328.714854 
L 204.562687 -324.238386 
L 209.209335 -319.761918 
L 213.855983 -315.285451 
L 218.502631 -310.808983 
L 223.14928 -306.332515 
L 227.795928 -301.856047 
L 232.442576 -297.379579 
L 237.089225 -292.903111 
L 241.735873 -288.426643 
L 246.382521 -283.950175 
L 251.02917 -279.473707 
L 255.675818 -274.997239 
L 260.322466 -270.520771 
L 264.969114 -266.044303 
L 269.615763 -237.466812 
L 274.262411 -237.015071 
L 278.909059 -236.241624 
L 283.555708 -235.11868 
L 288.202356 -228.684504 
L 292.849004 -227.26698 
L 297.495653 -225.501774 
L 302.142301 -223.377587 
L 306.788949 -215.364515 
L 311.435597 -216.027853 
L 316.082246 -216.458296 
L 320.728894 -216.628203 
L 325.375542 -198.609933 
L 330.022191 -201.331275 
L 334.668839 -203.98333 
L 339.315487 -206.554832 
L 343.962136 -199.38548 
L 348.608784 -201.68761 
L 353.255432 -203.890383 
L 357.90208 -205.967077 
L 362.548729 -199.276069 
L 367.195377 -201.26124 
L 371.842025 -203.190704 
L 376.488674 -204.584319 
L 381.135322 -191.468139 
L 385.78197 -193.480291 
L 390.428619 -195.451463 
L 395.075267 -196.170931 
L 399.721915 -198.227595 
L 404.368563 -190.291957 
L 409.015212 -192.227024 
L 413.66186 -194.124849 
L 418.308508 -193.782109 
L 422.955157 -179.668302 
L 427.601805 -179.692655 
L 432.248453 -178.513471 
L 436.895102 -175.458477 
L 441.54175 -144.390318 
L 446.188398 -138.690073 
L 450.835046 -132.910538 
L 455.481695 -127.1824 
L 460.128343 -119.110779 
L 464.774991 -114.476698 
L 469.42164 -109.657961 
L 474.068288 -104.680987 
L 478.714936 -107.718491 
L 483.361585 -103.183645 
L 488.008233 -98.172565 
L 492.654881 -92.715098 
L 497.301529 -93.834244 
L 501.948178 -88.382058 
L 506.594826 -81.723054 
L 511.241474 -73.955454 
L 515.888123 -81.639521 
L 520.534771 -81.336659 
L 525.181419 -81.032082 
L 529.828068 -80.720704 
L 534.474716 -79.929707 
L 534.474716 -81.103046 
L 534.474716 -81.103046 
L 529.828068 -97.169081 
L 525.181419 -113.714736 
L 520.534771 -130.267192 
L 515.888123 -146.821363 
L 511.241474 -178.213769 
L 506.594826 -180.932996 
L 501.948178 -184.760819 
L 497.301529 -189.795461 
L 492.654881 -207.73868 
L 488.008233 -209.899904 
L 483.361585 -212.507517 
L 478.714936 -215.591363 
L 474.068288 -247.456623 
L 469.42164 -245.307024 
L 464.774991 -243.315664 
L 460.128343 -241.508959 
L 455.481695 -252.058085 
L 450.835046 -264.273911 
L 446.188398 -261.184464 
L 441.54175 -258.174306 
L 436.895102 -267.974877 
L 432.248453 -276.286463 
L 427.601805 -279.811948 
L 422.955157 -284.540971 
L 418.308508 -285.500689 
L 413.66186 -290.045015 
L 409.015212 -290.867526 
L 404.368563 -291.727278 
L 399.721915 -290.170034 
L 395.075267 -291.080661 
L 390.428619 -295.17418 
L 385.78197 -295.963256 
L 381.135322 -296.793312 
L 376.488674 -291.744226 
L 371.842025 -299.868496 
L 367.195377 -300.489234 
L 362.548729 -301.16568 
L 357.90208 -301.650227 
L 353.255432 -305.891083 
L 348.608784 -308.504834 
L 343.962136 -311.217941 
L 339.315487 -310.187675 
L 334.668839 -313.070177 
L 330.022191 -316.033232 
L 325.375542 -319.065574 
L 320.728894 -318.091426 
L 316.082246 -321.413686 
L 311.435597 -324.996484 
L 306.788949 -328.812175 
L 302.142301 -331.183536 
L 297.495653 -333.757677 
L 292.849004 -336.6908 
L 288.202356 -339.971604 
L 283.555708 -341.891132 
L 278.909059 -345.388846 
L 274.262411 -349.236057 
L 269.615763 -353.404973 
L 264.969114 -355.775583 
L 260.322466 -358.063483 
L 255.675818 -360.351383 
L 251.02917 -362.639283 
L 246.382521 -364.927183 
L 241.735873 -367.215084 
L 237.089225 -369.502984 
L 232.442576 -371.790884 
L 227.795928 -374.078784 
L 223.14928 -376.366684 
L 218.502631 -378.654584 
L 213.855983 -380.942484 
L 209.209335 -383.230385 
L 204.562687 -385.518285 
L 199.916038 -387.806185 
L 195.26939 -390.094085 
L 190.622742 -392.381985 
L 185.976093 -394.669885 
L 181.329445 -396.957785 
L 176.682797 -399.245686 
L 172.036148 -401.533586 
L 167.3895 -403.821486 
L 162.742852 -406.109386 
L 158.096204 -408.397286 
L 153.449555 -410.685186 
L 148.802907 -412.973086 
L 144.156259 -415.260987 
L 139.50961 -417.548887 
L 134.862962 -419.836787 
L 130.216314 -422.124687 
L 125.569665 -424.412587 
L 120.923017 -426.700487 
L 116.276369 -428.988387 
L 111.629721 -431.276288 
L 106.983072 -433.564188 
L 102.336424 -435.852088 
L 97.689776 -438.139988 
L 93.043127 -440.427888 
L 88.396479 -442.715788 
L 83.749831 -445.003688 
L 79.103182 -447.291588 
L 74.456534 -449.579489 
z
" style="stroke: #1f77b4; stroke-opacity: 0.2"/>
    </defs>
    <g clip-path="url(#p0781965bb4)">
     <use xlink:href="#mf1d90408fa" x="0" y="492.760937" style="fill: #1f77b4; fill-opacity: 0.2; stroke: #1f77b4; stroke-opacity: 0.2"/>
    </g>
   </g>
   <g id="FillBetweenPolyCollection_2">
    <defs>
     <path id="m0df0876b02" d="M 74.456534 -449.579489 
L 74.456534 -449.579489 
L 79.103182 -449.579489 
L 83.749831 -449.579489 
L 88.396479 -449.579489 
L 93.043127 -449.579489 
L 97.689776 -449.579489 
L 102.336424 -449.579489 
L 106.983072 -449.579489 
L 111.629721 -449.579489 
L 116.276369 -449.579489 
L 120.923017 -449.579489 
L 125.569665 -449.579489 
L 130.216314 -449.579489 
L 134.862962 -449.579489 
L 139.50961 -449.579489 
L 144.156259 -449.579489 
L 148.802907 -449.579489 
L 153.449555 -449.579489 
L 158.096204 -449.579489 
L 162.742852 -449.579489 
L 167.3895 -449.579489 
L 172.036148 -449.579489 
L 176.682797 -449.579489 
L 181.329445 -449.579489 
L 185.976093 -449.579489 
L 190.622742 -449.579489 
L 195.26939 -449.579489 
L 199.916038 -449.579489 
L 204.562687 -449.579489 
L 209.209335 -402.154363 
L 213.855983 -403.436123 
L 218.502631 -404.717883 
L 223.14928 -405.999644 
L 227.795928 -359.125207 
L 232.442576 -361.182507 
L 237.089225 -363.239665 
L 241.735873 -365.296672 
L 246.382521 -367.353517 
L 251.02917 -341.77419 
L 255.675818 -343.991265 
L 260.322466 -346.208341 
L 264.969114 -348.425416 
L 269.615763 -335.419743 
L 274.262411 -337.495905 
L 278.909059 -344.374722 
L 283.555708 -346.355427 
L 288.202356 -342.621814 
L 292.849004 -344.267264 
L 297.495653 -345.92404 
L 302.142301 -347.586778 
L 306.788949 -315.958984 
L 311.435597 -317.694181 
L 316.082246 -319.436609 
L 320.728894 -321.192563 
L 325.375542 -269.717165 
L 330.022191 -271.510404 
L 334.668839 -276.51916 
L 339.315487 -278.258122 
L 343.962136 -269.38512 
L 348.608784 -271.097908 
L 353.255432 -272.810565 
L 357.90208 -279.267111 
L 362.548729 -242.02005 
L 367.195377 -243.724039 
L 371.842025 -245.427908 
L 376.488674 -247.137149 
L 381.135322 -203.996631 
L 385.78197 -205.529483 
L 390.428619 -207.062079 
L 395.075267 -210.58886 
L 399.721915 -212.112819 
L 404.368563 -154.945477 
L 409.015212 -156.303262 
L 413.66186 -157.66037 
L 418.308508 -160.871575 
L 422.955157 -136.006959 
L 427.601805 -137.150745 
L 432.248453 -138.294096 
L 436.895102 -142.72294 
L 441.54175 -110.671462 
L 446.188398 -111.693366 
L 450.835046 -112.714708 
L 455.481695 -113.742887 
L 460.128343 -106.665473 
L 464.774991 -107.650152 
L 469.42164 -108.634334 
L 474.068288 -109.618018 
L 478.714936 -62.706761 
L 483.361585 -62.706761 
L 488.008233 -62.706761 
L 492.654881 -62.706761 
L 497.301529 -62.706761 
L 501.948178 -62.706761 
L 506.594826 -62.706761 
L 511.241474 -62.706761 
L 515.888123 -62.706761 
L 520.534771 -62.706761 
L 525.181419 -62.706761 
L 529.828068 -62.706761 
L 534.474716 -79.929707 
L 534.474716 -81.103046 
L 534.474716 -81.103046 
L 529.828068 -253.759328 
L 525.181419 -252.756821 
L 520.534771 -251.754357 
L 515.888123 -250.751935 
L 511.241474 -292.071801 
L 506.594826 -290.895134 
L 501.948178 -289.718838 
L 497.301529 -288.542918 
L 492.654881 -385.721712 
L 488.008233 -384.541531 
L 483.361585 -383.362505 
L 478.714936 -382.184641 
L 474.068288 -363.957094 
L 469.42164 -362.932779 
L 464.774991 -361.908962 
L 460.128343 -360.885642 
L 455.481695 -360.664528 
L 450.835046 -359.570216 
L 446.188398 -358.462832 
L 441.54175 -357.35601 
L 436.895102 -390.681423 
L 432.248453 -397.516424 
L 427.601805 -396.421575 
L 422.955157 -395.327164 
L 418.308508 -427.516331 
L 413.66186 -433.698534 
L 409.015212 -432.828958 
L 404.368563 -431.96006 
L 399.721915 -422.772407 
L 395.075267 -421.966747 
L 390.428619 -429.068372 
L 385.78197 -428.281997 
L 381.135322 -427.495878 
L 376.488674 -418.548304 
L 371.842025 -417.850604 
L 367.195377 -417.12925 
L 362.548729 -416.408015 
L 357.90208 -416.028719 
L 353.255432 -435.164003 
L 348.608784 -434.599701 
L 343.962136 -434.035531 
L 339.315487 -449.579489 
L 334.668839 -449.579489 
L 330.022191 -449.579489 
L 325.375542 -449.579489 
L 320.728894 -446.027832 
L 316.082246 -445.744585 
L 311.435597 -445.42634 
L 306.788949 -445.089414 
L 302.142301 -443.407011 
L 297.495653 -443.149055 
L 292.849004 -442.870563 
L 288.202356 -442.553418 
L 283.555708 -449.579489 
L 278.909059 -449.579489 
L 274.262411 -449.579489 
L 269.615763 -449.579489 
L 264.969114 -449.579489 
L 260.322466 -449.579489 
L 255.675818 -449.579489 
L 251.02917 -449.579489 
L 246.382521 -449.579489 
L 241.735873 -449.579489 
L 237.089225 -449.579489 
L 232.442576 -449.579489 
L 227.795928 -449.579489 
L 223.14928 -449.579489 
L 218.502631 -449.579489 
L 213.855983 -449.579489 
L 209.209335 -449.579489 
L 204.562687 -449.579489 
L 199.916038 -449.579489 
L 195.26939 -449.579489 
L 190.622742 -449.579489 
L 185.976093 -449.579489 
L 181.329445 -449.579489 
L 176.682797 -449.579489 
L 172.036148 -449.579489 
L 167.3895 -449.579489 
L 162.742852 -449.579489 
L 158.096204 -449.579489 
L 153.449555 -449.579489 
L 148.802907 -449.579489 
L 144.156259 -449.579489 
L 139.50961 -449.579489 
L 134.862962 -449.579489 
L 130.216314 -449.579489 
L 125.569665 -449.579489 
L 120.923017 -449.579489 
L 116.276369 -449.579489 
L 111.629721 -449.579489 
L 106.983072 -449.579489 
L 102.336424 -449.579489 
L 97.689776 -449.579489 
L 93.043127 -449.579489 
L 88.396479 -449.579489 
L 83.749831 -449.579489 
L 79.103182 -449.579489 
L 74.456534 -449.579489 
z
" style="stroke: #2ca02c; stroke-opacity: 0.2"/>
    </defs>
    <g clip-path="url(#p0781965bb4)">
     <use xlink:href="#m0df0876b02" x="0" y="492.760937" style="fill: #2ca02c; fill-opacity: 0.2; stroke: #2ca02c; stroke-opacity: 0.2"/>
    </g>
   </g>
   <g id="FillBetweenPolyCollection_3">
    <defs>
     <path id="m684c272086" d="M 74.456534 -449.579489 
L 74.456534 -449.579489 
L 79.103182 -449.579489 
L 83.749831 -449.579489 
L 88.396479 -449.579489 
L 93.043127 -449.579489 
L 97.689776 -269.492188 
L 102.336424 -284.23243 
L 106.983072 -298.972671 
L 111.629721 -313.712913 
L 116.276369 -325.569194 
L 120.923017 -332.939315 
L 125.569665 -340.309436 
L 130.216314 -347.679557 
L 134.862962 -297.819087 
L 139.50961 -303.715184 
L 144.156259 -309.611281 
L 148.802907 -315.507377 
L 153.449555 -303.832708 
L 158.096204 -309.22768 
L 162.742852 -314.302445 
L 167.3895 -319.374631 
L 172.036148 -271.596538 
L 176.682797 -276.907261 
L 181.329445 -281.922153 
L 185.976093 -286.935554 
L 190.622742 -276.178205 
L 195.26939 -280.435379 
L 199.916038 -284.453708 
L 204.562687 -288.470199 
L 209.209335 -292.420438 
L 213.855983 -295.91818 
L 218.502631 -299.242801 
L 223.14928 -302.540773 
L 227.795928 -299.678083 
L 232.442576 -302.716146 
L 237.089225 -305.685557 
L 241.735873 -308.602562 
L 246.382521 -311.518872 
L 251.02917 -310.545579 
L 255.675818 -312.827349 
L 260.322466 -315.119649 
L 264.969114 -317.411773 
L 269.615763 -277.969563 
L 274.262411 -280.192245 
L 278.909059 -278.402956 
L 283.555708 -280.668301 
L 288.202356 -272.553544 
L 292.849004 -274.673785 
L 297.495653 -264.214636 
L 302.142301 -266.384068 
L 306.788949 -235.511538 
L 311.435597 -237.636024 
L 316.082246 -225.289065 
L 320.728894 -227.432901 
L 325.375542 -239.016559 
L 330.022191 -240.867839 
L 334.668839 -242.716008 
L 339.315487 -244.500273 
L 343.962136 -244.911891 
L 348.608784 -246.587227 
L 353.255432 -248.262406 
L 357.90208 -249.908521 
L 362.548729 -212.016198 
L 367.195377 -213.469274 
L 371.842025 -214.922288 
L 376.488674 -215.615118 
L 381.135322 -218.242738 
L 385.78197 -219.620807 
L 390.428619 -220.998841 
L 395.075267 -221.444798 
L 399.721915 -222.816092 
L 404.368563 -188.936433 
L 409.015212 -190.147257 
L 413.66186 -191.358005 
L 418.308508 -192.566841 
L 422.955157 -144.754767 
L 427.601805 -145.923842 
L 432.248453 -147.092884 
L 436.895102 -148.271548 
L 441.54175 -128.327514 
L 446.188398 -129.389971 
L 450.835046 -130.45238 
L 455.481695 -131.518434 
L 460.128343 -95.653681 
L 464.774991 -96.480149 
L 469.42164 -97.306428 
L 474.068288 -98.132518 
L 478.714936 -62.706761 
L 483.361585 -62.706761 
L 488.008233 -62.706761 
L 492.654881 -62.706761 
L 497.301529 -62.706761 
L 501.948178 -62.706761 
L 506.594826 -62.706761 
L 511.241474 -62.706761 
L 515.888123 -62.706761 
L 520.534771 -62.706761 
L 525.181419 -62.706761 
L 529.828068 -62.706761 
L 534.474716 -79.929707 
L 534.474716 -81.103046 
L 534.474716 -81.103046 
L 529.828068 -211.611632 
L 525.181419 -210.623552 
L 520.534771 -209.635531 
L 515.888123 -208.64757 
L 511.241474 -261.844227 
L 506.594826 -260.762308 
L 501.948178 -259.680492 
L 497.301529 -258.598782 
L 492.654881 -299.710849 
L 488.008233 -298.429353 
L 483.361585 -297.148091 
L 478.714936 -295.867066 
L 474.068288 -318.050884 
L 469.42164 -316.926357 
L 464.774991 -315.802019 
L 460.128343 -314.67787 
L 455.481695 -357.469986 
L 450.835046 -356.356384 
L 446.188398 -355.232764 
L 441.54175 -354.109191 
L 436.895102 -347.583254 
L 432.248453 -346.41808 
L 427.601805 -345.226344 
L 422.955157 -344.03464 
L 418.308508 -365.270012 
L 413.66186 -363.987215 
L 409.015212 -362.676528 
L 404.368563 -361.365918 
L 399.721915 -354.840361 
L 395.075267 -353.551309 
L 390.428619 -354.837881 
L 385.78197 -353.525572 
L 381.135322 -352.213298 
L 376.488674 -359.96294 
L 371.842025 -361.691979 
L 367.195377 -360.298099 
L 362.548729 -358.904279 
L 357.90208 -362.425799 
L 353.255432 -361.127576 
L 348.608784 -359.819029 
L 343.962136 -358.510639 
L 339.315487 -384.985365 
L 334.668839 -383.746181 
L 330.022191 -382.512648 
L 325.375542 -381.279578 
L 320.728894 -420.91105 
L 316.082246 -420.020964 
L 311.435597 -419.375107 
L 306.788949 -418.461093 
L 302.142301 -427.850574 
L 297.495653 -427.027071 
L 292.849004 -426.932893 
L 288.202356 -426.08034 
L 283.555708 -419.357144 
L 278.909059 -418.342433 
L 274.262411 -431.70169 
L 269.615763 -430.784389 
L 264.969114 -415.2773 
L 260.322466 -414.27323 
L 255.675818 -413.269336 
L 251.02917 -412.174387 
L 246.382521 -449.579489 
L 241.735873 -449.579489 
L 237.089225 -449.579489 
L 232.442576 -449.579489 
L 227.795928 -449.579489 
L 223.14928 -449.579489 
L 218.502631 -449.579489 
L 213.855983 -449.579489 
L 209.209335 -449.579489 
L 204.562687 -449.579489 
L 199.916038 -449.579489 
L 195.26939 -449.579489 
L 190.622742 -449.579489 
L 185.976093 -449.579489 
L 181.329445 -449.579489 
L 176.682797 -449.579489 
L 172.036148 -449.579489 
L 167.3895 -449.579489 
L 162.742852 -449.579489 
L 158.096204 -449.579489 
L 153.449555 -449.579489 
L 148.802907 -449.579489 
L 144.156259 -449.579489 
L 139.50961 -449.579489 
L 134.862962 -449.579489 
L 130.216314 -449.579489 
L 125.569665 -449.579489 
L 120.923017 -449.579489 
L 116.276369 -449.579489 
L 111.629721 -449.579489 
L 106.983072 -449.579489 
L 102.336424 -449.579489 
L 97.689776 -449.579489 
L 93.043127 -449.579489 
L 88.396479 -449.579489 
L 83.749831 -449.579489 
L 79.103182 -449.579489 
L 74.456534 -449.579489 
z
" style="stroke: #8c564b; stroke-opacity: 0.2"/>
    </defs>
    <g clip-path="url(#p0781965bb4)">
     <use xlink:href="#m684c272086" x="0" y="492.760937" style="fill: #8c564b; fill-opacity: 0.2; stroke: #8c564b; stroke-opacity: 0.2"/>
    </g>
   </g>
   <g id="FillBetweenPolyCollection_4">
    <defs>
     <path id="m2a924d2328" d="M 74.456534 -449.579489 
L 74.456534 -449.579489 
L 79.103182 -449.579489 
L 83.749831 -449.579489 
L 88.396479 -449.579489 
L 93.043127 -449.579489 
L 97.689776 -449.579489 
L 102.336424 -449.579489 
L 106.983072 -449.579489 
L 111.629721 -449.579489 
L 116.276369 -262.698859 
L 120.923017 -271.543004 
L 125.569665 -280.387149 
L 130.216314 -289.231294 
L 134.862962 -297.819087 
L 139.50961 -303.715184 
L 144.156259 -309.611281 
L 148.802907 -315.507377 
L 153.449555 -321.403474 
L 158.096204 -325.981189 
L 162.742852 -330.192686 
L 167.3895 -334.404184 
L 172.036148 -338.615682 
L 176.682797 -342.323631 
L 181.329445 -345.482254 
L 185.976093 -348.640877 
L 190.622742 -351.7995 
L 195.26939 -354.836051 
L 199.916038 -357.292758 
L 204.562687 -359.749465 
L 209.209335 -351.763181 
L 213.855983 -354.491071 
L 218.502631 -356.84121 
L 223.14928 -359.134299 
L 227.795928 -356.830613 
L 232.442576 -359.121103 
L 237.089225 -361.245977 
L 241.735873 -363.243124 
L 246.382521 -365.239813 
L 251.02917 -355.195059 
L 255.675818 -357.210625 
L 260.322466 -359.100305 
L 264.969114 -360.989694 
L 269.615763 -245.798695 
L 274.262411 -248.135655 
L 278.909059 -250.465738 
L 283.555708 -252.794953 
L 288.202356 -254.189657 
L 292.849004 -256.295843 
L 297.495653 -259.255613 
L 302.142301 -261.353467 
L 306.788949 -265.422652 
L 311.435597 -267.30152 
L 316.082246 -269.184081 
L 320.728894 -271.07356 
L 325.375542 -262.349518 
L 330.022191 -264.117396 
L 334.668839 -264.732385 
L 339.315487 -266.506783 
L 343.962136 -245.076967 
L 348.608784 -246.739428 
L 353.255432 -248.401801 
L 357.90208 -250.677683 
L 362.548729 -255.08496 
L 367.195377 -256.60753 
L 371.842025 -258.130072 
L 376.488674 -255.880211 
L 381.135322 -256.207934 
L 385.78197 -257.676581 
L 390.428619 -259.145151 
L 395.075267 -260.610166 
L 399.721915 -262.051922 
L 404.368563 -186.0029 
L 409.015212 -187.200198 
L 413.66186 -188.397442 
L 418.308508 -190.446996 
L 422.955157 -149.864813 
L 427.601805 -150.964054 
L 432.248453 -152.063132 
L 436.895102 -154.748293 
L 441.54175 -122.916693 
L 446.188398 -123.850244 
L 450.835046 -124.783614 
L 455.481695 -127.345454 
L 460.128343 -94.397432 
L 464.774991 -95.048541 
L 469.42164 -95.699359 
L 474.068288 -96.349885 
L 478.714936 -62.706761 
L 483.361585 -62.706761 
L 488.008233 -62.706761 
L 492.654881 -62.706761 
L 497.301529 -62.706761 
L 501.948178 -62.706761 
L 506.594826 -62.706761 
L 511.241474 -62.706761 
L 515.888123 -62.706761 
L 520.534771 -62.706761 
L 525.181419 -62.706761 
L 529.828068 -62.706761 
L 534.474716 -79.929707 
L 534.474716 -81.103046 
L 534.474716 -81.103046 
L 529.828068 -176.872192 
L 525.181419 -176.009597 
L 520.534771 -175.147021 
L 515.888123 -174.284465 
L 511.241474 -279.441006 
L 506.594826 -278.397839 
L 501.948178 -277.354732 
L 497.301529 -276.311688 
L 492.654881 -292.159613 
L 488.008233 -291.026981 
L 483.361585 -289.894537 
L 478.714936 -288.762284 
L 474.068288 -349.240931 
L 469.42164 -347.926133 
L 464.774991 -346.611626 
L 460.128343 -345.297412 
L 455.481695 -343.947659 
L 450.835046 -347.301621 
L 446.188398 -346.058537 
L 441.54175 -344.815633 
L 436.895102 -343.343437 
L 432.248453 -346.870319 
L 427.601805 -345.59734 
L 422.955157 -344.324524 
L 418.308508 -350.711414 
L 413.66186 -353.712001 
L 409.015212 -352.359732 
L 404.368563 -351.007519 
L 399.721915 -349.349745 
L 395.075267 -348.182534 
L 390.428619 -347.002955 
L 385.78197 -345.821588 
L 381.135322 -344.640297 
L 376.488674 -350.120286 
L 371.842025 -357.752867 
L 367.195377 -356.500205 
L 362.548729 -355.247571 
L 357.90208 -376.160738 
L 353.255432 -386.454511 
L 348.608784 -385.289317 
L 343.962136 -384.12421 
L 339.315487 -414.762443 
L 334.668839 -413.866023 
L 330.022191 -425.853499 
L 325.375542 -425.026773 
L 320.728894 -423.52615 
L 316.082246 -422.646335 
L 311.435597 -421.717732 
L 306.788949 -420.763105 
L 302.142301 -438.544519 
L 297.495653 -437.739806 
L 292.849004 -447.168297 
L 288.202356 -446.424592 
L 283.555708 -449.579489 
L 278.909059 -449.579489 
L 274.262411 -449.579489 
L 269.615763 -449.579489 
L 264.969114 -449.579489 
L 260.322466 -449.579489 
L 255.675818 -449.579489 
L 251.02917 -449.579489 
L 246.382521 -449.579489 
L 241.735873 -449.579489 
L 237.089225 -449.579489 
L 232.442576 -449.579489 
L 227.795928 -449.579489 
L 223.14928 -449.579489 
L 218.502631 -449.579489 
L 213.855983 -449.579489 
L 209.209335 -449.579489 
L 204.562687 -449.579489 
L 199.916038 -449.579489 
L 195.26939 -449.579489 
L 190.622742 -449.579489 
L 185.976093 -449.579489 
L 181.329445 -449.579489 
L 176.682797 -449.579489 
L 172.036148 -449.579489 
L 167.3895 -449.579489 
L 162.742852 -449.579489 
L 158.096204 -449.579489 
L 153.449555 -449.579489 
L 148.802907 -449.579489 
L 144.156259 -449.579489 
L 139.50961 -449.579489 
L 134.862962 -449.579489 
L 130.216314 -449.579489 
L 125.569665 -449.579489 
L 120.923017 -449.579489 
L 116.276369 -449.579489 
L 111.629721 -449.579489 
L 106.983072 -449.579489 
L 102.336424 -449.579489 
L 97.689776 -449.579489 
L 93.043127 -449.579489 
L 88.396479 -449.579489 
L 83.749831 -449.579489 
L 79.103182 -449.579489 
L 74.456534 -449.579489 
z
" style="stroke: #7f7f7f; stroke-opacity: 0.2"/>
    </defs>
    <g clip-path="url(#p0781965bb4)">
     <use xlink:href="#m2a924d2328" x="0" y="492.760937" style="fill: #7f7f7f; fill-opacity: 0.2; stroke: #7f7f7f; stroke-opacity: 0.2"/>
    </g>
   </g>
   <g id="FillBetweenPolyCollection_5">
    <defs>
     <path id="ma4daa1ec15" d="M 74.456534 -449.579489 
L 74.456534 -449.579489 
L 79.103182 -449.579489 
L 83.749831 -449.579489 
L 88.396479 -449.579489 
L 93.043127 -449.579489 
L 97.689776 -449.579489 
L 102.336424 -449.579489 
L 106.983072 -449.579489 
L 111.629721 -449.579489 
L 116.276369 -449.579489 
L 120.923017 -449.579489 
L 125.569665 -449.579489 
L 130.216314 -449.579489 
L 134.862962 -449.579489 
L 139.50961 -449.579489 
L 144.156259 -449.579489 
L 148.802907 -449.579489 
L 153.449555 -374.981048 
L 158.096204 -349.103602 
L 162.742852 -353.264912 
L 167.3895 -357.425904 
L 172.036148 -349.013905 
L 176.682797 -352.687608 
L 181.329445 -356.120799 
L 185.976093 -359.553728 
L 190.622742 -362.844261 
L 195.26939 -365.657413 
L 199.916038 -368.232266 
L 204.562687 -370.806948 
L 209.209335 -348.29446 
L 213.855983 -350.938809 
L 218.502631 -353.472025 
L 223.14928 -355.988524 
L 227.795928 -336.328506 
L 232.442576 -338.726984 
L 237.089225 -341.100893 
L 241.735873 -343.456148 
L 246.382521 -345.810985 
L 251.02917 -326.648325 
L 255.675818 -328.827318 
L 260.322466 -331.028945 
L 264.969114 -333.230329 
L 269.615763 -257.022823 
L 274.262411 -259.455657 
L 278.909059 -261.923298 
L 283.555708 -264.391667 
L 288.202356 -257.329069 
L 292.849004 -259.543388 
L 297.495653 -268.405726 
L 302.142301 -270.505793 
L 306.788949 -262.267584 
L 311.435597 -264.192828 
L 316.082246 -269.184081 
L 320.728894 -271.07356 
L 325.375542 -252.152088 
L 330.022191 -253.947313 
L 334.668839 -257.339879 
L 339.315487 -259.10674 
L 343.962136 -251.841771 
L 348.608784 -253.526087 
L 353.255432 -255.210195 
L 357.90208 -256.88112 
L 362.548729 -258.535299 
L 367.195377 -260.10501 
L 371.842025 -261.674562 
L 376.488674 -260.939521 
L 381.135322 -229.495395 
L 385.78197 -230.975156 
L 390.428619 -232.454829 
L 395.075267 -233.934836 
L 399.721915 -235.417567 
L 404.368563 -233.665054 
L 409.015212 -235.073824 
L 413.66186 -236.482535 
L 418.308508 -240.275115 
L 422.955157 -148.414447 
L 427.601805 -149.429631 
L 432.248453 -150.444595 
L 436.895102 -154.137883 
L 441.54175 -152.487185 
L 446.188398 -153.438617 
L 450.835046 -154.389899 
L 455.481695 -156.245012 
L 460.128343 -136.730836 
L 464.774991 -137.6001 
L 469.42164 -138.469221 
L 474.068288 -139.3382 
L 478.714936 -91.55329 
L 483.361585 -92.249488 
L 488.008233 -92.945542 
L 492.654881 -93.641451 
L 497.301529 -62.706761 
L 501.948178 -62.706761 
L 506.594826 -62.706761 
L 511.241474 -62.706761 
L 515.888123 -62.706761 
L 520.534771 -62.706761 
L 525.181419 -62.706761 
L 529.828068 -62.706761 
L 534.474716 -79.929707 
L 534.474716 -81.103046 
L 534.474716 -81.103046 
L 529.828068 -187.519266 
L 525.181419 -186.643011 
L 520.534771 -185.766768 
L 515.888123 -184.890536 
L 511.241474 -288.040358 
L 506.594826 -286.974548 
L 501.948178 -285.908886 
L 497.301529 -284.843372 
L 492.654881 -299.678259 
L 488.008233 -298.565054 
L 483.361585 -297.451994 
L 478.714936 -296.339078 
L 474.068288 -325.545128 
L 469.42164 -324.298461 
L 464.774991 -323.051936 
L 460.128343 -321.805553 
L 455.481695 -340.629847 
L 450.835046 -343.016134 
L 446.188398 -341.709378 
L 441.54175 -340.402771 
L 436.895102 -367.193841 
L 432.248453 -381.892027 
L 427.601805 -380.605474 
L 422.955157 -379.319139 
L 418.308508 -358.808073 
L 413.66186 -368.567038 
L 409.015212 -367.514431 
L 404.368563 -366.461885 
L 399.721915 -385.692435 
L 395.075267 -384.678572 
L 390.428619 -383.625945 
L 385.78197 -382.567578 
L 381.135322 -381.509299 
L 376.488674 -400.124549 
L 371.842025 -401.943123 
L 367.195377 -401.034908 
L 362.548729 -400.126851 
L 357.90208 -399.142757 
L 353.255432 -398.138375 
L 348.608784 -397.107217 
L 343.962136 -396.076268 
L 339.315487 -393.986326 
L 334.668839 -392.85961 
L 330.022191 -413.324398 
L 325.375542 -412.344309 
L 320.728894 -423.52615 
L 316.082246 -422.646335 
L 311.435597 -433.746526 
L 306.788949 -432.956798 
L 302.142301 -433.316402 
L 297.495653 -432.512278 
L 292.849004 -449.424903 
L 288.202356 -448.857745 
L 283.555708 -449.579489 
L 278.909059 -449.579489 
L 274.262411 -449.579489 
L 269.615763 -449.579489 
L 264.969114 -440.751923 
L 260.322466 -440.324107 
L 255.675818 -439.896535 
L 251.02917 -439.392645 
L 246.382521 -449.579489 
L 241.735873 -449.579489 
L 237.089225 -449.579489 
L 232.442576 -449.579489 
L 227.795928 -449.579489 
L 223.14928 -449.579489 
L 218.502631 -449.579489 
L 213.855983 -449.579489 
L 209.209335 -449.579489 
L 204.562687 -449.579489 
L 199.916038 -449.579489 
L 195.26939 -449.579489 
L 190.622742 -449.579489 
L 185.976093 -449.579489 
L 181.329445 -449.579489 
L 176.682797 -449.579489 
L 172.036148 -449.579489 
L 167.3895 -449.579489 
L 162.742852 -449.579489 
L 158.096204 -449.579489 
L 153.449555 -449.579489 
L 148.802907 -449.579489 
L 144.156259 -449.579489 
L 139.50961 -449.579489 
L 134.862962 -449.579489 
L 130.216314 -449.579489 
L 125.569665 -449.579489 
L 120.923017 -449.579489 
L 116.276369 -449.579489 
L 111.629721 -449.579489 
L 106.983072 -449.579489 
L 102.336424 -449.579489 
L 97.689776 -449.579489 
L 93.043127 -449.579489 
L 88.396479 -449.579489 
L 83.749831 -449.579489 
L 79.103182 -449.579489 
L 74.456534 -449.579489 
z
" style="stroke: #17becf; stroke-opacity: 0.2"/>
    </defs>
    <g clip-path="url(#p0781965bb4)">
     <use xlink:href="#ma4daa1ec15" x="0" y="492.760937" style="fill: #17becf; fill-opacity: 0.2; stroke: #17becf; stroke-opacity: 0.2"/>
    </g>
   </g>
   <g id="matplotlib.axis_1">
    <g id="xtick_1">
     <g id="line2d_1">
      <path d="M 74.456534 449.397812 
L 74.456534 23.837812 
" clip-path="url(#p0781965bb4)" style="fill: none; stroke: #b0b0b0; stroke-opacity: 0.3; stroke-width: 0.8; stroke-linecap: square"/>
     </g>
     <g id="line2d_2">
      <defs>
       <path id="mee250ecb4b" d="M 0 0 
L 0 3.5 
" style="stroke: #000000; stroke-width: 0.8"/>
      </defs>
      <g>
       <use xlink:href="#mee250ecb4b" x="74.456534" y="449.397812" style="stroke: #000000; stroke-width: 0.8"/>
      </g>
     </g>
     <g id="text_1">
      <!-- 0.0 -->
      <g transform="translate(64.119503 466.275781) scale(0.13 -0.13)">
       <defs>
        <path id="DejaVuSans-30" d="M 2034 4250 
Q 1547 4250 1301 3770 
Q 1056 3291 1056 2328 
Q 1056 1369 1301 889 
Q 1547 409 2034 409 
Q 2525 409 2770 889 
Q 3016 1369 3016 2328 
Q 3016 3291 2770 3770 
Q 2525 4250 2034 4250 
z
M 2034 4750 
Q 2819 4750 3233 4129 
Q 3647 3509 3647 2328 
Q 3647 1150 3233 529 
Q 2819 -91 2034 -91 
Q 1250 -91 836 529 
Q 422 1150 422 2328 
Q 422 3509 836 4129 
Q 1250 4750 2034 4750 
z
" transform="scale(0.015625)"/>
        <path id="DejaVuSans-2e" d="M 684 794 
L 1344 794 
L 1344 0 
L 684 0 
L 684 794 
z
" transform="scale(0.015625)"/>
       </defs>
       <use xlink:href="#DejaVuSans-30"/>
       <use xlink:href="#DejaVuSans-2e" transform="translate(63.623047 0)"/>
       <use xlink:href="#DejaVuSans-30" transform="translate(95.410156 0)"/>
      </g>
     </g>
    </g>
    <g id="xtick_2">
     <g id="line2d_3">
      <path d="M 166.46017 449.397812 
L 166.46017 23.837812 
" clip-path="url(#p0781965bb4)" style="fill: none; stroke: #b0b0b0; stroke-opacity: 0.3; stroke-width: 0.8; stroke-linecap: square"/>
     </g>
     <g id="line2d_4">
      <g>
       <use xlink:href="#mee250ecb4b" x="166.46017" y="449.397812" style="stroke: #000000; stroke-width: 0.8"/>
      </g>
     </g>
     <g id="text_2">
      <!-- 0.2 -->
      <g transform="translate(156.123139 466.275781) scale(0.13 -0.13)">
       <defs>
        <path id="DejaVuSans-32" d="M 1228 531 
L 3431 531 
L 3431 0 
L 469 0 
L 469 531 
Q 828 903 1448 1529 
Q 2069 2156 2228 2338 
Q 2531 2678 2651 2914 
Q 2772 3150 2772 3378 
Q 2772 3750 2511 3984 
Q 2250 4219 1831 4219 
Q 1534 4219 1204 4116 
Q 875 4013 500 3803 
L 500 4441 
Q 881 4594 1212 4672 
Q 1544 4750 1819 4750 
Q 2544 4750 2975 4387 
Q 3406 4025 3406 3419 
Q 3406 3131 3298 2873 
Q 3191 2616 2906 2266 
Q 2828 2175 2409 1742 
Q 1991 1309 1228 531 
z
" transform="scale(0.015625)"/>
       </defs>
       <use xlink:href="#DejaVuSans-30"/>
       <use xlink:href="#DejaVuSans-2e" transform="translate(63.623047 0)"/>
       <use xlink:href="#DejaVuSans-32" transform="translate(95.410156 0)"/>
      </g>
     </g>
    </g>
    <g id="xtick_3">
     <g id="line2d_5">
      <path d="M 258.463807 449.397812 
L 258.463807 23.837812 
" clip-path="url(#p0781965bb4)" style="fill: none; stroke: #b0b0b0; stroke-opacity: 0.3; stroke-width: 0.8; stroke-linecap: square"/>
     </g>
     <g id="line2d_6">
      <g>
       <use xlink:href="#mee250ecb4b" x="258.463807" y="449.397812" style="stroke: #000000; stroke-width: 0.8"/>
      </g>
     </g>
     <g id="text_3">
      <!-- 0.4 -->
      <g transform="translate(248.126776 466.275781) scale(0.13 -0.13)">
       <defs>
        <path id="DejaVuSans-34" d="M 2419 4116 
L 825 1625 
L 2419 1625 
L 2419 4116 
z
M 2253 4666 
L 3047 4666 
L 3047 1625 
L 3713 1625 
L 3713 1100 
L 3047 1100 
L 3047 0 
L 2419 0 
L 2419 1100 
L 313 1100 
L 313 1709 
L 2253 4666 
z
" transform="scale(0.015625)"/>
       </defs>
       <use xlink:href="#DejaVuSans-30"/>
       <use xlink:href="#DejaVuSans-2e" transform="translate(63.623047 0)"/>
       <use xlink:href="#DejaVuSans-34" transform="translate(95.410156 0)"/>
      </g>
     </g>
    </g>
    <g id="xtick_4">
     <g id="line2d_7">
      <path d="M 350.467443 449.397812 
L 350.467443 23.837812 
" clip-path="url(#p0781965bb4)" style="fill: none; stroke: #b0b0b0; stroke-opacity: 0.3; stroke-width: 0.8; stroke-linecap: square"/>
     </g>
     <g id="line2d_8">
      <g>
       <use xlink:href="#mee250ecb4b" x="350.467443" y="449.397812" style="stroke: #000000; stroke-width: 0.8"/>
      </g>
     </g>
     <g id="text_4">
      <!-- 0.6 -->
      <g transform="translate(340.130412 466.275781) scale(0.13 -0.13)">
       <defs>
        <path id="DejaVuSans-36" d="M 2113 2584 
Q 1688 2584 1439 2293 
Q 1191 2003 1191 1497 
Q 1191 994 1439 701 
Q 1688 409 2113 409 
Q 2538 409 2786 701 
Q 3034 994 3034 1497 
Q 3034 2003 2786 2293 
Q 2538 2584 2113 2584 
z
M 3366 4563 
L 3366 3988 
Q 3128 4100 2886 4159 
Q 2644 4219 2406 4219 
Q 1781 4219 1451 3797 
Q 1122 3375 1075 2522 
Q 1259 2794 1537 2939 
Q 1816 3084 2150 3084 
Q 2853 3084 3261 2657 
Q 3669 2231 3669 1497 
Q 3669 778 3244 343 
Q 2819 -91 2113 -91 
Q 1303 -91 875 529 
Q 447 1150 447 2328 
Q 447 3434 972 4092 
Q 1497 4750 2381 4750 
Q 2619 4750 2861 4703 
Q 3103 4656 3366 4563 
z
" transform="scale(0.015625)"/>
       </defs>
       <use xlink:href="#DejaVuSans-30"/>
       <use xlink:href="#DejaVuSans-2e" transform="translate(63.623047 0)"/>
       <use xlink:href="#DejaVuSans-36" transform="translate(95.410156 0)"/>
      </g>
     </g>
    </g>
    <g id="xtick_5">
     <g id="line2d_9">
      <path d="M 442.47108 449.397812 
L 442.47108 23.837812 
" clip-path="url(#p0781965bb4)" style="fill: none; stroke: #b0b0b0; stroke-opacity: 0.3; stroke-width: 0.8; stroke-linecap: square"/>
     </g>
     <g id="line2d_10">
      <g>
       <use xlink:href="#mee250ecb4b" x="442.47108" y="449.397812" style="stroke: #000000; stroke-width: 0.8"/>
      </g>
     </g>
     <g id="text_5">
      <!-- 0.8 -->
      <g transform="translate(432.134048 466.275781) scale(0.13 -0.13)">
       <defs>
        <path id="DejaVuSans-38" d="M 2034 2216 
Q 1584 2216 1326 1975 
Q 1069 1734 1069 1313 
Q 1069 891 1326 650 
Q 1584 409 2034 409 
Q 2484 409 2743 651 
Q 3003 894 3003 1313 
Q 3003 1734 2745 1975 
Q 2488 2216 2034 2216 
z
M 1403 2484 
Q 997 2584 770 2862 
Q 544 3141 544 3541 
Q 544 4100 942 4425 
Q 1341 4750 2034 4750 
Q 2731 4750 3128 4425 
Q 3525 4100 3525 3541 
Q 3525 3141 3298 2862 
Q 3072 2584 2669 2484 
Q 3125 2378 3379 2068 
Q 3634 1759 3634 1313 
Q 3634 634 3220 271 
Q 2806 -91 2034 -91 
Q 1263 -91 848 271 
Q 434 634 434 1313 
Q 434 1759 690 2068 
Q 947 2378 1403 2484 
z
M 1172 3481 
Q 1172 3119 1398 2916 
Q 1625 2713 2034 2713 
Q 2441 2713 2670 2916 
Q 2900 3119 2900 3481 
Q 2900 3844 2670 4047 
Q 2441 4250 2034 4250 
Q 1625 4250 1398 4047 
Q 1172 3844 1172 3481 
z
" transform="scale(0.015625)"/>
       </defs>
       <use xlink:href="#DejaVuSans-30"/>
       <use xlink:href="#DejaVuSans-2e" transform="translate(63.623047 0)"/>
       <use xlink:href="#DejaVuSans-38" transform="translate(95.410156 0)"/>
      </g>
     </g>
    </g>
    <g id="xtick_6">
     <g id="line2d_11">
      <path d="M 534.474716 449.397812 
L 534.474716 23.837812 
" clip-path="url(#p0781965bb4)" style="fill: none; stroke: #b0b0b0; stroke-opacity: 0.3; stroke-width: 0.8; stroke-linecap: square"/>
     </g>
     <g id="line2d_12">
      <g>
       <use xlink:href="#mee250ecb4b" x="534.474716" y="449.397812" style="stroke: #000000; stroke-width: 0.8"/>
      </g>
     </g>
     <g id="text_6">
      <!-- 1.0 -->
      <g transform="translate(524.137685 466.275781) scale(0.13 -0.13)">
       <defs>
        <path id="DejaVuSans-31" d="M 794 531 
L 1825 531 
L 1825 4091 
L 703 3866 
L 703 4441 
L 1819 4666 
L 2450 4666 
L 2450 531 
L 3481 531 
L 3481 0 
L 794 0 
L 794 531 
z
" transform="scale(0.015625)"/>
       </defs>
       <use xlink:href="#DejaVuSans-31"/>
       <use xlink:href="#DejaVuSans-2e" transform="translate(63.623047 0)"/>
       <use xlink:href="#DejaVuSans-30" transform="translate(95.410156 0)"/>
      </g>
     </g>
    </g>
    <g id="text_7">
     <!-- Recall -->
     <g transform="translate(285.073281 482.857344) scale(0.13 -0.13)">
      <defs>
       <path id="DejaVuSans-52" d="M 2841 2188 
Q 3044 2119 3236 1894 
Q 3428 1669 3622 1275 
L 4263 0 
L 3584 0 
L 2988 1197 
Q 2756 1666 2539 1819 
Q 2322 1972 1947 1972 
L 1259 1972 
L 1259 0 
L 628 0 
L 628 4666 
L 2053 4666 
Q 2853 4666 3247 4331 
Q 3641 3997 3641 3322 
Q 3641 2881 3436 2590 
Q 3231 2300 2841 2188 
z
M 1259 4147 
L 1259 2491 
L 2053 2491 
Q 2509 2491 2742 2702 
Q 2975 2913 2975 3322 
Q 2975 3731 2742 3939 
Q 2509 4147 2053 4147 
L 1259 4147 
z
" transform="scale(0.015625)"/>
       <path id="DejaVuSans-65" d="M 3597 1894 
L 3597 1613 
L 953 1613 
Q 991 1019 1311 708 
Q 1631 397 2203 397 
Q 2534 397 2845 478 
Q 3156 559 3463 722 
L 3463 178 
Q 3153 47 2828 -22 
Q 2503 -91 2169 -91 
Q 1331 -91 842 396 
Q 353 884 353 1716 
Q 353 2575 817 3079 
Q 1281 3584 2069 3584 
Q 2775 3584 3186 3129 
Q 3597 2675 3597 1894 
z
M 3022 2063 
Q 3016 2534 2758 2815 
Q 2500 3097 2075 3097 
Q 1594 3097 1305 2825 
Q 1016 2553 972 2059 
L 3022 2063 
z
" transform="scale(0.015625)"/>
       <path id="DejaVuSans-63" d="M 3122 3366 
L 3122 2828 
Q 2878 2963 2633 3030 
Q 2388 3097 2138 3097 
Q 1578 3097 1268 2742 
Q 959 2388 959 1747 
Q 959 1106 1268 751 
Q 1578 397 2138 397 
Q 2388 397 2633 464 
Q 2878 531 3122 666 
L 3122 134 
Q 2881 22 2623 -34 
Q 2366 -91 2075 -91 
Q 1284 -91 818 406 
Q 353 903 353 1747 
Q 353 2603 823 3093 
Q 1294 3584 2113 3584 
Q 2378 3584 2631 3529 
Q 2884 3475 3122 3366 
z
" transform="scale(0.015625)"/>
       <path id="DejaVuSans-61" d="M 2194 1759 
Q 1497 1759 1228 1600 
Q 959 1441 959 1056 
Q 959 750 1161 570 
Q 1363 391 1709 391 
Q 2188 391 2477 730 
Q 2766 1069 2766 1631 
L 2766 1759 
L 2194 1759 
z
M 3341 1997 
L 3341 0 
L 2766 0 
L 2766 531 
Q 2569 213 2275 61 
Q 1981 -91 1556 -91 
Q 1019 -91 701 211 
Q 384 513 384 1019 
Q 384 1609 779 1909 
Q 1175 2209 1959 2209 
L 2766 2209 
L 2766 2266 
Q 2766 2663 2505 2880 
Q 2244 3097 1772 3097 
Q 1472 3097 1187 3025 
Q 903 2953 641 2809 
L 641 3341 
Q 956 3463 1253 3523 
Q 1550 3584 1831 3584 
Q 2591 3584 2966 3190 
Q 3341 2797 3341 1997 
z
" transform="scale(0.015625)"/>
       <path id="DejaVuSans-6c" d="M 603 4863 
L 1178 4863 
L 1178 0 
L 603 0 
L 603 4863 
z
" transform="scale(0.015625)"/>
      </defs>
      <use xlink:href="#DejaVuSans-52"/>
      <use xlink:href="#DejaVuSans-65" transform="translate(64.982422 0)"/>
      <use xlink:href="#DejaVuSans-63" transform="translate(126.505859 0)"/>
      <use xlink:href="#DejaVuSans-61" transform="translate(181.486328 0)"/>
      <use xlink:href="#DejaVuSans-6c" transform="translate(242.765625 0)"/>
      <use xlink:href="#DejaVuSans-6c" transform="translate(270.548828 0)"/>
     </g>
    </g>
   </g>
   <g id="matplotlib.axis_2">
    <g id="ytick_1">
     <g id="line2d_13">
      <path d="M 51.455625 430.054176 
L 557.475625 430.054176 
" clip-path="url(#p0781965bb4)" style="fill: none; stroke: #b0b0b0; stroke-opacity: 0.3; stroke-width: 0.8; stroke-linecap: square"/>
     </g>
     <g id="line2d_14">
      <defs>
       <path id="m62c9334191" d="M 0 0 
L -3.5 0 
" style="stroke: #000000; stroke-width: 0.8"/>
      </defs>
      <g>
       <use xlink:href="#m62c9334191" x="51.455625" y="430.054176" style="stroke: #000000; stroke-width: 0.8"/>
      </g>
     </g>
     <g id="text_8">
      <!-- 0.0 -->
      <g transform="translate(23.781563 434.993161) scale(0.13 -0.13)">
       <use xlink:href="#DejaVuSans-30"/>
       <use xlink:href="#DejaVuSans-2e" transform="translate(63.623047 0)"/>
       <use xlink:href="#DejaVuSans-30" transform="translate(95.410156 0)"/>
      </g>
     </g>
    </g>
    <g id="ytick_2">
     <g id="line2d_15">
      <path d="M 51.455625 352.679631 
L 557.475625 352.679631 
" clip-path="url(#p0781965bb4)" style="fill: none; stroke: #b0b0b0; stroke-opacity: 0.3; stroke-width: 0.8; stroke-linecap: square"/>
     </g>
     <g id="line2d_16">
      <g>
       <use xlink:href="#m62c9334191" x="51.455625" y="352.679631" style="stroke: #000000; stroke-width: 0.8"/>
      </g>
     </g>
     <g id="text_9">
      <!-- 0.2 -->
      <g transform="translate(23.781563 357.618615) scale(0.13 -0.13)">
       <use xlink:href="#DejaVuSans-30"/>
       <use xlink:href="#DejaVuSans-2e" transform="translate(63.623047 0)"/>
       <use xlink:href="#DejaVuSans-32" transform="translate(95.410156 0)"/>
      </g>
     </g>
    </g>
    <g id="ytick_3">
     <g id="line2d_17">
      <path d="M 51.455625 275.305085 
L 557.475625 275.305085 
" clip-path="url(#p0781965bb4)" style="fill: none; stroke: #b0b0b0; stroke-opacity: 0.3; stroke-width: 0.8; stroke-linecap: square"/>
     </g>
     <g id="line2d_18">
      <g>
       <use xlink:href="#m62c9334191" x="51.455625" y="275.305085" style="stroke: #000000; stroke-width: 0.8"/>
      </g>
     </g>
     <g id="text_10">
      <!-- 0.4 -->
      <g transform="translate(23.781563 280.24407) scale(0.13 -0.13)">
       <use xlink:href="#DejaVuSans-30"/>
       <use xlink:href="#DejaVuSans-2e" transform="translate(63.623047 0)"/>
       <use xlink:href="#DejaVuSans-34" transform="translate(95.410156 0)"/>
      </g>
     </g>
    </g>
    <g id="ytick_4">
     <g id="line2d_19">
      <path d="M 51.455625 197.93054 
L 557.475625 197.93054 
" clip-path="url(#p0781965bb4)" style="fill: none; stroke: #b0b0b0; stroke-opacity: 0.3; stroke-width: 0.8; stroke-linecap: square"/>
     </g>
     <g id="line2d_20">
      <g>
       <use xlink:href="#m62c9334191" x="51.455625" y="197.93054" style="stroke: #000000; stroke-width: 0.8"/>
      </g>
     </g>
     <g id="text_11">
      <!-- 0.6 -->
      <g transform="translate(23.781563 202.869524) scale(0.13 -0.13)">
       <use xlink:href="#DejaVuSans-30"/>
       <use xlink:href="#DejaVuSans-2e" transform="translate(63.623047 0)"/>
       <use xlink:href="#DejaVuSans-36" transform="translate(95.410156 0)"/>
      </g>
     </g>
    </g>
    <g id="ytick_5">
     <g id="line2d_21">
      <path d="M 51.455625 120.555994 
L 557.475625 120.555994 
" clip-path="url(#p0781965bb4)" style="fill: none; stroke: #b0b0b0; stroke-opacity: 0.3; stroke-width: 0.8; stroke-linecap: square"/>
     </g>
     <g id="line2d_22">
      <g>
       <use xlink:href="#m62c9334191" x="51.455625" y="120.555994" style="stroke: #000000; stroke-width: 0.8"/>
      </g>
     </g>
     <g id="text_12">
      <!-- 0.8 -->
      <g transform="translate(23.781563 125.494979) scale(0.13 -0.13)">
       <use xlink:href="#DejaVuSans-30"/>
       <use xlink:href="#DejaVuSans-2e" transform="translate(63.623047 0)"/>
       <use xlink:href="#DejaVuSans-38" transform="translate(95.410156 0)"/>
      </g>
     </g>
    </g>
    <g id="ytick_6">
     <g id="line2d_23">
      <path d="M 51.455625 43.181449 
L 557.475625 43.181449 
" clip-path="url(#p0781965bb4)" style="fill: none; stroke: #b0b0b0; stroke-opacity: 0.3; stroke-width: 0.8; stroke-linecap: square"/>
     </g>
     <g id="line2d_24">
      <g>
       <use xlink:href="#m62c9334191" x="51.455625" y="43.181449" style="stroke: #000000; stroke-width: 0.8"/>
      </g>
     </g>
     <g id="text_13">
      <!-- 1.0 -->
      <g transform="translate(23.781563 48.120433) scale(0.13 -0.13)">
       <use xlink:href="#DejaVuSans-31"/>
       <use xlink:href="#DejaVuSans-2e" transform="translate(63.623047 0)"/>
       <use xlink:href="#DejaVuSans-30" transform="translate(95.410156 0)"/>
      </g>
     </g>
    </g>
    <g id="text_14">
     <!-- Precision -->
     <g transform="translate(17.077969 265.616953) rotate(-90) scale(0.13 -0.13)">
      <defs>
       <path id="DejaVuSans-50" d="M 1259 4147 
L 1259 2394 
L 2053 2394 
Q 2494 2394 2734 2622 
Q 2975 2850 2975 3272 
Q 2975 3691 2734 3919 
Q 2494 4147 2053 4147 
L 1259 4147 
z
M 628 4666 
L 2053 4666 
Q 2838 4666 3239 4311 
Q 3641 3956 3641 3272 
Q 3641 2581 3239 2228 
Q 2838 1875 2053 1875 
L 1259 1875 
L 1259 0 
L 628 0 
L 628 4666 
z
" transform="scale(0.015625)"/>
       <path id="DejaVuSans-72" d="M 2631 2963 
Q 2534 3019 2420 3045 
Q 2306 3072 2169 3072 
Q 1681 3072 1420 2755 
Q 1159 2438 1159 1844 
L 1159 0 
L 581 0 
L 581 3500 
L 1159 3500 
L 1159 2956 
Q 1341 3275 1631 3429 
Q 1922 3584 2338 3584 
Q 2397 3584 2469 3576 
Q 2541 3569 2628 3553 
L 2631 2963 
z
" transform="scale(0.015625)"/>
       <path id="DejaVuSans-69" d="M 603 3500 
L 1178 3500 
L 1178 0 
L 603 0 
L 603 3500 
z
M 603 4863 
L 1178 4863 
L 1178 4134 
L 603 4134 
L 603 4863 
z
" transform="scale(0.015625)"/>
       <path id="DejaVuSans-73" d="M 2834 3397 
L 2834 2853 
Q 2591 2978 2328 3040 
Q 2066 3103 1784 3103 
Q 1356 3103 1142 2972 
Q 928 2841 928 2578 
Q 928 2378 1081 2264 
Q 1234 2150 1697 2047 
L 1894 2003 
Q 2506 1872 2764 1633 
Q 3022 1394 3022 966 
Q 3022 478 2636 193 
Q 2250 -91 1575 -91 
Q 1294 -91 989 -36 
Q 684 19 347 128 
L 347 722 
Q 666 556 975 473 
Q 1284 391 1588 391 
Q 1994 391 2212 530 
Q 2431 669 2431 922 
Q 2431 1156 2273 1281 
Q 2116 1406 1581 1522 
L 1381 1569 
Q 847 1681 609 1914 
Q 372 2147 372 2553 
Q 372 3047 722 3315 
Q 1072 3584 1716 3584 
Q 2034 3584 2315 3537 
Q 2597 3491 2834 3397 
z
" transform="scale(0.015625)"/>
       <path id="DejaVuSans-6f" d="M 1959 3097 
Q 1497 3097 1228 2736 
Q 959 2375 959 1747 
Q 959 1119 1226 758 
Q 1494 397 1959 397 
Q 2419 397 2687 759 
Q 2956 1122 2956 1747 
Q 2956 2369 2687 2733 
Q 2419 3097 1959 3097 
z
M 1959 3584 
Q 2709 3584 3137 3096 
Q 3566 2609 3566 1747 
Q 3566 888 3137 398 
Q 2709 -91 1959 -91 
Q 1206 -91 779 398 
Q 353 888 353 1747 
Q 353 2609 779 3096 
Q 1206 3584 1959 3584 
z
" transform="scale(0.015625)"/>
       <path id="DejaVuSans-6e" d="M 3513 2113 
L 3513 0 
L 2938 0 
L 2938 2094 
Q 2938 2591 2744 2837 
Q 2550 3084 2163 3084 
Q 1697 3084 1428 2787 
Q 1159 2491 1159 1978 
L 1159 0 
L 581 0 
L 581 3500 
L 1159 3500 
L 1159 2956 
Q 1366 3272 1645 3428 
Q 1925 3584 2291 3584 
Q 2894 3584 3203 3211 
Q 3513 2838 3513 2113 
z
" transform="scale(0.015625)"/>
      </defs>
      <use xlink:href="#DejaVuSans-50"/>
      <use xlink:href="#DejaVuSans-72" transform="translate(58.552734 0)"/>
      <use xlink:href="#DejaVuSans-65" transform="translate(97.416016 0)"/>
      <use xlink:href="#DejaVuSans-63" transform="translate(158.939453 0)"/>
      <use xlink:href="#DejaVuSans-69" transform="translate(213.919922 0)"/>
      <use xlink:href="#DejaVuSans-73" transform="translate(241.703125 0)"/>
      <use xlink:href="#DejaVuSans-69" transform="translate(293.802734 0)"/>
      <use xlink:href="#DejaVuSans-6f" transform="translate(321.585938 0)"/>
      <use xlink:href="#DejaVuSans-6e" transform="translate(382.767578 0)"/>
     </g>
    </g>
   </g>
   <g id="line2d_25">
    <path d="M 74.456534 43.181449 
L 79.103182 46.563633 
L 83.749831 49.945817 
L 88.396479 53.328001 
L 93.043127 56.710185 
L 97.689776 60.092369 
L 102.336424 63.474553 
L 106.983072 66.856737 
L 111.629721 70.238921 
L 116.276369 73.621105 
L 120.923017 77.003289 
L 125.569665 80.385473 
L 130.216314 83.767657 
L 134.862962 87.149841 
L 139.50961 90.532025 
L 144.156259 93.914209 
L 148.802907 97.296393 
L 153.449555 100.678578 
L 158.096204 104.060762 
L 162.742852 107.442946 
L 167.3895 110.82513 
L 172.036148 114.207314 
L 176.682797 117.589498 
L 181.329445 120.971682 
L 185.976093 124.353866 
L 190.622742 127.73605 
L 195.26939 131.118234 
L 199.916038 134.500418 
L 204.562687 137.882602 
L 209.209335 141.264786 
L 213.855983 144.64697 
L 218.502631 148.029154 
L 223.14928 151.411338 
L 227.795928 154.793522 
L 232.442576 158.175706 
L 237.089225 161.55789 
L 241.735873 164.940074 
L 246.382521 168.322258 
L 251.02917 171.704442 
L 255.675818 175.086626 
L 260.322466 178.46881 
L 264.969114 181.850994 
L 269.615763 197.325045 
L 274.262411 199.635374 
L 278.909059 201.945702 
L 283.555708 204.256031 
L 288.202356 208.432883 
L 292.849004 210.782047 
L 297.495653 213.131212 
L 302.142301 215.480376 
L 306.788949 220.672593 
L 311.435597 222.248769 
L 316.082246 223.824946 
L 320.728894 225.401123 
L 325.375542 233.923184 
L 330.022191 234.078684 
L 334.668839 234.234184 
L 339.315487 234.389684 
L 343.962136 237.459227 
L 348.608784 237.664716 
L 353.255432 237.870205 
L 357.90208 238.952285 
L 362.548729 242.540063 
L 367.195377 241.8857 
L 371.842025 241.231337 
L 376.488674 244.596665 
L 381.135322 248.630212 
L 385.78197 248.039164 
L 390.428619 247.448116 
L 395.075267 249.135142 
L 399.721915 248.562123 
L 404.368563 251.75132 
L 409.015212 251.213663 
L 413.66186 250.676005 
L 418.308508 253.119539 
L 422.955157 260.656301 
L 427.601805 263.008636 
L 432.248453 265.360971 
L 436.895102 271.044261 
L 441.54175 291.478625 
L 446.188398 292.823669 
L 450.835046 294.168713 
L 455.481695 303.140695 
L 460.128343 312.451069 
L 464.774991 313.864757 
L 469.42164 315.278445 
L 474.068288 316.692133 
L 478.714936 331.10601 
L 483.361585 334.915357 
L 488.008233 338.724703 
L 492.654881 342.534049 
L 497.301529 350.946085 
L 501.948178 356.189499 
L 506.594826 361.432912 
L 511.241474 366.676326 
L 515.888123 378.530496 
L 520.534771 386.959012 
L 525.181419 395.387529 
L 529.828068 403.816045 
L 534.474716 412.244561 
" clip-path="url(#p0781965bb4)" style="fill: none; stroke: #1f77b4; stroke-width: 2; stroke-linecap: square"/>
   </g>
   <g id="line2d_26">
    <path d="M 74.456534 43.181449 
L 79.103182 43.181449 
L 83.749831 43.181449 
L 88.396479 43.181449 
L 93.043127 43.181449 
L 97.689776 43.181449 
L 102.336424 43.181449 
L 106.983072 43.181449 
L 111.629721 43.181449 
L 116.276369 43.181449 
L 120.923017 43.181449 
L 125.569665 43.181449 
L 130.216314 43.181449 
L 134.862962 43.181449 
L 139.50961 43.181449 
L 144.156259 43.181449 
L 148.802907 43.181449 
L 153.449555 43.181449 
L 158.096204 43.181449 
L 162.742852 43.181449 
L 167.3895 43.181449 
L 172.036148 43.181449 
L 176.682797 43.181449 
L 181.329445 43.181449 
L 185.976093 43.181449 
L 190.622742 43.181449 
L 195.26939 43.181449 
L 199.916038 43.181449 
L 204.562687 43.181449 
L 209.209335 52.820702 
L 213.855983 52.560182 
L 218.502631 52.299661 
L 223.14928 52.039141 
L 227.795928 75.850701 
L 232.442576 75.092824 
L 237.089225 74.334947 
L 241.735873 73.577069 
L 246.382521 72.819192 
L 251.02917 84.639711 
L 255.675818 83.787099 
L 260.322466 82.934487 
L 264.969114 82.081875 
L 269.615763 86.236016 
L 274.262411 85.445866 
L 278.909059 91.559506 
L 283.555708 90.633175 
L 288.202356 100.173322 
L 292.849004 99.192024 
L 297.495653 98.22439 
L 302.142301 97.264043 
L 306.788949 112.236739 
L 311.435597 111.200677 
L 316.082246 110.170341 
L 320.728894 109.15074 
L 325.375542 123.354102 
L 330.022191 122.341366 
L 334.668839 126.116265 
L 339.315487 125.052499 
L 343.962136 141.050612 
L 348.608784 139.912133 
L 353.255432 138.773653 
L 357.90208 145.113022 
L 362.548729 163.546905 
L 367.195377 162.334293 
L 371.842025 161.121682 
L 376.488674 159.918211 
L 381.135322 177.014683 
L 385.78197 175.855197 
L 390.428619 174.695712 
L 395.075267 176.483134 
L 399.721915 175.318324 
L 404.368563 199.308169 
L 409.015212 198.194827 
L 413.66186 197.081485 
L 418.308508 198.566985 
L 422.955157 227.093876 
L 427.601805 225.974777 
L 432.248453 224.855678 
L 436.895102 226.058756 
L 441.54175 258.747201 
L 446.188398 257.682838 
L 450.835046 256.618476 
L 455.481695 255.55723 
L 460.128343 258.98538 
L 464.774991 257.981381 
L 469.42164 256.977381 
L 474.068288 255.973382 
L 478.714936 290.2137 
L 483.361585 289.448267 
L 488.008233 288.682834 
L 492.654881 287.9174 
L 497.301529 335.057227 
L 501.948178 334.403743 
L 506.594826 333.75026 
L 511.241474 333.096776 
L 515.888123 365.007686 
L 520.534771 364.550044 
L 525.181419 364.092401 
L 529.828068 363.634759 
L 534.474716 412.244561 
" clip-path="url(#p0781965bb4)" style="fill: none; stroke: #2ca02c; stroke-width: 2; stroke-linecap: square"/>
   </g>
   <g id="line2d_27">
    <path d="M 74.456534 43.181449 
L 79.103182 43.181449 
L 83.749831 43.181449 
L 88.396479 43.181449 
L 93.043127 43.181449 
L 97.689776 79.784559 
L 102.336424 76.788575 
L 106.983072 73.792591 
L 111.629721 70.796607 
L 116.276369 68.386793 
L 120.923017 66.888801 
L 125.569665 65.390809 
L 130.216314 63.892817 
L 134.862962 74.027059 
L 139.50961 72.828665 
L 144.156259 71.630272 
L 148.802907 70.431878 
L 153.449555 84.395769 
L 158.096204 82.84009 
L 162.742852 81.358846 
L 167.3895 79.877602 
L 172.036148 107.185718 
L 176.682797 105.203902 
L 181.329445 103.333738 
L 185.976093 101.463574 
L 190.622742 115.774262 
L 195.26939 113.805077 
L 199.916038 111.953748 
L 204.562687 110.102418 
L 209.209335 108.283907 
L 213.855983 106.695127 
L 218.502631 105.193188 
L 223.14928 103.704275 
L 227.795928 109.093099 
L 232.442576 107.663212 
L 237.089225 106.274378 
L 241.735873 104.917121 
L 246.382521 103.559865 
L 251.02917 131.400954 
L 255.675818 129.712595 
L 260.322466 128.064498 
L 264.969114 126.416401 
L 269.615763 138.383962 
L 274.262411 136.81397 
L 278.909059 144.388243 
L 283.555708 142.748215 
L 288.202356 143.443996 
L 292.849004 141.957598 
L 297.495653 147.140084 
L 302.142301 145.643616 
L 306.788949 165.774622 
L 311.435597 164.255372 
L 316.082246 170.105923 
L 320.728894 168.588962 
L 325.375542 182.612869 
L 330.022191 181.070694 
L 334.668839 179.529843 
L 339.315487 178.018119 
L 343.962136 191.049672 
L 348.608784 189.557809 
L 353.255432 188.065947 
L 357.90208 186.593778 
L 362.548729 207.300699 
L 367.195377 205.877251 
L 371.842025 204.453804 
L 376.488674 204.971908 
L 381.135322 207.532919 
L 385.78197 206.187748 
L 390.428619 204.842577 
L 395.075267 205.262884 
L 399.721915 203.932711 
L 404.368563 217.609762 
L 409.015212 216.349045 
L 413.66186 215.088327 
L 418.308508 213.842511 
L 422.955157 248.366234 
L 427.601805 247.185845 
L 432.248453 246.005455 
L 436.895102 244.833536 
L 441.54175 251.542585 
L 446.188398 250.44957 
L 450.835046 249.356555 
L 455.481695 248.266728 
L 460.128343 287.595162 
L 464.774991 286.619854 
L 469.42164 285.644545 
L 474.068288 284.669237 
L 478.714936 315.450386 
L 483.361585 314.641525 
L 488.008233 313.832664 
L 492.654881 313.023803 
L 497.301529 343.524932 
L 501.948178 342.881546 
L 506.594826 342.23816 
L 511.241474 341.594774 
L 515.888123 362.434029 
L 520.534771 361.907163 
L 525.181419 361.380297 
L 529.828068 360.85343 
L 534.474716 412.244561 
" clip-path="url(#p0781965bb4)" style="fill: none; stroke: #8c564b; stroke-width: 2; stroke-linecap: square"/>
   </g>
   <g id="line2d_28">
    <path d="M 74.456534 43.181449 
L 79.103182 43.181449 
L 83.749831 43.181449 
L 88.396479 43.181449 
L 93.043127 43.181449 
L 97.689776 43.181449 
L 102.336424 43.181449 
L 106.983072 43.181449 
L 111.629721 43.181449 
L 116.276369 81.165317 
L 120.923017 79.367726 
L 125.569665 77.570136 
L 130.216314 75.772545 
L 134.862962 74.027059 
L 139.50961 72.828665 
L 144.156259 71.630272 
L 148.802907 70.431878 
L 153.449555 69.233484 
L 158.096204 68.303055 
L 162.742852 67.447059 
L 167.3895 66.591064 
L 172.036148 65.735068 
L 176.682797 64.98142 
L 181.329445 64.339423 
L 185.976093 63.697427 
L 190.622742 63.05543 
L 195.26939 62.438245 
L 199.916038 61.938914 
L 204.562687 61.439584 
L 209.209335 70.579506 
L 213.855983 69.819655 
L 218.502631 69.146644 
L 223.14928 68.486659 
L 227.795928 76.423846 
L 232.442576 75.607549 
L 237.089225 74.832304 
L 241.735873 74.088636 
L 246.382521 73.344969 
L 251.02917 86.487037 
L 255.675818 85.549164 
L 260.322466 84.651553 
L 264.969114 83.753942 
L 269.615763 133.822623 
L 274.262411 132.411883 
L 278.909059 131.041223 
L 283.555708 129.672385 
L 288.202356 142.453813 
L 292.849004 141.028868 
L 297.495653 144.263228 
L 302.142301 142.811945 
L 306.788949 149.668059 
L 311.435597 148.251312 
L 316.082246 146.84573 
L 320.728894 145.461082 
L 325.375542 149.072792 
L 330.022191 147.77549 
L 334.668839 153.461733 
L 339.315487 152.126325 
L 343.962136 178.160349 
L 348.608784 176.746565 
L 353.255432 175.332781 
L 357.90208 179.341727 
L 362.548729 187.594672 
L 367.195377 186.20707 
L 371.842025 184.819468 
L 376.488674 189.760689 
L 381.135322 192.336822 
L 385.78197 191.011853 
L 390.428619 189.686884 
L 395.075267 188.364588 
L 399.721915 187.060104 
L 404.368563 224.255728 
L 409.015212 222.980972 
L 413.66186 221.706216 
L 418.308508 222.181732 
L 422.955157 245.666269 
L 427.601805 244.48024 
L 432.248453 243.294212 
L 436.895102 243.715072 
L 441.54175 258.894774 
L 446.188398 257.806547 
L 450.835046 256.71832 
L 455.481695 257.114381 
L 460.128343 272.913516 
L 464.774991 271.930854 
L 469.42164 270.948191 
L 474.068288 269.965529 
L 478.714936 326.653143 
L 483.361585 325.90631 
L 488.008233 325.159477 
L 492.654881 324.412644 
L 497.301529 340.295628 
L 501.948178 339.658066 
L 506.594826 339.020505 
L 511.241474 338.382943 
L 515.888123 375.975522 
L 520.534771 375.512445 
L 525.181419 375.049369 
L 529.828068 374.586293 
L 534.474716 412.244561 
" clip-path="url(#p0781965bb4)" style="fill: none; stroke: #7f7f7f; stroke-width: 2; stroke-linecap: square"/>
   </g>
   <g id="line2d_29">
    <path d="M 74.456534 43.181449 
L 79.103182 43.181449 
L 83.749831 43.181449 
L 88.396479 43.181449 
L 93.043127 43.181449 
L 97.689776 43.181449 
L 102.336424 43.181449 
L 106.983072 43.181449 
L 111.629721 43.181449 
L 116.276369 43.181449 
L 120.923017 43.181449 
L 125.569665 43.181449 
L 130.216314 43.181449 
L 134.862962 43.181449 
L 139.50961 43.181449 
L 144.156259 43.181449 
L 148.802907 43.181449 
L 153.449555 58.343734 
L 158.096204 72.724457 
L 162.742852 71.500011 
L 167.3895 70.275566 
L 172.036148 81.846391 
L 176.682797 80.43586 
L 181.329445 79.114649 
L 185.976093 77.793439 
L 190.622742 76.528054 
L 195.26939 75.448756 
L 199.916038 74.457848 
L 204.562687 73.46694 
L 209.209335 79.997627 
L 213.855983 78.999276 
L 218.502631 78.062953 
L 223.14928 77.135935 
L 227.795928 90.433328 
L 232.442576 89.340524 
L 237.089225 88.275943 
L 241.735873 87.233073 
L 246.382521 86.190202 
L 251.02917 109.740452 
L 255.675818 108.399011 
L 260.322466 107.084411 
L 264.969114 105.769812 
L 269.615763 138.882149 
L 274.262411 137.367521 
L 278.909059 135.878946 
L 283.555708 134.391555 
L 288.202356 139.667531 
L 292.849004 138.276792 
L 297.495653 142.301935 
L 302.142301 140.84984 
L 306.788949 145.148746 
L 311.435597 143.79126 
L 316.082246 146.84573 
L 320.728894 145.461082 
L 325.375542 160.512739 
L 330.022191 159.125082 
L 334.668839 167.661193 
L 339.315487 166.214405 
L 343.962136 168.801918 
L 348.608784 167.444285 
L 353.255432 166.086652 
L 357.90208 164.748999 
L 362.548729 163.429862 
L 367.195377 162.190979 
L 371.842025 160.952095 
L 376.488674 162.228902 
L 381.135322 187.25859 
L 385.78197 185.98957 
L 390.428619 184.72055 
L 395.075267 183.454233 
L 399.721915 182.205936 
L 404.368563 192.697468 
L 409.015212 191.46681 
L 413.66186 190.236151 
L 418.308508 193.219344 
L 422.955157 228.894144 
L 427.601805 227.743385 
L 432.248453 226.592626 
L 436.895102 232.095075 
L 441.54175 246.315959 
L 446.188398 245.18694 
L 450.835046 244.057921 
L 455.481695 244.323508 
L 460.128343 263.492743 
L 464.774991 262.43492 
L 469.42164 261.377097 
L 474.068288 260.319274 
L 478.714936 298.814753 
L 483.361585 297.910196 
L 488.008233 297.005639 
L 492.654881 296.101082 
L 497.301529 333.520705 
L 501.948178 332.848537 
L 506.594826 332.176369 
L 511.241474 331.504201 
L 515.888123 372.412444 
L 520.534771 371.929119 
L 525.181419 371.445794 
L 529.828068 370.96247 
L 534.474716 412.244561 
" clip-path="url(#p0781965bb4)" style="fill: none; stroke: #17becf; stroke-width: 2; stroke-linecap: square"/>
   </g>
   <g id="patch_3">
    <path d="M 51.455625 449.397812 
L 51.455625 23.837812 
" style="fill: none; stroke: #000000; stroke-width: 0.8; stroke-linejoin: miter; stroke-linecap: square"/>
   </g>
   <g id="patch_4">
    <path d="M 557.475625 449.397812 
L 557.475625 23.837812 
" style="fill: none; stroke: #000000; stroke-width: 0.8; stroke-linejoin: miter; stroke-linecap: square"/>
   </g>
   <g id="patch_5">
    <path d="M 51.455625 449.397812 
L 557.475625 449.397812 
" style="fill: none; stroke: #000000; stroke-width: 0.8; stroke-linejoin: miter; stroke-linecap: square"/>
   </g>
   <g id="patch_6">
    <path d="M 51.455625 23.837812 
L 557.475625 23.837812 
" style="fill: none; stroke: #000000; stroke-width: 0.8; stroke-linejoin: miter; stroke-linecap: square"/>
   </g>
   <g id="text_15">
    <!-- Precision-Recall Curves (Mean  95% CI across folds) -->
    <g transform="translate(117.824844 17.837812) scale(0.14 -0.14)">
     <defs>
      <path id="DejaVuSans-2d" d="M 313 2009 
L 1997 2009 
L 1997 1497 
L 313 1497 
L 313 2009 
z
" transform="scale(0.015625)"/>
      <path id="DejaVuSans-20" transform="scale(0.015625)"/>
      <path id="DejaVuSans-43" d="M 4122 4306 
L 4122 3641 
Q 3803 3938 3442 4084 
Q 3081 4231 2675 4231 
Q 1875 4231 1450 3742 
Q 1025 3253 1025 2328 
Q 1025 1406 1450 917 
Q 1875 428 2675 428 
Q 3081 428 3442 575 
Q 3803 722 4122 1019 
L 4122 359 
Q 3791 134 3420 21 
Q 3050 -91 2638 -91 
Q 1578 -91 968 557 
Q 359 1206 359 2328 
Q 359 3453 968 4101 
Q 1578 4750 2638 4750 
Q 3056 4750 3426 4639 
Q 3797 4528 4122 4306 
z
" transform="scale(0.015625)"/>
      <path id="DejaVuSans-75" d="M 544 1381 
L 544 3500 
L 1119 3500 
L 1119 1403 
Q 1119 906 1312 657 
Q 1506 409 1894 409 
Q 2359 409 2629 706 
Q 2900 1003 2900 1516 
L 2900 3500 
L 3475 3500 
L 3475 0 
L 2900 0 
L 2900 538 
Q 2691 219 2414 64 
Q 2138 -91 1772 -91 
Q 1169 -91 856 284 
Q 544 659 544 1381 
z
M 1991 3584 
L 1991 3584 
z
" transform="scale(0.015625)"/>
      <path id="DejaVuSans-76" d="M 191 3500 
L 800 3500 
L 1894 563 
L 2988 3500 
L 3597 3500 
L 2284 0 
L 1503 0 
L 191 3500 
z
" transform="scale(0.015625)"/>
      <path id="DejaVuSans-28" d="M 1984 4856 
Q 1566 4138 1362 3434 
Q 1159 2731 1159 2009 
Q 1159 1288 1364 580 
Q 1569 -128 1984 -844 
L 1484 -844 
Q 1016 -109 783 600 
Q 550 1309 550 2009 
Q 550 2706 781 3412 
Q 1013 4119 1484 4856 
L 1984 4856 
z
" transform="scale(0.015625)"/>
      <path id="DejaVuSans-4d" d="M 628 4666 
L 1569 4666 
L 2759 1491 
L 3956 4666 
L 4897 4666 
L 4897 0 
L 4281 0 
L 4281 4097 
L 3078 897 
L 2444 897 
L 1241 4097 
L 1241 0 
L 628 0 
L 628 4666 
z
" transform="scale(0.015625)"/>
      <path id="DejaVuSans-b1" d="M 2944 4013 
L 2944 2803 
L 4684 2803 
L 4684 2272 
L 2944 2272 
L 2944 1063 
L 2419 1063 
L 2419 2272 
L 678 2272 
L 678 2803 
L 2419 2803 
L 2419 4013 
L 2944 4013 
z
M 678 531 
L 4684 531 
L 4684 0 
L 678 0 
L 678 531 
z
" transform="scale(0.015625)"/>
      <path id="DejaVuSans-39" d="M 703 97 
L 703 672 
Q 941 559 1184 500 
Q 1428 441 1663 441 
Q 2288 441 2617 861 
Q 2947 1281 2994 2138 
Q 2813 1869 2534 1725 
Q 2256 1581 1919 1581 
Q 1219 1581 811 2004 
Q 403 2428 403 3163 
Q 403 3881 828 4315 
Q 1253 4750 1959 4750 
Q 2769 4750 3195 4129 
Q 3622 3509 3622 2328 
Q 3622 1225 3098 567 
Q 2575 -91 1691 -91 
Q 1453 -91 1209 -44 
Q 966 3 703 97 
z
M 1959 2075 
Q 2384 2075 2632 2365 
Q 2881 2656 2881 3163 
Q 2881 3666 2632 3958 
Q 2384 4250 1959 4250 
Q 1534 4250 1286 3958 
Q 1038 3666 1038 3163 
Q 1038 2656 1286 2365 
Q 1534 2075 1959 2075 
z
" transform="scale(0.015625)"/>
      <path id="DejaVuSans-35" d="M 691 4666 
L 3169 4666 
L 3169 4134 
L 1269 4134 
L 1269 2991 
Q 1406 3038 1543 3061 
Q 1681 3084 1819 3084 
Q 2600 3084 3056 2656 
Q 3513 2228 3513 1497 
Q 3513 744 3044 326 
Q 2575 -91 1722 -91 
Q 1428 -91 1123 -41 
Q 819 9 494 109 
L 494 744 
Q 775 591 1075 516 
Q 1375 441 1709 441 
Q 2250 441 2565 725 
Q 2881 1009 2881 1497 
Q 2881 1984 2565 2268 
Q 2250 2553 1709 2553 
Q 1456 2553 1204 2497 
Q 953 2441 691 2322 
L 691 4666 
z
" transform="scale(0.015625)"/>
      <path id="DejaVuSans-25" d="M 4653 2053 
Q 4381 2053 4226 1822 
Q 4072 1591 4072 1178 
Q 4072 772 4226 539 
Q 4381 306 4653 306 
Q 4919 306 5073 539 
Q 5228 772 5228 1178 
Q 5228 1588 5073 1820 
Q 4919 2053 4653 2053 
z
M 4653 2450 
Q 5147 2450 5437 2106 
Q 5728 1763 5728 1178 
Q 5728 594 5436 251 
Q 5144 -91 4653 -91 
Q 4153 -91 3862 251 
Q 3572 594 3572 1178 
Q 3572 1766 3864 2108 
Q 4156 2450 4653 2450 
z
M 1428 4353 
Q 1159 4353 1004 4120 
Q 850 3888 850 3481 
Q 850 3069 1003 2837 
Q 1156 2606 1428 2606 
Q 1700 2606 1854 2837 
Q 2009 3069 2009 3481 
Q 2009 3884 1853 4118 
Q 1697 4353 1428 4353 
z
M 4250 4750 
L 4750 4750 
L 1831 -91 
L 1331 -91 
L 4250 4750 
z
M 1428 4750 
Q 1922 4750 2215 4408 
Q 2509 4066 2509 3481 
Q 2509 2891 2217 2550 
Q 1925 2209 1428 2209 
Q 931 2209 642 2551 
Q 353 2894 353 3481 
Q 353 4063 643 4406 
Q 934 4750 1428 4750 
z
" transform="scale(0.015625)"/>
      <path id="DejaVuSans-49" d="M 628 4666 
L 1259 4666 
L 1259 0 
L 628 0 
L 628 4666 
z
" transform="scale(0.015625)"/>
      <path id="DejaVuSans-66" d="M 2375 4863 
L 2375 4384 
L 1825 4384 
Q 1516 4384 1395 4259 
Q 1275 4134 1275 3809 
L 1275 3500 
L 2222 3500 
L 2222 3053 
L 1275 3053 
L 1275 0 
L 697 0 
L 697 3053 
L 147 3053 
L 147 3500 
L 697 3500 
L 697 3744 
Q 697 4328 969 4595 
Q 1241 4863 1831 4863 
L 2375 4863 
z
" transform="scale(0.015625)"/>
      <path id="DejaVuSans-64" d="M 2906 2969 
L 2906 4863 
L 3481 4863 
L 3481 0 
L 2906 0 
L 2906 525 
Q 2725 213 2448 61 
Q 2172 -91 1784 -91 
Q 1150 -91 751 415 
Q 353 922 353 1747 
Q 353 2572 751 3078 
Q 1150 3584 1784 3584 
Q 2172 3584 2448 3432 
Q 2725 3281 2906 2969 
z
M 947 1747 
Q 947 1113 1208 752 
Q 1469 391 1925 391 
Q 2381 391 2643 752 
Q 2906 1113 2906 1747 
Q 2906 2381 2643 2742 
Q 2381 3103 1925 3103 
Q 1469 3103 1208 2742 
Q 947 2381 947 1747 
z
" transform="scale(0.015625)"/>
      <path id="DejaVuSans-29" d="M 513 4856 
L 1013 4856 
Q 1481 4119 1714 3412 
Q 1947 2706 1947 2009 
Q 1947 1309 1714 600 
Q 1481 -109 1013 -844 
L 513 -844 
Q 928 -128 1133 580 
Q 1338 1288 1338 2009 
Q 1338 2731 1133 3434 
Q 928 4138 513 4856 
z
" transform="scale(0.015625)"/>
     </defs>
     <use xlink:href="#DejaVuSans-50"/>
     <use xlink:href="#DejaVuSans-72" transform="translate(58.552734 0)"/>
     <use xlink:href="#DejaVuSans-65" transform="translate(97.416016 0)"/>
     <use xlink:href="#DejaVuSans-63" transform="translate(158.939453 0)"/>
     <use xlink:href="#DejaVuSans-69" transform="translate(213.919922 0)"/>
     <use xlink:href="#DejaVuSans-73" transform="translate(241.703125 0)"/>
     <use xlink:href="#DejaVuSans-69" transform="translate(293.802734 0)"/>
     <use xlink:href="#DejaVuSans-6f" transform="translate(321.585938 0)"/>
     <use xlink:href="#DejaVuSans-6e" transform="translate(382.767578 0)"/>
     <use xlink:href="#DejaVuSans-2d" transform="translate(446.146484 0)"/>
     <use xlink:href="#DejaVuSans-52" transform="translate(482.230469 0)"/>
     <use xlink:href="#DejaVuSans-65" transform="translate(547.212891 0)"/>
     <use xlink:href="#DejaVuSans-63" transform="translate(608.736328 0)"/>
     <use xlink:href="#DejaVuSans-61" transform="translate(663.716797 0)"/>
     <use xlink:href="#DejaVuSans-6c" transform="translate(724.996094 0)"/>
     <use xlink:href="#DejaVuSans-6c" transform="translate(752.779297 0)"/>
     <use xlink:href="#DejaVuSans-20" transform="translate(780.5625 0)"/>
     <use xlink:href="#DejaVuSans-43" transform="translate(812.349609 0)"/>
     <use xlink:href="#DejaVuSans-75" transform="translate(882.173828 0)"/>
     <use xlink:href="#DejaVuSans-72" transform="translate(945.552734 0)"/>
     <use xlink:href="#DejaVuSans-76" transform="translate(986.666016 0)"/>
     <use xlink:href="#DejaVuSans-65" transform="translate(1045.845703 0)"/>
     <use xlink:href="#DejaVuSans-73" transform="translate(1107.369141 0)"/>
     <use xlink:href="#DejaVuSans-20" transform="translate(1159.46875 0)"/>
     <use xlink:href="#DejaVuSans-28" transform="translate(1191.255859 0)"/>
     <use xlink:href="#DejaVuSans-4d" transform="translate(1230.269531 0)"/>
     <use xlink:href="#DejaVuSans-65" transform="translate(1316.548828 0)"/>
     <use xlink:href="#DejaVuSans-61" transform="translate(1378.072266 0)"/>
     <use xlink:href="#DejaVuSans-6e" transform="translate(1439.351562 0)"/>
     <use xlink:href="#DejaVuSans-20" transform="translate(1502.730469 0)"/>
     <use xlink:href="#DejaVuSans-b1" transform="translate(1534.517578 0)"/>
     <use xlink:href="#DejaVuSans-20" transform="translate(1618.306641 0)"/>
     <use xlink:href="#DejaVuSans-39" transform="translate(1650.09375 0)"/>
     <use xlink:href="#DejaVuSans-35" transform="translate(1713.716797 0)"/>
     <use xlink:href="#DejaVuSans-25" transform="translate(1777.339844 0)"/>
     <use xlink:href="#DejaVuSans-20" transform="translate(1872.359375 0)"/>
     <use xlink:href="#DejaVuSans-43" transform="translate(1904.146484 0)"/>
     <use xlink:href="#DejaVuSans-49" transform="translate(1973.970703 0)"/>
     <use xlink:href="#DejaVuSans-20" transform="translate(2003.462891 0)"/>
     <use xlink:href="#DejaVuSans-61" transform="translate(2035.25 0)"/>
     <use xlink:href="#DejaVuSans-63" transform="translate(2096.529297 0)"/>
     <use xlink:href="#DejaVuSans-72" transform="translate(2151.509766 0)"/>
     <use xlink:href="#DejaVuSans-6f" transform="translate(2190.373047 0)"/>
     <use xlink:href="#DejaVuSans-73" transform="translate(2251.554688 0)"/>
     <use xlink:href="#DejaVuSans-73" transform="translate(2303.654297 0)"/>
     <use xlink:href="#DejaVuSans-20" transform="translate(2355.753906 0)"/>
     <use xlink:href="#DejaVuSans-66" transform="translate(2387.541016 0)"/>
     <use xlink:href="#DejaVuSans-6f" transform="translate(2422.746094 0)"/>
     <use xlink:href="#DejaVuSans-6c" transform="translate(2483.927734 0)"/>
     <use xlink:href="#DejaVuSans-64" transform="translate(2511.710938 0)"/>
     <use xlink:href="#DejaVuSans-73" transform="translate(2575.1875 0)"/>
     <use xlink:href="#DejaVuSans-29" transform="translate(2627.287109 0)"/>
    </g>
   </g>
   <g id="legend_1">
    <g id="patch_7">
     <path d="M 60.555625 442.897812 
L 470.366406 442.897812 
Q 472.966406 442.897812 472.966406 440.297812 
L 472.966406 346.19 
Q 472.966406 343.59 470.366406 343.59 
L 60.555625 343.59 
Q 57.955625 343.59 57.955625 346.19 
L 57.955625 440.297812 
Q 57.955625 442.897812 60.555625 442.897812 
z
" style="fill: #ffffff; opacity: 0.8; stroke: #cccccc; stroke-linejoin: miter"/>
    </g>
    <g id="line2d_30">
     <path d="M 63.155625 354.117969 
L 76.155625 354.117969 
L 89.155625 354.117969 
" style="fill: none; stroke: #1f77b4; stroke-width: 2; stroke-linecap: square"/>
    </g>
    <g id="text_16">
     <!-- K-Nearest Neighbors (AuPRC = 0.579  0.031) -->
     <g transform="translate(99.555625 358.667969) scale(0.13 -0.13)">
      <defs>
       <path id="DejaVuSans-4b" d="M 628 4666 
L 1259 4666 
L 1259 2694 
L 3353 4666 
L 4166 4666 
L 1850 2491 
L 4331 0 
L 3500 0 
L 1259 2247 
L 1259 0 
L 628 0 
L 628 4666 
z
" transform="scale(0.015625)"/>
       <path id="DejaVuSans-4e" d="M 628 4666 
L 1478 4666 
L 3547 763 
L 3547 4666 
L 4159 4666 
L 4159 0 
L 3309 0 
L 1241 3903 
L 1241 0 
L 628 0 
L 628 4666 
z
" transform="scale(0.015625)"/>
       <path id="DejaVuSans-74" d="M 1172 4494 
L 1172 3500 
L 2356 3500 
L 2356 3053 
L 1172 3053 
L 1172 1153 
Q 1172 725 1289 603 
Q 1406 481 1766 481 
L 2356 481 
L 2356 0 
L 1766 0 
Q 1100 0 847 248 
Q 594 497 594 1153 
L 594 3053 
L 172 3053 
L 172 3500 
L 594 3500 
L 594 4494 
L 1172 4494 
z
" transform="scale(0.015625)"/>
       <path id="DejaVuSans-67" d="M 2906 1791 
Q 2906 2416 2648 2759 
Q 2391 3103 1925 3103 
Q 1463 3103 1205 2759 
Q 947 2416 947 1791 
Q 947 1169 1205 825 
Q 1463 481 1925 481 
Q 2391 481 2648 825 
Q 2906 1169 2906 1791 
z
M 3481 434 
Q 3481 -459 3084 -895 
Q 2688 -1331 1869 -1331 
Q 1566 -1331 1297 -1286 
Q 1028 -1241 775 -1147 
L 775 -588 
Q 1028 -725 1275 -790 
Q 1522 -856 1778 -856 
Q 2344 -856 2625 -561 
Q 2906 -266 2906 331 
L 2906 616 
Q 2728 306 2450 153 
Q 2172 0 1784 0 
Q 1141 0 747 490 
Q 353 981 353 1791 
Q 353 2603 747 3093 
Q 1141 3584 1784 3584 
Q 2172 3584 2450 3431 
Q 2728 3278 2906 2969 
L 2906 3500 
L 3481 3500 
L 3481 434 
z
" transform="scale(0.015625)"/>
       <path id="DejaVuSans-68" d="M 3513 2113 
L 3513 0 
L 2938 0 
L 2938 2094 
Q 2938 2591 2744 2837 
Q 2550 3084 2163 3084 
Q 1697 3084 1428 2787 
Q 1159 2491 1159 1978 
L 1159 0 
L 581 0 
L 581 4863 
L 1159 4863 
L 1159 2956 
Q 1366 3272 1645 3428 
Q 1925 3584 2291 3584 
Q 2894 3584 3203 3211 
Q 3513 2838 3513 2113 
z
" transform="scale(0.015625)"/>
       <path id="DejaVuSans-62" d="M 3116 1747 
Q 3116 2381 2855 2742 
Q 2594 3103 2138 3103 
Q 1681 3103 1420 2742 
Q 1159 2381 1159 1747 
Q 1159 1113 1420 752 
Q 1681 391 2138 391 
Q 2594 391 2855 752 
Q 3116 1113 3116 1747 
z
M 1159 2969 
Q 1341 3281 1617 3432 
Q 1894 3584 2278 3584 
Q 2916 3584 3314 3078 
Q 3713 2572 3713 1747 
Q 3713 922 3314 415 
Q 2916 -91 2278 -91 
Q 1894 -91 1617 61 
Q 1341 213 1159 525 
L 1159 0 
L 581 0 
L 581 4863 
L 1159 4863 
L 1159 2969 
z
" transform="scale(0.015625)"/>
       <path id="DejaVuSans-41" d="M 2188 4044 
L 1331 1722 
L 3047 1722 
L 2188 4044 
z
M 1831 4666 
L 2547 4666 
L 4325 0 
L 3669 0 
L 3244 1197 
L 1141 1197 
L 716 0 
L 50 0 
L 1831 4666 
z
" transform="scale(0.015625)"/>
       <path id="DejaVuSans-3d" d="M 678 2906 
L 4684 2906 
L 4684 2381 
L 678 2381 
L 678 2906 
z
M 678 1631 
L 4684 1631 
L 4684 1100 
L 678 1100 
L 678 1631 
z
" transform="scale(0.015625)"/>
       <path id="DejaVuSans-37" d="M 525 4666 
L 3525 4666 
L 3525 4397 
L 1831 0 
L 1172 0 
L 2766 4134 
L 525 4134 
L 525 4666 
z
" transform="scale(0.015625)"/>
       <path id="DejaVuSans-33" d="M 2597 2516 
Q 3050 2419 3304 2112 
Q 3559 1806 3559 1356 
Q 3559 666 3084 287 
Q 2609 -91 1734 -91 
Q 1441 -91 1130 -33 
Q 819 25 488 141 
L 488 750 
Q 750 597 1062 519 
Q 1375 441 1716 441 
Q 2309 441 2620 675 
Q 2931 909 2931 1356 
Q 2931 1769 2642 2001 
Q 2353 2234 1838 2234 
L 1294 2234 
L 1294 2753 
L 1863 2753 
Q 2328 2753 2575 2939 
Q 2822 3125 2822 3475 
Q 2822 3834 2567 4026 
Q 2313 4219 1838 4219 
Q 1578 4219 1281 4162 
Q 984 4106 628 3988 
L 628 4550 
Q 988 4650 1302 4700 
Q 1616 4750 1894 4750 
Q 2613 4750 3031 4423 
Q 3450 4097 3450 3541 
Q 3450 3153 3228 2886 
Q 3006 2619 2597 2516 
z
" transform="scale(0.015625)"/>
      </defs>
      <use xlink:href="#DejaVuSans-4b"/>
      <use xlink:href="#DejaVuSans-2d" transform="translate(55.076172 0)"/>
      <use xlink:href="#DejaVuSans-4e" transform="translate(91.160156 0)"/>
      <use xlink:href="#DejaVuSans-65" transform="translate(165.964844 0)"/>
      <use xlink:href="#DejaVuSans-61" transform="translate(227.488281 0)"/>
      <use xlink:href="#DejaVuSans-72" transform="translate(288.767578 0)"/>
      <use xlink:href="#DejaVuSans-65" transform="translate(327.630859 0)"/>
      <use xlink:href="#DejaVuSans-73" transform="translate(389.154297 0)"/>
      <use xlink:href="#DejaVuSans-74" transform="translate(441.253906 0)"/>
      <use xlink:href="#DejaVuSans-20" transform="translate(480.462891 0)"/>
      <use xlink:href="#DejaVuSans-4e" transform="translate(512.25 0)"/>
      <use xlink:href="#DejaVuSans-65" transform="translate(587.054688 0)"/>
      <use xlink:href="#DejaVuSans-69" transform="translate(648.578125 0)"/>
      <use xlink:href="#DejaVuSans-67" transform="translate(676.361328 0)"/>
      <use xlink:href="#DejaVuSans-68" transform="translate(739.837891 0)"/>
      <use xlink:href="#DejaVuSans-62" transform="translate(803.216797 0)"/>
      <use xlink:href="#DejaVuSans-6f" transform="translate(866.693359 0)"/>
      <use xlink:href="#DejaVuSans-72" transform="translate(927.875 0)"/>
      <use xlink:href="#DejaVuSans-73" transform="translate(968.988281 0)"/>
      <use xlink:href="#DejaVuSans-20" transform="translate(1021.087891 0)"/>
      <use xlink:href="#DejaVuSans-28" transform="translate(1052.875 0)"/>
      <use xlink:href="#DejaVuSans-41" transform="translate(1091.888672 0)"/>
      <use xlink:href="#DejaVuSans-75" transform="translate(1160.296875 0)"/>
      <use xlink:href="#DejaVuSans-50" transform="translate(1223.675781 0)"/>
      <use xlink:href="#DejaVuSans-52" transform="translate(1283.978516 0)"/>
      <use xlink:href="#DejaVuSans-43" transform="translate(1348.460938 0)"/>
      <use xlink:href="#DejaVuSans-20" transform="translate(1418.285156 0)"/>
      <use xlink:href="#DejaVuSans-3d" transform="translate(1450.072266 0)"/>
      <use xlink:href="#DejaVuSans-20" transform="translate(1533.861328 0)"/>
      <use xlink:href="#DejaVuSans-30" transform="translate(1565.648438 0)"/>
      <use xlink:href="#DejaVuSans-2e" transform="translate(1629.271484 0)"/>
      <use xlink:href="#DejaVuSans-35" transform="translate(1661.058594 0)"/>
      <use xlink:href="#DejaVuSans-37" transform="translate(1724.681641 0)"/>
      <use xlink:href="#DejaVuSans-39" transform="translate(1788.304688 0)"/>
      <use xlink:href="#DejaVuSans-20" transform="translate(1851.927734 0)"/>
      <use xlink:href="#DejaVuSans-b1" transform="translate(1883.714844 0)"/>
      <use xlink:href="#DejaVuSans-20" transform="translate(1967.503906 0)"/>
      <use xlink:href="#DejaVuSans-30" transform="translate(1999.291016 0)"/>
      <use xlink:href="#DejaVuSans-2e" transform="translate(2062.914062 0)"/>
      <use xlink:href="#DejaVuSans-30" transform="translate(2094.701172 0)"/>
      <use xlink:href="#DejaVuSans-33" transform="translate(2158.324219 0)"/>
      <use xlink:href="#DejaVuSans-31" transform="translate(2221.947266 0)"/>
      <use xlink:href="#DejaVuSans-29" transform="translate(2285.570312 0)"/>
     </g>
    </g>
    <g id="line2d_31">
     <path d="M 63.155625 373.199531 
L 76.155625 373.199531 
L 89.155625 373.199531 
" style="fill: none; stroke: #2ca02c; stroke-width: 2; stroke-linecap: square"/>
    </g>
    <g id="text_17">
     <!-- Elastic-Net Logistic Regression (AuPRC = 0.752  0.074) -->
     <g transform="translate(99.555625 377.749531) scale(0.13 -0.13)">
      <defs>
       <path id="DejaVuSans-45" d="M 628 4666 
L 3578 4666 
L 3578 4134 
L 1259 4134 
L 1259 2753 
L 3481 2753 
L 3481 2222 
L 1259 2222 
L 1259 531 
L 3634 531 
L 3634 0 
L 628 0 
L 628 4666 
z
" transform="scale(0.015625)"/>
       <path id="DejaVuSans-4c" d="M 628 4666 
L 1259 4666 
L 1259 531 
L 3531 531 
L 3531 0 
L 628 0 
L 628 4666 
z
" transform="scale(0.015625)"/>
      </defs>
      <use xlink:href="#DejaVuSans-45"/>
      <use xlink:href="#DejaVuSans-6c" transform="translate(63.183594 0)"/>
      <use xlink:href="#DejaVuSans-61" transform="translate(90.966797 0)"/>
      <use xlink:href="#DejaVuSans-73" transform="translate(152.246094 0)"/>
      <use xlink:href="#DejaVuSans-74" transform="translate(204.345703 0)"/>
      <use xlink:href="#DejaVuSans-69" transform="translate(243.554688 0)"/>
      <use xlink:href="#DejaVuSans-63" transform="translate(271.337891 0)"/>
      <use xlink:href="#DejaVuSans-2d" transform="translate(326.318359 0)"/>
      <use xlink:href="#DejaVuSans-4e" transform="translate(362.402344 0)"/>
      <use xlink:href="#DejaVuSans-65" transform="translate(437.207031 0)"/>
      <use xlink:href="#DejaVuSans-74" transform="translate(498.730469 0)"/>
      <use xlink:href="#DejaVuSans-20" transform="translate(537.939453 0)"/>
      <use xlink:href="#DejaVuSans-4c" transform="translate(569.726562 0)"/>
      <use xlink:href="#DejaVuSans-6f" transform="translate(623.689453 0)"/>
      <use xlink:href="#DejaVuSans-67" transform="translate(684.871094 0)"/>
      <use xlink:href="#DejaVuSans-69" transform="translate(748.347656 0)"/>
      <use xlink:href="#DejaVuSans-73" transform="translate(776.130859 0)"/>
      <use xlink:href="#DejaVuSans-74" transform="translate(828.230469 0)"/>
      <use xlink:href="#DejaVuSans-69" transform="translate(867.439453 0)"/>
      <use xlink:href="#DejaVuSans-63" transform="translate(895.222656 0)"/>
      <use xlink:href="#DejaVuSans-20" transform="translate(950.203125 0)"/>
      <use xlink:href="#DejaVuSans-52" transform="translate(981.990234 0)"/>
      <use xlink:href="#DejaVuSans-65" transform="translate(1046.972656 0)"/>
      <use xlink:href="#DejaVuSans-67" transform="translate(1108.496094 0)"/>
      <use xlink:href="#DejaVuSans-72" transform="translate(1171.972656 0)"/>
      <use xlink:href="#DejaVuSans-65" transform="translate(1210.835938 0)"/>
      <use xlink:href="#DejaVuSans-73" transform="translate(1272.359375 0)"/>
      <use xlink:href="#DejaVuSans-73" transform="translate(1324.458984 0)"/>
      <use xlink:href="#DejaVuSans-69" transform="translate(1376.558594 0)"/>
      <use xlink:href="#DejaVuSans-6f" transform="translate(1404.341797 0)"/>
      <use xlink:href="#DejaVuSans-6e" transform="translate(1465.523438 0)"/>
      <use xlink:href="#DejaVuSans-20" transform="translate(1528.902344 0)"/>
      <use xlink:href="#DejaVuSans-28" transform="translate(1560.689453 0)"/>
      <use xlink:href="#DejaVuSans-41" transform="translate(1599.703125 0)"/>
      <use xlink:href="#DejaVuSans-75" transform="translate(1668.111328 0)"/>
      <use xlink:href="#DejaVuSans-50" transform="translate(1731.490234 0)"/>
      <use xlink:href="#DejaVuSans-52" transform="translate(1791.792969 0)"/>
      <use xlink:href="#DejaVuSans-43" transform="translate(1856.275391 0)"/>
      <use xlink:href="#DejaVuSans-20" transform="translate(1926.099609 0)"/>
      <use xlink:href="#DejaVuSans-3d" transform="translate(1957.886719 0)"/>
      <use xlink:href="#DejaVuSans-20" transform="translate(2041.675781 0)"/>
      <use xlink:href="#DejaVuSans-30" transform="translate(2073.462891 0)"/>
      <use xlink:href="#DejaVuSans-2e" transform="translate(2137.085938 0)"/>
      <use xlink:href="#DejaVuSans-37" transform="translate(2168.873047 0)"/>
      <use xlink:href="#DejaVuSans-35" transform="translate(2232.496094 0)"/>
      <use xlink:href="#DejaVuSans-32" transform="translate(2296.119141 0)"/>
      <use xlink:href="#DejaVuSans-20" transform="translate(2359.742188 0)"/>
      <use xlink:href="#DejaVuSans-b1" transform="translate(2391.529297 0)"/>
      <use xlink:href="#DejaVuSans-20" transform="translate(2475.318359 0)"/>
      <use xlink:href="#DejaVuSans-30" transform="translate(2507.105469 0)"/>
      <use xlink:href="#DejaVuSans-2e" transform="translate(2570.728516 0)"/>
      <use xlink:href="#DejaVuSans-30" transform="translate(2602.515625 0)"/>
      <use xlink:href="#DejaVuSans-37" transform="translate(2666.138672 0)"/>
      <use xlink:href="#DejaVuSans-34" transform="translate(2729.761719 0)"/>
      <use xlink:href="#DejaVuSans-29" transform="translate(2793.384766 0)"/>
     </g>
    </g>
    <g id="line2d_32">
     <path d="M 63.155625 392.281094 
L 76.155625 392.281094 
L 89.155625 392.281094 
" style="fill: none; stroke: #8c564b; stroke-width: 2; stroke-linecap: square"/>
    </g>
    <g id="text_18">
     <!-- Random Forest (AuPRC = 0.665  0.061) -->
     <g transform="translate(99.555625 396.831094) scale(0.13 -0.13)">
      <defs>
       <path id="DejaVuSans-6d" d="M 3328 2828 
Q 3544 3216 3844 3400 
Q 4144 3584 4550 3584 
Q 5097 3584 5394 3201 
Q 5691 2819 5691 2113 
L 5691 0 
L 5113 0 
L 5113 2094 
Q 5113 2597 4934 2840 
Q 4756 3084 4391 3084 
Q 3944 3084 3684 2787 
Q 3425 2491 3425 1978 
L 3425 0 
L 2847 0 
L 2847 2094 
Q 2847 2600 2669 2842 
Q 2491 3084 2119 3084 
Q 1678 3084 1418 2786 
Q 1159 2488 1159 1978 
L 1159 0 
L 581 0 
L 581 3500 
L 1159 3500 
L 1159 2956 
Q 1356 3278 1631 3431 
Q 1906 3584 2284 3584 
Q 2666 3584 2933 3390 
Q 3200 3197 3328 2828 
z
" transform="scale(0.015625)"/>
       <path id="DejaVuSans-46" d="M 628 4666 
L 3309 4666 
L 3309 4134 
L 1259 4134 
L 1259 2759 
L 3109 2759 
L 3109 2228 
L 1259 2228 
L 1259 0 
L 628 0 
L 628 4666 
z
" transform="scale(0.015625)"/>
      </defs>
      <use xlink:href="#DejaVuSans-52"/>
      <use xlink:href="#DejaVuSans-61" transform="translate(67.232422 0)"/>
      <use xlink:href="#DejaVuSans-6e" transform="translate(128.511719 0)"/>
      <use xlink:href="#DejaVuSans-64" transform="translate(191.890625 0)"/>
      <use xlink:href="#DejaVuSans-6f" transform="translate(255.367188 0)"/>
      <use xlink:href="#DejaVuSans-6d" transform="translate(316.548828 0)"/>
      <use xlink:href="#DejaVuSans-20" transform="translate(413.960938 0)"/>
      <use xlink:href="#DejaVuSans-46" transform="translate(445.748047 0)"/>
      <use xlink:href="#DejaVuSans-6f" transform="translate(499.642578 0)"/>
      <use xlink:href="#DejaVuSans-72" transform="translate(560.824219 0)"/>
      <use xlink:href="#DejaVuSans-65" transform="translate(599.6875 0)"/>
      <use xlink:href="#DejaVuSans-73" transform="translate(661.210938 0)"/>
      <use xlink:href="#DejaVuSans-74" transform="translate(713.310547 0)"/>
      <use xlink:href="#DejaVuSans-20" transform="translate(752.519531 0)"/>
      <use xlink:href="#DejaVuSans-28" transform="translate(784.306641 0)"/>
      <use xlink:href="#DejaVuSans-41" transform="translate(823.320312 0)"/>
      <use xlink:href="#DejaVuSans-75" transform="translate(891.728516 0)"/>
      <use xlink:href="#DejaVuSans-50" transform="translate(955.107422 0)"/>
      <use xlink:href="#DejaVuSans-52" transform="translate(1015.410156 0)"/>
      <use xlink:href="#DejaVuSans-43" transform="translate(1079.892578 0)"/>
      <use xlink:href="#DejaVuSans-20" transform="translate(1149.716797 0)"/>
      <use xlink:href="#DejaVuSans-3d" transform="translate(1181.503906 0)"/>
      <use xlink:href="#DejaVuSans-20" transform="translate(1265.292969 0)"/>
      <use xlink:href="#DejaVuSans-30" transform="translate(1297.080078 0)"/>
      <use xlink:href="#DejaVuSans-2e" transform="translate(1360.703125 0)"/>
      <use xlink:href="#DejaVuSans-36" transform="translate(1392.490234 0)"/>
      <use xlink:href="#DejaVuSans-36" transform="translate(1456.113281 0)"/>
      <use xlink:href="#DejaVuSans-35" transform="translate(1519.736328 0)"/>
      <use xlink:href="#DejaVuSans-20" transform="translate(1583.359375 0)"/>
      <use xlink:href="#DejaVuSans-b1" transform="translate(1615.146484 0)"/>
      <use xlink:href="#DejaVuSans-20" transform="translate(1698.935547 0)"/>
      <use xlink:href="#DejaVuSans-30" transform="translate(1730.722656 0)"/>
      <use xlink:href="#DejaVuSans-2e" transform="translate(1794.345703 0)"/>
      <use xlink:href="#DejaVuSans-30" transform="translate(1826.132812 0)"/>
      <use xlink:href="#DejaVuSans-36" transform="translate(1889.755859 0)"/>
      <use xlink:href="#DejaVuSans-31" transform="translate(1953.378906 0)"/>
      <use xlink:href="#DejaVuSans-29" transform="translate(2017.001953 0)"/>
     </g>
    </g>
    <g id="line2d_33">
     <path d="M 63.155625 411.362656 
L 76.155625 411.362656 
L 89.155625 411.362656 
" style="fill: none; stroke: #7f7f7f; stroke-width: 2; stroke-linecap: square"/>
    </g>
    <g id="text_19">
     <!-- XGBoost (AuPRC = 0.700  0.049) -->
     <g transform="translate(99.555625 415.912656) scale(0.13 -0.13)">
      <defs>
       <path id="DejaVuSans-58" d="M 403 4666 
L 1081 4666 
L 2241 2931 
L 3406 4666 
L 4084 4666 
L 2584 2425 
L 4184 0 
L 3506 0 
L 2194 1984 
L 872 0 
L 191 0 
L 1856 2491 
L 403 4666 
z
" transform="scale(0.015625)"/>
       <path id="DejaVuSans-47" d="M 3809 666 
L 3809 1919 
L 2778 1919 
L 2778 2438 
L 4434 2438 
L 4434 434 
Q 4069 175 3628 42 
Q 3188 -91 2688 -91 
Q 1594 -91 976 548 
Q 359 1188 359 2328 
Q 359 3472 976 4111 
Q 1594 4750 2688 4750 
Q 3144 4750 3555 4637 
Q 3966 4525 4313 4306 
L 4313 3634 
Q 3963 3931 3569 4081 
Q 3175 4231 2741 4231 
Q 1884 4231 1454 3753 
Q 1025 3275 1025 2328 
Q 1025 1384 1454 906 
Q 1884 428 2741 428 
Q 3075 428 3337 486 
Q 3600 544 3809 666 
z
" transform="scale(0.015625)"/>
       <path id="DejaVuSans-42" d="M 1259 2228 
L 1259 519 
L 2272 519 
Q 2781 519 3026 730 
Q 3272 941 3272 1375 
Q 3272 1813 3026 2020 
Q 2781 2228 2272 2228 
L 1259 2228 
z
M 1259 4147 
L 1259 2741 
L 2194 2741 
Q 2656 2741 2882 2914 
Q 3109 3088 3109 3444 
Q 3109 3797 2882 3972 
Q 2656 4147 2194 4147 
L 1259 4147 
z
M 628 4666 
L 2241 4666 
Q 2963 4666 3353 4366 
Q 3744 4066 3744 3513 
Q 3744 3084 3544 2831 
Q 3344 2578 2956 2516 
Q 3422 2416 3680 2098 
Q 3938 1781 3938 1306 
Q 3938 681 3513 340 
Q 3088 0 2303 0 
L 628 0 
L 628 4666 
z
" transform="scale(0.015625)"/>
      </defs>
      <use xlink:href="#DejaVuSans-58"/>
      <use xlink:href="#DejaVuSans-47" transform="translate(68.505859 0)"/>
      <use xlink:href="#DejaVuSans-42" transform="translate(145.996094 0)"/>
      <use xlink:href="#DejaVuSans-6f" transform="translate(214.599609 0)"/>
      <use xlink:href="#DejaVuSans-6f" transform="translate(275.78125 0)"/>
      <use xlink:href="#DejaVuSans-73" transform="translate(336.962891 0)"/>
      <use xlink:href="#DejaVuSans-74" transform="translate(389.0625 0)"/>
      <use xlink:href="#DejaVuSans-20" transform="translate(428.271484 0)"/>
      <use xlink:href="#DejaVuSans-28" transform="translate(460.058594 0)"/>
      <use xlink:href="#DejaVuSans-41" transform="translate(499.072266 0)"/>
      <use xlink:href="#DejaVuSans-75" transform="translate(567.480469 0)"/>
      <use xlink:href="#DejaVuSans-50" transform="translate(630.859375 0)"/>
      <use xlink:href="#DejaVuSans-52" transform="translate(691.162109 0)"/>
      <use xlink:href="#DejaVuSans-43" transform="translate(755.644531 0)"/>
      <use xlink:href="#DejaVuSans-20" transform="translate(825.46875 0)"/>
      <use xlink:href="#DejaVuSans-3d" transform="translate(857.255859 0)"/>
      <use xlink:href="#DejaVuSans-20" transform="translate(941.044922 0)"/>
      <use xlink:href="#DejaVuSans-30" transform="translate(972.832031 0)"/>
      <use xlink:href="#DejaVuSans-2e" transform="translate(1036.455078 0)"/>
      <use xlink:href="#DejaVuSans-37" transform="translate(1068.242188 0)"/>
      <use xlink:href="#DejaVuSans-30" transform="translate(1131.865234 0)"/>
      <use xlink:href="#DejaVuSans-30" transform="translate(1195.488281 0)"/>
      <use xlink:href="#DejaVuSans-20" transform="translate(1259.111328 0)"/>
      <use xlink:href="#DejaVuSans-b1" transform="translate(1290.898438 0)"/>
      <use xlink:href="#DejaVuSans-20" transform="translate(1374.6875 0)"/>
      <use xlink:href="#DejaVuSans-30" transform="translate(1406.474609 0)"/>
      <use xlink:href="#DejaVuSans-2e" transform="translate(1470.097656 0)"/>
      <use xlink:href="#DejaVuSans-30" transform="translate(1501.884766 0)"/>
      <use xlink:href="#DejaVuSans-34" transform="translate(1565.507812 0)"/>
      <use xlink:href="#DejaVuSans-39" transform="translate(1629.130859 0)"/>
      <use xlink:href="#DejaVuSans-29" transform="translate(1692.753906 0)"/>
     </g>
    </g>
    <g id="line2d_34">
     <path d="M 63.155625 430.444219 
L 76.155625 430.444219 
L 89.155625 430.444219 
" style="fill: none; stroke: #17becf; stroke-width: 2; stroke-linecap: square"/>
    </g>
    <g id="text_20">
     <!-- ensemble (AuPRC = 0.713  0.067) -->
     <g transform="translate(99.555625 434.994219) scale(0.13 -0.13)">
      <use xlink:href="#DejaVuSans-65"/>
      <use xlink:href="#DejaVuSans-6e" transform="translate(61.523438 0)"/>
      <use xlink:href="#DejaVuSans-73" transform="translate(124.902344 0)"/>
      <use xlink:href="#DejaVuSans-65" transform="translate(177.001953 0)"/>
      <use xlink:href="#DejaVuSans-6d" transform="translate(238.525391 0)"/>
      <use xlink:href="#DejaVuSans-62" transform="translate(335.9375 0)"/>
      <use xlink:href="#DejaVuSans-6c" transform="translate(399.414062 0)"/>
      <use xlink:href="#DejaVuSans-65" transform="translate(427.197266 0)"/>
      <use xlink:href="#DejaVuSans-20" transform="translate(488.720703 0)"/>
      <use xlink:href="#DejaVuSans-28" transform="translate(520.507812 0)"/>
      <use xlink:href="#DejaVuSans-41" transform="translate(559.521484 0)"/>
      <use xlink:href="#DejaVuSans-75" transform="translate(627.929688 0)"/>
      <use xlink:href="#DejaVuSans-50" transform="translate(691.308594 0)"/>
      <use xlink:href="#DejaVuSans-52" transform="translate(751.611328 0)"/>
      <use xlink:href="#DejaVuSans-43" transform="translate(816.09375 0)"/>
      <use xlink:href="#DejaVuSans-20" transform="translate(885.917969 0)"/>
      <use xlink:href="#DejaVuSans-3d" transform="translate(917.705078 0)"/>
      <use xlink:href="#DejaVuSans-20" transform="translate(1001.494141 0)"/>
      <use xlink:href="#DejaVuSans-30" transform="translate(1033.28125 0)"/>
      <use xlink:href="#DejaVuSans-2e" transform="translate(1096.904297 0)"/>
      <use xlink:href="#DejaVuSans-37" transform="translate(1128.691406 0)"/>
      <use xlink:href="#DejaVuSans-31" transform="translate(1192.314453 0)"/>
      <use xlink:href="#DejaVuSans-33" transform="translate(1255.9375 0)"/>
      <use xlink:href="#DejaVuSans-20" transform="translate(1319.560547 0)"/>
      <use xlink:href="#DejaVuSans-b1" transform="translate(1351.347656 0)"/>
      <use xlink:href="#DejaVuSans-20" transform="translate(1435.136719 0)"/>
      <use xlink:href="#DejaVuSans-30" transform="translate(1466.923828 0)"/>
      <use xlink:href="#DejaVuSans-2e" transform="translate(1530.546875 0)"/>
      <use xlink:href="#DejaVuSans-30" transform="translate(1562.333984 0)"/>
      <use xlink:href="#DejaVuSans-36" transform="translate(1625.957031 0)"/>
      <use xlink:href="#DejaVuSans-37" transform="translate(1689.580078 0)"/>
      <use xlink:href="#DejaVuSans-29" transform="translate(1753.203125 0)"/>
     </g>
    </g>
   </g>
  </g>
 </g>
 <defs>
  <clipPath id="p0781965bb4">
   <rect x="51.455625" y="23.837812" width="506.02" height="425.56"/>
  </clipPath>
 </defs>
</svg>
